<?xml version="1.0" encoding="UTF-8"?>
<svg width="416px" height="121px" viewBox="0 0 416 121" version="1.1" xmlns="http://www.w3.org/2000/svg" xmlns:xlink="http://www.w3.org/1999/xlink">
    <title>CORECOM logo</title>
    <g id="Page-1" stroke="none" stroke-width="1" fill="none" fill-rule="evenodd">
        <g id="CORECOM-logo" transform="translate(-63.000000, -53.000000)" fill="#FFFFFF">
            <g transform="translate(63.000000, 53.000000)">
                <path d="M416,0 L416,121 L0,121 L0,0 L416,0 Z M409,7 L7,7 L7,114 L409,114 L409,7 Z" id="Combined-Shape"></path>
                <path d="M41.9042969,14 L88.824707,14 C88.394694,68.8411458 88.394694,96.2617188 88.824707,96.2617188 C89.2547201,96.2617188 82.9059245,80.0672201 69.7783203,47.6782227 L58.4619141,47.6782227 L41.9042969,14 Z" id="Path-Copy"></path>
                <polygon id="Path-2-Copy" points="88.8451654 99.3261719 88.8451654 107.179199 13.3325195 107.179199 13.3325195 102.561035 34.1157227 99.3261719 53.5039062 104.514648 67.7709961 96.2617188"></polygon>
                <path d="M31.7607422,61.6870117 C31.7607422,61.6870117 29.2093099,63.0679889 24.1064453,65.8299434 L21,98.6870117 L22.7490234,98.6870117 C28.7568359,74.0203451 31.7607422,61.6870117 31.7607422,61.6870117 Z" id="Path-3-Copy"></path>
                <path d="M49.4057617,100.819824 C49.4057617,100.819824 44.9458008,99.788737 36.0258789,97.7265625 L37.1689453,83.4487305 L49.4057617,83.4487305 C49.4057617,95.0294596 49.4057617,100.819824 49.4057617,100.819824 Z" id="Path-4-Copy"></path>
                <path d="M85.8833008,96.2617187 C85.8833008,96.2617187 83.6188151,91.4158529 79.0898438,81.7241211 L67.3276367,90.3427734 L81.1074219,95.1933594 C84.2913411,95.905599 85.8833008,96.2617187 85.8833008,96.2617187 Z" id="Path-5-Copy"></path>
                <path d="M49.4579972,42.4579122 L51.6879648,46.2999381 L47.8004161,48.6366303 C47.2406428,47.6686623 47.0416922,46.4443289 47.3423041,45.2336769 C47.6580853,43.9619338 48.4580585,42.9753562 49.4579972,42.4579122 Z" id="Combined-Shape" fill-rule="nonzero" transform="translate(49.445281, 45.547271) rotate(3.000000) translate(-49.445281, -45.547271) "></path>
                <path d="M32.1324653,14.6262099 C15.855588,25.2423024 11.5675814,46.6161409 22.5549274,62.3660494 C22.7546984,62.6523918 23.1565313,62.7280564 23.4524679,62.5350551 L27.024792,60.2051217 C27.3207153,60.0121014 27.3986748,59.6235077 27.1989234,59.3371525 C22.7539363,52.9655522 21.1068294,45.1488104 22.6199533,37.6065491 C24.1330772,30.0642878 28.6824825,23.4143409 35.2673357,19.1196444 C35.4094768,19.0269544 35.5076819,18.8834184 35.5403426,18.7206192 C35.5730033,18.55782 35.5374435,18.3890963 35.4414877,18.2515729 L33.0300468,14.7950109 C32.8302061,14.5087141 32.4283548,14.4331411 32.1324653,14.6262099 L32.1324653,14.6262099 Z" id="Path" fill-rule="nonzero" transform="translate(26.008659, 38.580591) rotate(7.000000) translate(-26.008659, -38.580591) "></path>
                <path d="M41.022544,28.1518886 C41.0549195,27.9903968 41.019881,27.8229492 40.9251806,27.6865932 L38.5489346,24.2565379 C38.3520846,23.9724098 37.9561401,23.8973182 37.6645466,24.088812 C32.2033152,27.675541 28.4302936,33.2293848 27.1755037,39.5285608 C25.9207137,45.8277368 27.2869414,52.3562492 30.9736321,57.6778996 C31.1704821,57.9620277 31.5664266,58.0371193 31.8580201,57.8456255 L35.3780416,55.5338089 C35.669622,55.3422962 35.7464285,54.9567196 35.5495978,54.6725789 C29.5785517,46.0534517 31.9084681,34.3570287 40.7536244,28.5478232 C40.8938581,28.4560368 40.9906538,28.3135228 41.022544,28.1518886 L41.022544,28.1518886 Z" id="Path" fill-rule="nonzero" transform="translate(33.877534, 40.967219) rotate(7.000000) translate(-33.877534, -40.967219) "></path>
                <path d="M46.505073,37.5386891 C46.5364804,37.3801558 46.5024487,37.2157743 46.4105001,37.0818795 L44.1022865,33.7150381 C44.0104814,33.581073 43.8684105,33.4884516 43.7073342,33.4575538 C43.5462579,33.426656 43.3793737,33.4600134 43.2434017,33.5502862 C36.7314724,37.8728833 35.0169794,46.577462 39.4139536,52.9926129 C39.5057586,53.126578 39.6478295,53.2191994 39.8089058,53.2500972 C39.9699821,53.2809949 40.1368664,53.2476376 40.2728383,53.1573648 L43.6909169,50.8893585 C43.8269045,50.7991084 43.9208476,50.6593323 43.9520757,50.5007855 C43.9833037,50.3422388 43.9492581,50.1779118 43.85743,50.043962 C42.5414586,48.1240908 42.0535902,45.7689294 42.5011557,43.4966136 C42.9487212,41.2242978 44.2950564,39.2209747 46.2439674,37.9273756 C46.380158,37.8372823 46.4741442,37.6973727 46.505073,37.5386891 L46.505073,37.5386891 Z" id="Path" fill-rule="nonzero" transform="translate(41.746411, 43.353825) rotate(7.000000) translate(-41.746411, -43.353825) "></path>
                <path d="M49,55.1308594 L56.4042969,55.1308594 L58.7695312,61.1801758 L61.3999023,60.5249023 C62.629069,59.3852539 63.2436523,58.8154297 63.2436523,58.8154297 C63.2436523,58.8154297 63.2436523,57.9313151 63.2436523,56.1630859 L69.8305664,56.1630859 L67.7192383,50.8144531 L58.7695312,50.8144531 C57.8190104,49.664388 57.030599,49.0893555 56.4042969,49.0893555 C55.7779948,49.0893555 53.3098958,50.1917318 49,52.3964844 L49,55.1308594 Z" id="Path-6-Copy"></path>
                <polygon id="Path-7-Copy" points="67.3276367 86.3823242 74.2724609 81.2514648 68.706543 79.0766602 65.3747311 79.0766602"></polygon>
                <path d="M41.0029297,64.5107422 C41.0029297,64.5107422 44.7182617,64.5107422 52.1489258,64.5107422 L56.1274414,61.1801758 L54.659668,58.1694336 L52.1489258,58.1694336 C52.1489258,59.3530273 52.1489258,59.9448242 52.1489258,59.9448242 C52.1489258,59.9448242 50.1044922,59.9448242 46.015625,59.9448242 L46.015625,61.1801758 L41.0029297,61.1801758 C41.0029297,63.4005534 41.0029297,64.5107422 41.0029297,64.5107422 Z" id="Path-8-Copy"></path>
                <polygon id="Path-9-Copy" points="67.3276367 76.6743164 54.3735352 76.6743164 56.1274414 71.3276367 64.503418 70.1142578 64.503418 68.8618164 68.1699219 68.8618164"></polygon>
                <polygon id="Path-10-Copy" points="78.2290039 79.6416016 69.823596 77.6967773 70.5341797 68.8618164 74.0263 68.8618164"></polygon>
                <path d="M73.3286133,66.5267334 C73.3286133,66.5267334 71.3282878,66.5581868 67.3276367,66.6210938 L65.3747311,63.6254883 L65.3747311,58.9926758 L70.4829102,58.9375 C72.3800456,63.9969889 73.3286133,66.5267334 73.3286133,66.5267334 Z" id="Path-11-Copy"></path>
                <path d="M64.0673828,66.6210938 C64.0673828,66.6210938 60.8361003,67.8295898 54.3735352,70.246582 L52.2177734,70.246582 L46.1606445,66.6210938 C51.6359049,66.6210938 54.3735352,66.6210938 54.3735352,66.6210938 C54.3735352,66.6210938 55.5239258,65.3496908 57.824707,62.8068848 L64.0673828,62.8068848 C64.0673828,65.3496908 64.0673828,66.6210937 64.0673828,66.6210938 Z" id="Path-12-Copy"></path>
                <path d="M108.598633,108.181641 C116.75293,108.083984 120.919596,104.633464 121.098633,97.8300781 C121.098633,95.3072917 120.309245,93.09375 118.730469,91.1894531 C117.135417,89.2526042 114.669596,88.0563151 111.333008,87.6005859 C109.640299,87.3889974 108.305664,87.2018229 107.329102,87.0390625 C105.571289,86.7135417 104.29362,86.1276042 103.496094,85.28125 C102.698568,84.4511719 102.299805,83.5234375 102.299805,82.4980469 C102.332357,80.7890625 102.926432,79.5032552 104.082031,78.640625 C105.188802,77.8105469 106.572266,77.3955078 108.232422,77.3955078 C111.438802,77.460612 114.376628,78.3720703 117.045898,80.1298828 L120.048828,75.6865234 C116.777344,73.3264974 112.92806,72.0976562 108.500977,72 C104.822591,72.0325521 101.982422,72.9928385 99.9804688,74.8808594 C97.9134115,76.7851562 96.8798828,79.2916667 96.8798828,82.4003906 C96.8798828,84.9882812 97.7018229,87.1855469 99.3457031,88.9921875 C100.940755,90.75 103.268229,91.8811849 106.328125,92.3857422 C108.037109,92.6298828 109.607747,92.8496094 111.040039,93.0449219 C114.165039,93.5820312 115.711263,95.1770833 115.678711,97.8300781 C115.613607,101.06901 113.269857,102.721029 108.647461,102.786133 C104.741211,102.753581 101.37207,101.573568 98.5400391,99.2460938 L95,103.298828 C98.7923177,106.554036 103.325195,108.181641 108.598633,108.181641 Z M138.007582,107.888672 L140.741957,99.9296875 L154.242934,99.9296875 L157.001723,107.888672 L162.6902,107.888672 L149.750747,72.2929688 L145.234145,72.2929688 L132.294692,107.888672 L138.007582,107.888672 Z M152.704848,95.1445312 L142.304457,95.1445312 L147.455825,79.5927734 L147.553481,79.5927734 L152.704848,95.1445312 Z M181.112821,107.888672 L181.112821,92.6787109 L187.997587,92.6787109 L195.34622,107.888672 L201.767118,107.888672 L193.515165,92.0927734 C198.039905,90.351237 200.334826,87.0634766 200.399931,82.2294922 C200.302274,78.9417318 199.122261,76.4108073 196.859892,74.6367188 C194.988147,73.0742188 192.571155,72.2929688 189.608915,72.2929688 L175.717313,72.2929688 L175.717313,107.888672 L181.112821,107.888672 Z M189.267118,87.8935547 L181.112821,87.8935547 L181.112821,77.1025391 L189.560087,77.1025391 C191.285347,77.1025391 192.603707,77.46875 193.515165,78.2011719 C194.670764,79.03125 195.264839,80.3740234 195.297392,82.2294922 C195.297392,83.7757161 194.800972,85.0777995 193.808134,86.1357422 C192.799019,87.2750651 191.285347,87.8610026 189.267118,87.8935547 Z M227.513958,107.888672 C230.183229,107.888672 232.437461,107.302734 234.276654,106.130859 C236.132122,105.040365 237.58069,103.656901 238.622357,101.980469 C239.012982,101.345703 239.346641,100.735352 239.623333,100.149414 C239.88375,99.5472005 240.079063,98.8636068 240.209271,98.0986328 C240.485964,96.5849609 240.62431,93.9156901 240.62431,90.0908203 C240.62431,86.4938151 240.534792,83.9628906 240.355755,82.4980469 C240.127891,81.0332031 239.582643,79.6334635 238.720013,78.2988281 C236.311159,74.327474 232.697878,72.3255208 227.880169,72.2929688 L215.428997,72.2929688 L215.428997,107.888672 L227.513958,107.888672 Z M227.269818,102.786133 L220.824505,102.786133 L220.824505,77.3955078 L227.269818,77.3955078 C230.004193,77.3304036 232.120078,78.3313802 233.617474,80.3984375 C234.349896,81.2285156 234.813763,82.3108724 235.009076,83.6455078 C235.148585,84.9165892 235.221661,86.9848644 235.228304,89.8503335 L235.228802,90.2861328 C235.228802,93.4599609 235.15556,95.6246745 235.009076,96.7802734 C234.846315,97.9521484 234.463828,98.9205729 233.861615,99.6855469 C232.494427,101.752604 230.297162,102.786133 227.269818,102.786133 Z M278.87115,107.888672 L278.87115,102.786133 L261.537166,102.786133 L261.537166,92.3369141 L276.332088,92.3369141 L276.332088,87.5517578 L261.537166,87.5517578 L261.537166,77.3955078 L278.87115,77.3955078 L278.87115,72.2929688 L256.141658,72.2929688 L256.141658,107.888672 L278.87115,107.888672 Z M304.666819,108.181641 C308.296376,108.116536 311.307444,106.887695 313.700022,104.495117 C316.076324,102.086263 317.297027,99.0996094 317.362131,95.5351562 L317.362131,88.2841797 L304.715647,88.2841797 L304.715647,93.3867188 L311.966623,93.3867188 L311.966623,95.2421875 C311.934071,97.4720052 311.234202,99.2705078 309.867014,100.637695 C308.499827,102.069987 306.766428,102.786133 304.666819,102.786133 C303.397287,102.786133 302.306793,102.517578 301.395334,101.980469 C300.4676,101.52474 299.718902,100.930664 299.149241,100.198242 C298.449371,99.4332682 297.985504,98.4322917 297.757639,97.1953125 C297.507639,96.0078125 297.377639,93.7778125 297.367639,90.5053125 L297.367014,90.0908203 C297.367014,86.5914714 297.497222,84.2070312 297.757639,82.9375 C297.985504,81.7330729 298.449371,80.7483724 299.149241,79.9833984 C299.718902,79.2509766 300.4676,78.640625 301.395334,78.1523438 C302.306793,77.6803385 303.397287,77.4280599 304.666819,77.3955078 C306.392079,77.4280599 307.856923,77.9244792 309.06135,78.8847656 C310.216949,79.8938802 311.014475,81.1145833 311.453928,82.546875 L317.166819,82.546875 C316.597157,79.5683594 315.22997,77.069987 313.065256,75.0517578 C310.900543,73.0498047 308.101064,72.0325521 304.666819,72 C301.86734,72.0325521 299.531728,72.6998698 297.659983,74.0019531 C295.755686,75.2877604 294.372222,76.7526042 293.509592,78.3964844 C292.972483,79.2591146 292.57372,80.3902995 292.313303,81.7900391 C292.077882,83.1397879 291.955967,85.7608119 291.947559,89.653111 L291.947092,90.0908203 C291.947092,94.1598307 292.069162,96.9104818 292.313303,98.3427734 C292.443511,99.1077474 292.606272,99.742513 292.801584,100.24707 C293.013173,100.735352 293.249176,101.248047 293.509592,101.785156 C294.372222,103.429036 295.755686,104.877604 297.659983,106.130859 C299.531728,107.432943 301.86734,108.116536 304.666819,108.181641 Z M338.274987,107.888672 L338.274987,82.5957031 L338.372643,82.5957031 L354.461511,107.888672 L359.56405,107.888672 L359.56405,72.2929688 L354.168542,72.2929688 L354.168542,97.5859375 L354.070886,97.5859375 L337.957604,72.2929688 L332.879479,72.2929688 L332.879479,107.888672 L338.274987,107.888672 Z M378.304054,107.888672 L381.038429,99.9296875 L394.539406,99.9296875 L397.298195,107.888672 L402.986671,107.888672 L390.047218,72.2929688 L385.530617,72.2929688 L372.591163,107.888672 L378.304054,107.888672 Z M393.00132,95.1445312 L382.600929,95.1445312 L387.752296,79.5927734 L387.849952,79.5927734 L393.00132,95.1445312 Z" id="SARDEGNA-Copy" fill-rule="nonzero"></path>
                <path d="M114.28125,59.3125 C118.239583,59.3125 121.666667,58.1875 124.5625,55.9375 C127.375,53.6666667 129.28125,50.4166667 130.28125,46.1875 L122.96875,46.1875 C121.052083,50.3333333 118.15625,52.40625 114.28125,52.40625 C112.65625,52.40625 111.260417,52.0625 110.09375,51.375 C108.90625,50.7916667 107.947917,50.03125 107.21875,49.09375 C106.322917,48.1145833 105.729167,46.8333333 105.4375,45.25 C105.104167,43.6666667 104.9375,40.6354167 104.9375,36.15625 C104.9375,31.6770833 105.104167,28.625 105.4375,27 C105.729167,25.4583333 106.322917,24.1979167 107.21875,23.21875 C107.947917,22.28125 108.90625,21.5 110.09375,20.875 C111.260417,20.2708333 112.65625,19.9479167 114.28125,19.90625 C116.489583,19.9479167 118.364583,20.5833333 119.90625,21.8125 C121.385417,23.1041667 122.40625,24.6666667 122.96875,26.5 L130.28125,26.5 C129.552083,22.6875 127.802083,19.4895833 125.03125,16.90625 C122.260417,14.34375 118.677083,13.0416667 114.28125,13 C110.697917,13.0416667 107.708333,13.8958333 105.3125,15.5625 C102.875,17.2083333 101.104167,19.0833333 100,21.1875 C99.3125,22.2916667 98.8020833,23.7395833 98.46875,25.53125 C98.1663306,27.265121 98.0102432,30.6379097 98.0004878,35.6496163 L98,36.15625 C98,41.3645833 98.15625,44.8854167 98.46875,46.71875 C98.6354167,47.6979167 98.84375,48.5104167 99.09375,49.15625 C99.3645833,49.78125 99.6666667,50.4375 100,51.125 C101.104167,53.2291667 102.875,55.0833333 105.3125,56.6875 C107.708333,58.3541667 110.697917,59.2291667 114.28125,59.3125 Z M155.938706,59.3125 C159.563706,59.2291667 162.584539,58.3541667 165.001206,56.6875 C167.397039,55.0833333 169.126206,53.2291667 170.188706,51.125 C170.959539,50.0208333 171.490789,48.5520833 171.782456,46.71875 C172.044553,44.9445565 172.179829,41.5899779 172.188283,36.6550143 L172.188706,36.15625 C172.188706,30.8645833 172.053289,27.3229167 171.782456,25.53125 C171.490789,23.7395833 170.959539,22.2916667 170.188706,21.1875 C169.126206,19.0833333 167.397039,17.2083333 165.001206,15.5625 C162.584539,13.8958333 159.563706,13.0416667 155.938706,13 C152.355373,13.0416667 149.365789,13.8958333 146.969956,15.5625 C144.532456,17.2083333 142.761623,19.0833333 141.657456,21.1875 C140.969956,22.2916667 140.459539,23.7395833 140.126206,25.53125 C139.823787,27.265121 139.667699,30.6379097 139.657944,35.6496163 L139.657456,36.15625 C139.657456,41.3645833 139.813706,44.8854167 140.126206,46.71875 C140.292873,47.6979167 140.501206,48.5104167 140.751206,49.15625 C141.022039,49.78125 141.324123,50.4375 141.657456,51.125 C142.761623,53.2291667 144.532456,55.0833333 146.969956,56.6875 C149.365789,58.3541667 152.355373,59.2291667 155.938706,59.3125 Z M155.938706,52.40625 C154.313706,52.40625 152.917873,52.0625 151.751206,51.375 C150.563706,50.7916667 149.605373,50.03125 148.876206,49.09375 C147.980373,48.1145833 147.386623,46.8333333 147.094956,45.25 C146.761623,43.6666667 146.594956,40.6354167 146.594956,36.15625 C146.594956,31.6770833 146.761623,28.625 147.094956,27 C147.386623,25.4583333 147.980373,24.1979167 148.876206,23.21875 C149.605373,22.28125 150.563706,21.5 151.751206,20.875 C152.917873,20.2708333 154.313706,19.9479167 155.938706,19.90625 C157.584539,19.9479167 159.011623,20.2708333 160.219956,20.875 C161.365789,21.5 162.282456,22.28125 162.969956,23.21875 C163.865789,24.1979167 164.480373,25.4583333 164.813706,27 C165.126206,28.625 165.282456,31.6770833 165.282456,36.15625 C165.282456,40.6354167 165.126206,43.6666667 164.813706,45.25 C164.480373,46.8333333 163.865789,48.1145833 162.969956,49.09375 C162.282456,50.03125 161.365789,50.7916667 160.219956,51.375 C159.011623,52.0625 157.584539,52.40625 155.938706,52.40625 Z M193.221162,58.9375 L193.221162,39.46875 L202.033662,39.46875 L211.439912,58.9375 L219.658662,58.9375 L209.096162,38.71875 C214.887829,36.4895833 217.825329,32.28125 217.908662,26.09375 C217.783662,21.8854167 216.273245,18.6458333 213.377412,16.375 C210.981579,14.375 207.887829,13.375 204.096162,13.375 L186.314912,13.375 L186.314912,58.9375 L193.221162,58.9375 Z M203.658662,33.34375 L193.221162,33.34375 L193.221162,19.53125 L204.033662,19.53125 C206.241995,19.53125 207.929495,20 209.096162,20.9375 C210.575329,22 211.335745,23.71875 211.377412,26.09375 C211.377412,28.0729167 210.741995,29.7395833 209.471162,31.09375 C208.179495,32.5520833 206.241995,33.3020833 203.658662,33.34375 Z M260.503618,58.9375 L260.503618,52.40625 L238.316118,52.40625 L238.316118,39.03125 L257.253618,39.03125 L257.253618,32.90625 L238.316118,32.90625 L238.316118,19.90625 L260.503618,19.90625 L260.503618,13.375 L231.409868,13.375 L231.409868,58.9375 L260.503618,58.9375 Z M287.786074,59.3125 C291.744407,59.3125 295.171491,58.1875 298.067324,55.9375 C300.879824,53.6666667 302.786074,50.4166667 303.786074,46.1875 L296.473574,46.1875 C294.556907,50.3333333 291.661074,52.40625 287.786074,52.40625 C286.161074,52.40625 284.765241,52.0625 283.598574,51.375 C282.411074,50.7916667 281.452741,50.03125 280.723574,49.09375 C279.827741,48.1145833 279.233991,46.8333333 278.942324,45.25 C278.620485,43.7212644 278.454016,40.8427467 278.442919,36.6144471 L278.442324,36.15625 C278.442324,31.6770833 278.608991,28.625 278.942324,27 C279.233991,25.4583333 279.827741,24.1979167 280.723574,23.21875 C281.452741,22.28125 282.411074,21.5 283.598574,20.875 C284.765241,20.2708333 286.161074,19.9479167 287.786074,19.90625 C289.994407,19.9479167 291.869407,20.5833333 293.411074,21.8125 C294.890241,23.1041667 295.911074,24.6666667 296.473574,26.5 L303.786074,26.5 C303.056907,22.6875 301.306907,19.4895833 298.536074,16.90625 C295.765241,14.34375 292.181907,13.0416667 287.786074,13 C284.202741,13.0416667 281.213157,13.8958333 278.817324,15.5625 C276.379824,17.2083333 274.608991,19.0833333 273.504824,21.1875 C272.817324,22.2916667 272.306907,23.7395833 271.973574,25.53125 C271.661074,27.3229167 271.504824,30.8645833 271.504824,36.15625 C271.504824,41.3645833 271.661074,44.8854167 271.973574,46.71875 C272.140241,47.6979167 272.348574,48.5104167 272.598574,49.15625 C272.869407,49.78125 273.171491,50.4375 273.504824,51.125 C274.608991,53.2291667 276.379824,55.0833333 278.817324,56.6875 C281.213157,58.3541667 284.202741,59.2291667 287.786074,59.3125 Z M329.44353,59.3125 C333.06853,59.2291667 336.089363,58.3541667 338.50603,56.6875 C340.901863,55.0833333 342.63103,53.2291667 343.69353,51.125 C344.464363,50.0208333 344.995613,48.5520833 345.28728,46.71875 C345.549377,44.9445565 345.684653,41.5899779 345.693107,36.6550143 L345.69353,36.15625 C345.69353,30.8645833 345.558113,27.3229167 345.28728,25.53125 C344.995613,23.7395833 344.464363,22.2916667 343.69353,21.1875 C342.63103,19.0833333 340.901863,17.2083333 338.50603,15.5625 C336.089363,13.8958333 333.06853,13.0416667 329.44353,13 C325.860197,13.0416667 322.870613,13.8958333 320.47478,15.5625 C318.03728,17.2083333 316.266447,19.0833333 315.16228,21.1875 C314.47478,22.2916667 313.964363,23.7395833 313.63103,25.53125 C313.328611,27.265121 313.172523,30.6379097 313.162768,35.6496163 L313.16228,36.15625 C313.16228,41.3645833 313.31853,44.8854167 313.63103,46.71875 C313.797697,47.6979167 314.00603,48.5104167 314.25603,49.15625 C314.526863,49.78125 314.828947,50.4375 315.16228,51.125 C316.266447,53.2291667 318.03728,55.0833333 320.47478,56.6875 C322.870613,58.3541667 325.860197,59.2291667 329.44353,59.3125 Z M329.44353,52.40625 C327.81853,52.40625 326.422697,52.0625 325.25603,51.375 C324.06853,50.7916667 323.110197,50.03125 322.38103,49.09375 C321.485197,48.1145833 320.891447,46.8333333 320.59978,45.25 C320.266447,43.6666667 320.09978,40.6354167 320.09978,36.15625 C320.09978,31.6770833 320.266447,28.625 320.59978,27 C320.891447,25.4583333 321.485197,24.1979167 322.38103,23.21875 C323.110197,22.28125 324.06853,21.5 325.25603,20.875 C326.422697,20.2708333 327.81853,19.9479167 329.44353,19.90625 C331.089363,19.9479167 332.516447,20.2708333 333.72478,20.875 C334.870613,21.5 335.78728,22.28125 336.47478,23.21875 C337.370613,24.1979167 337.985197,25.4583333 338.31853,27 C338.63103,28.625 338.78728,31.6770833 338.78728,36.15625 C338.78728,40.6354167 338.63103,43.6666667 338.31853,45.25 C337.985197,46.8333333 337.370613,48.1145833 336.47478,49.09375 C335.78728,50.03125 334.870613,50.7916667 333.72478,51.375 C332.516447,52.0625 331.089363,52.40625 329.44353,52.40625 Z M366.725986,58.9375 L366.725986,30.53125 L366.850986,30.53125 L376.382236,52.40625 L382.132236,52.40625 L391.663486,30.53125 L391.819736,30.53125 L391.819736,58.9375 L398.725986,58.9375 L398.725986,13.375 L392.194736,13.375 L379.382236,43.0625 L366.319736,13.375 L359.819736,13.375 L359.819736,58.9375 L366.725986,58.9375 Z" id="CORECOM-Copy" fill-rule="nonzero"></path>
            </g>
        </g>
    </g>
</svg>