<?xml version="1.0" encoding="utf-8"?>
<!-- Generator: Adobe Illustrator 18.1.1, SVG Export Plug-In . SVG Version: 6.00 Build 0)  -->
<svg version="1.1" xmlns="http://www.w3.org/2000/svg" xmlns:xlink="http://www.w3.org/1999/xlink" x="0px" y="0px" width="30px"
	 height="36.7px" viewBox="36 344.8 30 36.7" enable-background="new 36 344.8 30 36.7" xml:space="preserve">
<g id="In_valutazione">
	<path fill="#F21919" d="M63.1,374.8H38.9c-1.6,0-2.9-1.3-2.9-2.9v-24.2c0-1.6,1.3-2.9,2.9-2.9h24.2c1.6,0,2.9,1.3,2.9,2.9v24.2
		C66,373.5,64.7,374.8,63.1,374.8z"/>
	<polyline fill="#F21919" points="44.7,381.5 43.4,374.2 53.8,374.2 	"/>
	<g>
		<path fill="#FFFFFF" d="M56.1,363.8l-0.6,0.7l-0.4-0.1l-1.5,1.9h1.7l0.8-0.7h0.7l0.7,0.7H58l-1.3-2.4L56.1,363.8z M56.1,363.8"/>
		<path fill="#FFFFFF" d="M56.6,365.6h-0.5l-0.6,0.6h1.7L56.6,365.6z M56.6,365.6"/>
		<path fill="#FFFFFF" d="M48.1,364.2l-0.6,2h0.9l0.7-2l0.2-1.6h0.7l0.6,1.6l-0.4,2h0.8l0.4-2.2l-0.4-1.2l-0.2-0.5l2.3,1.3l-0.4,0.7
			l1,0.6l1.1-1.8l-1-0.6l-0.4,0.7l-2.7-1.5l-0.1-0.5l0.3-1.1l0.1,1l0.2,0.5l0.7,0.4l-0.3-1.1l-0.2-2l-0.7,0l-0.1-0.4
			c0.5-0.1,0.9-0.5,0.9-1l-2.2-0.3c0,0.1,0,0.2,0,0.2c0,0.4,0.2,0.7,0.5,0.9l0,0l-0.4,0.4l-0.6,0l-1.3,1.1v1l1,0.9L48.1,364.2z
			 M47.8,360.9v-0.5l0.4-0.4v1L47.8,360.9z M47.8,360.9"/>
		<path fill="#FFFFFF" d="M51.2,357.3l0.3,0c0-1-0.4-1.7-1.2-1.8c-0.1,0-0.1,0-0.2,0c-0.7,0-1.2,0.5-1.4,1.4l0.3,0L51.2,357.3z
			 M51.2,357.3"/>
	</g>
	<path fill="none" stroke="#FFFFFF" stroke-width="2" stroke-miterlimit="10" d="M39.5,366l10.2-15.1c0.5-0.8,1.6-0.8,2.1,0
		l9.8,16.1c0.4,0.6-0.1,1.3-0.8,1.3h-20C39.6,368.3,38.8,367,39.5,366z"/>
</g>
<g id="Presa_in_carico">
</g>
<g id="Livello_3">
</g>
</svg>
