<?xml version="1.0" encoding="utf-8"?><svg xmlns="http://www.w3.org/2000/svg" xmlns:xlink="http://www.w3.org/1999/xlink"><defs><svg viewBox="0 0 24 24" id="ca-accessibility_new" xmlns="http://www.w3.org/2000/svg"><g data-name="Livello 78"><path fill="none" d="M0 0h24v24H0V0z"/><path d="M20.5 6c-2.61.7-5.67 1-8.5 1s-5.89-.3-8.5-1L3 8c1.86.5 4 .83 6 1v13h2v-6h2v6h2V9c2-.17 4.14-.5 6-1l-.5-2zM12 6c1.1 0 2-.9 2-2s-.9-2-2-2-2 .9-2 2 .9 2 2 2z"/></g></svg><svg viewBox="0 0 24 24" id="ca-account_balance" xmlns="http://www.w3.org/2000/svg"><g data-name="Livello 1"><path fill="none" d="M0 0h24v24H0V0z"/><path d="M6.5 10h-2v7h2v-7zm6 0h-2v7h2v-7zm8.5 9H2v2h19v-2zm-2.5-9h-2v7h2v-7zm-7-6.74L16.71 6H6.29l5.21-2.74m0-2.26L2 6v2h19V6l-9.5-5z"/></g></svg><svg viewBox="0 0 24 24" id="ca-account_box" xmlns="http://www.w3.org/2000/svg"><g data-name="Livello 76"><path fill="none" d="M0 0h24v24H0V0z"/><path d="M19 5v14H5V5h14m0-2H5a2 2 0 0 0-2 2v14a2 2 0 0 0 2 2h14c1.1 0 2-.9 2-2V5c0-1.1-.9-2-2-2zm-7 9c-1.65 0-3-1.35-3-3s1.35-3 3-3 3 1.35 3 3-1.35 3-3 3zm0-4c-.55 0-1 .45-1 1s.45 1 1 1 1-.45 1-1-.45-1-1-1zm6 10H6v-1.53c0-2.5 3.97-3.58 6-3.58s6 1.08 6 3.58V18zm-9.69-2h7.38c-.69-.56-2.38-1.12-3.69-1.12s-3.01.56-3.69 1.12z"/></g></svg><svg viewBox="0 0 24 24" id="ca-account_circle" xmlns="http://www.w3.org/2000/svg"><g data-name="Livello 2"><path fill="none" d="M0 0h24v24H0V0z"/><path d="M12 2C6.48 2 2 6.48 2 12s4.48 10 10 10 10-4.48 10-10S17.52 2 12 2zm0 3c1.66 0 3 1.34 3 3s-1.34 3-3 3-3-1.34-3-3 1.34-3 3-3zm0 14.2a7.2 7.2 0 0 1-6-3.22c.03-1.99 4-3.08 6-3.08 1.99 0 5.97 1.09 6 3.08a7.2 7.2 0 0 1-6 3.22z"/><path d="M0 0h24v24H0z" fill="none"/></g></svg><svg viewBox="0 0 24 24" id="ca-add" xmlns="http://www.w3.org/2000/svg"><path d="M19 13h-6v6h-2v-6H5v-2h6V5h2v6h6v2z" data-name="Livello 111"/></svg><svg viewBox="0 0 24 24" id="ca-add_circle" xmlns="http://www.w3.org/2000/svg"><path d="M13 7h-2v4H7v2h4v4h2v-4h4v-2h-4V7zm-1-5C6.5 2 2 6.5 2 12s4.5 10 10 10 10-4.5 10-10S17.5 2 12 2zm0 18c-4.4 0-8-3.6-8-8s3.6-8 8-8 8 3.6 8 8-3.6 8-8 8z" data-name="Livello 129"/></svg><svg viewBox="0 0 24 24" id="ca-airplane" xmlns="http://www.w3.org/2000/svg"><path d="M21 16v-2l-8-5V3.5c0-.8-.7-1.5-1.5-1.5S10 2.7 10 3.5V9l-8 5v2l8-2.5V19l-2 1.5V22l3.5-1 3.5 1v-1.5L13 19v-5.5l8 2.5z" data-name="Livello 90"/></svg><svg viewBox="0 0 24 24" id="ca-alarm" xmlns="http://www.w3.org/2000/svg"><path d="M12.5 8H11v6l4.8 2.8.8-1.2-4-2.4V8zm4.8-6.2l4.6 3.8-1.3 1.5L16 3.3l1.3-1.5zm-10.6 0L8 3.3 3.3 7.2 2.1 5.7l4.6-3.9zM12 4c-5 0-9 4-9 9s4 9 9 9 9-4 9-9-4-9-9-9zm0 16c-3.9 0-7-3.1-7-7s3.1-7 7-7 7 3.1 7 7-3.1 7-7 7z" data-name="Livello 135"/></svg><svg viewBox="0 0 24 24" id="ca-arrow_back" xmlns="http://www.w3.org/2000/svg"><g data-name="Livello 3"><path fill="none" d="M0 0h24v24H0V0z"/><path d="M20 11H7.83l5.59-5.59L12 4l-8 8 8 8 1.41-1.41L7.83 13H20v-2z"/></g></svg><svg viewBox="0 0 24 24" id="ca-arrow_forward" xmlns="http://www.w3.org/2000/svg"><g data-name="Livello 4"><path fill="none" d="M0 0h24v24H0V0z"/><path d="M12 4l-1.41 1.41L16.17 11H4v2h12.17l-5.58 5.59L12 20l8-8-8-8z"/></g></svg><svg viewBox="0 0 24 24" id="ca-attach_file" xmlns="http://www.w3.org/2000/svg"><g data-name="Livello 5"><path fill="none" d="M0 0h24v24H0V0z"/><path d="M16.5 6v11.5c0 2.21-1.79 4-4 4s-4-1.79-4-4V5a2.5 2.5 0 0 1 5 0v10.5c0 .55-.45 1-1 1s-1-.45-1-1V6H10v9.5a2.5 2.5 0 0 0 5 0V5c0-2.21-1.79-4-4-4S7 2.79 7 5v12.5c0 3.04 2.46 5.5 5.5 5.5s5.5-2.46 5.5-5.5V6h-1.5z"/></g></svg><svg viewBox="0 0 24 24" id="ca-build" xmlns="http://www.w3.org/2000/svg"><g data-name="Livello 60"><path fill="none" d="M0 0h24v24H0V0z"/><path d="M22.61 18.99l-9.08-9.08c.93-2.34.45-5.1-1.44-7C9.79.61 6.21.4 3.66 2.26L7.5 6.11 6.08 7.52 2.25 3.69C.39 6.23.6 9.82 2.9 12.11c1.86 1.86 4.57 2.35 6.89 1.48l9.11 9.11c.39.39 1.02.39 1.41 0l2.3-2.3c.4-.38.4-1.01 0-1.41zm-3 1.6l-9.46-9.46c-.61.45-1.29.72-2 .82-1.36.2-2.79-.21-3.83-1.25C3.37 9.76 2.93 8.5 3 7.26l3.09 3.09 4.24-4.24-3.09-3.09c1.24-.07 2.49.37 3.44 1.31a4.469 4.469 0 0 1 1.24 3.96 4.35 4.35 0 0 1-.88 1.96l9.45 9.45-.88.89z"/></g></svg><svg viewBox="0 0 24 24" id="ca-burst_mode" xmlns="http://www.w3.org/2000/svg"><g data-name="Livello 79"><path fill="none" d="M0 0h24v24H0z"/><path d="M1 5h2v14H1zm4 0h2v14H5zm17 0H10c-.55 0-1 .45-1 1v12c0 .55.45 1 1 1h12c.55 0 1-.45 1-1V6c0-.55-.45-1-1-1zm-1 12H11V7h10v10zm-3.57-4.38l-2 2.57L14 13.47l-2 2.52h8z"/></g></svg><svg viewBox="0 0 24 24" id="ca-business" xmlns="http://www.w3.org/2000/svg"><g data-name="Livello 8"><path fill="none" d="M0 0h24v24H0V0z"/><path d="M12 7V3H2v18h20V7H12zM6 19H4v-2h2v2zm0-4H4v-2h2v2zm0-4H4V9h2v2zm0-4H4V5h2v2zm4 12H8v-2h2v2zm0-4H8v-2h2v2zm0-4H8V9h2v2zm0-4H8V5h2v2zm10 12h-8v-2h2v-2h-2v-2h2v-2h-2V9h8v10zm-2-8h-2v2h2v-2zm0 4h-2v2h2v-2z"/></g></svg><svg viewBox="0 0 24 24" id="ca-business_center" xmlns="http://www.w3.org/2000/svg"><path d="M20 7h-4V5l-2-2h-4L8 5v2H4c-1.1 0-2 .9-2 2v5c0 .8.4 1.4 1 1.7V19c0 1.1.9 2 2 2h14c1.1 0 2-.9 2-2v-3.3c.6-.4 1-1 1-1.7V9c0-1.1-.9-2-2-2zM10 5h4v2h-4V5zM4 9h16v5h-5v-3H9v3H4V9zm9 6h-2v-2h2v2zm6 4H5v-3h4v1h6v-1h4v3z" data-name="Livello 105"/></svg><svg viewBox="0 0 24 24" id="ca-calendar_today" xmlns="http://www.w3.org/2000/svg"><path d="M20 3h-1V1h-2v2H7V1H5v2H4c-1.1 0-2 .9-2 2v16c0 1.1.9 2 2 2h16c1.1 0 2-.9 2-2V5c0-1.1-.9-2-2-2zm0 18H4V10h16v11zm0-13H4V5h16v3z" data-name="Livello 128"/></svg><svg viewBox="0 0 24 24" id="ca-check_circle" xmlns="http://www.w3.org/2000/svg"><path d="M12 2C6.5 2 2 6.5 2 12s4.5 10 10 10 10-4.5 10-10S17.5 2 12 2zm0 18c-4.4 0-8-3.6-8-8s3.6-8 8-8 8 3.6 8 8-3.6 8-8 8zm4.6-12.4L10 14.2l-2.6-2.6L6 13l4 4 8-8-1.4-1.4z" data-name="Livello 132"/></svg><svg viewBox="0 0 24 24" id="ca-child_care" xmlns="http://www.w3.org/2000/svg"><g data-name="Livello 57"><path fill="none" d="M0 0h24v24H0V0z"/><circle cx="14.5" cy="10.5" r="1.25"/><circle cx="9.5" cy="10.5" r="1.25"/><path d="M22.94 11.34a4.008 4.008 0 0 0-2.81-3.17 9.114 9.114 0 0 0-2.19-2.91C16.36 3.85 14.28 3 12 3s-4.36.85-5.94 2.26c-.92.81-1.67 1.8-2.19 2.91a3.994 3.994 0 0 0-2.81 3.17c-.04.21-.06.43-.06.66 0 .23.02.45.06.66a4.008 4.008 0 0 0 2.81 3.17 8.977 8.977 0 0 0 2.17 2.89C7.62 20.14 9.71 21 12 21s4.38-.86 5.97-2.28c.9-.8 1.65-1.79 2.17-2.89a3.998 3.998 0 0 0 2.8-3.17c.04-.21.06-.43.06-.66 0-.23-.02-.45-.06-.66zM19 14c-.1 0-.19-.02-.29-.03-.2.67-.49 1.29-.86 1.86C16.6 17.74 14.45 19 12 19s-4.6-1.26-5.85-3.17c-.37-.57-.66-1.19-.86-1.86-.1.01-.19.03-.29.03-1.1 0-2-.9-2-2s.9-2 2-2c.1 0 .19.02.29.03.2-.67.49-1.29.86-1.86C7.4 6.26 9.55 5 12 5s4.6 1.26 5.85 3.17c.37.57.66 1.19.86 1.86.1-.01.19-.03.29-.03 1.1 0 2 .9 2 2s-.9 2-2 2zm-7 3c2.01 0 3.74-1.23 4.5-3h-9c.76 1.77 2.49 3 4.5 3z"/></g></svg><svg viewBox="0 0 24 24" id="ca-child_friendly" xmlns="http://www.w3.org/2000/svg"><g data-name="Livello 54"><path fill="none" d="M0 0h24v24H0V0z"/><path d="M13 2v8h8c0-4.42-3.58-8-8-8zm2 6V4.34c1.7.6 3.05 1.95 3.66 3.66H15zm-8.56 3l-.95-2H2v2h2.22s1.89 4.07 2.12 4.42c-1.1.59-1.84 1.75-1.84 3.08C4.5 20.43 6.07 22 8 22c1.76 0 3.22-1.3 3.46-3h2.08c.24 1.7 1.7 3 3.46 3 1.93 0 3.5-1.57 3.5-3.5 0-1.04-.46-1.97-1.18-2.61A7.948 7.948 0 0 0 21 11H6.44zM8 20c-.83 0-1.5-.67-1.5-1.5S7.17 17 8 17s1.5.67 1.5 1.5S8.83 20 8 20zm9 0c-.83 0-1.5-.67-1.5-1.5S16.17 17 17 17s1.5.67 1.5 1.5S17.83 20 17 20zm.74-5.34l-.29.37A3.505 3.505 0 0 0 13.84 17h-2.68c-.5-1.04-1.5-1.8-2.68-1.97l-.44-.67c-.1-.17-.34-.69-.67-1.36h11.29c-.21.59-.52 1.15-.92 1.66z"/></g></svg><svg viewBox="0 0 33 24" id="ca-cittadini" xmlns="http://www.w3.org/2000/svg"><path d="M31.5 17.7c.8.3 1.5 1.1 1.5 1.9v4c0 .3-.3.4-.6.4s-.6-.3-.6-.4v-4c0-.4-.3-.8-.8-1l-2.1-.6c-.1 0-.1 0-.1-.1l-1.2 1.2v4.4c0 .3-.3.4-.6.4s-.6-.3-.6-.4v-4.4l-1.2-1.2c-.1.1-.3.1-.4.1h-.1c.4.4.7 1.1.7 1.8v3.7c0 .3-.3.4-.6.4s-.6-.3-.6-.4v-3.7c0-.7-.4-1.2-1.1-1.5l-2.6-1.1-1.2 1.9c-.1.3-.4.4-.7.4h-.1c-.3 0-.6-.1-.7-.3l-.8-.8v5c0 .3-.3.4-.6.4s-.6-.3-.6-.4v-5l-.8.8c-.1.1-.4.3-.7.3h-.1c-.3 0-.6-.1-.7-.4l-1.2-1.9-3.2 1.1c-.6.3-1 .8-1 1.5v3.7c0 .3-.3.4-.6.4s-.6-.3-.6-.4v-3.7c0-.6.1-1 .4-1.4l-.3-.2-.6.6c-.4.4-1 .6-1.4.6-.6 0-1-.1-1.4-.6l-.6-.6-1.5.8c-.4.1-.6.6-.6 1v3.6c0 .3-.3.4-.6.4s-.4-.1-.4-.4V20c0-.8.4-1.5 1.1-1.8l1.4-.7C1.1 17 .6 16.1.6 16v-.4c.4-.7.4-1.9.4-3v-1c.1-2.3 1.9-4 4.1-4s4 1.8 4.1 4v1c0 1 .1 2.3.4 3v.4s-.4.8-1.8 1.5l.3.3c.3-.1.4-.3.7-.3l3-1.1c0-.1 0-.3.1-.4l1-1v-1.7c-1.1-1-1.9-2.5-1.9-4.3V7.9c-.6-.7-.7-1.5-.7-2.2V4.6C10.3 2.1 12.4 0 15 0h7.3c.3 0 .6.3.6.4v5.1c0 .8-.1 1.7-.6 2.3v1.4c0 1.5-.7 3-1.8 4.1l-.3.3v1.5l1 1c.1.1.1.3.1.4l2.8 1 1-.3c.4-.1.4-.1.4-.3v-.7c-1-.7-1.5-1.8-1.5-3v-.8l-.3-.6c-.1-.4-.3-.7-.3-1.1 0-1.7 1.4-3 3-3h4.7c.3 0 .6.3.6.4v2.5c0 .4-.1 1-.3 1.4l-.1.4v1c0 1-.4 1.9-1.1 2.6l-.4.4v.7c0 .1 0 .1.1.1l1.6.5zm-4.2-.9c-.3 0-.7 0-1-.1v.4l1.1 1.1 1.1-1.1v-.4c-.4.1-.7.1-1.2.1.1 0 0 0 0 0zm-2.5-3.7c0 1.5 1.1 2.6 2.5 2.8.7 0 1.4-.3 1.9-.7.6-.6.8-1.1.8-1.9v-1-.3l.3-.6c.1-.3.3-.6.3-1V8.7h-4.1c-1.1 0-2.1 1-2.1 2.1 0 .3 0 .6.1.7l.3.6v1zm-6.2 5.5l1.5-2.2-.6-.6-2.2 1.7 1.3 1.1c-.2 0-.2 0 0 0zm-4 0l1.2-1.2-2.3-1.5-.6.6 1.7 2.1c-.2 0-.2 0 0 0zm1.5-3.8c-.8 0-1.5-.3-2.2-.7v.8l2.6 1.8 2.6-1.8v-.8c-.8.6-1.7.7-2.6.7h-.4zm12.7-3.1c-.8-.4-2.3-.4-2.9-.4-.3 0-.6-.3-.6-.4 0-.3.3-.4.6-.4.1 0 2.2 0 3.3.6.3.1.3.4.3.7-.1.1-.3.3-.4.3-.2-.4-.3-.4-.3-.4zM11.8 9c0 2.5 1.9 4.7 4.4 4.8 1.1.1 2.2-.3 3.2-1 .1-.1.3-.1.4-.3 1-.8 1.5-2.1 1.5-3.4V7.9v-.3c.3-.7.4-1.4.4-2.1V1H15c-2.1 0-3.7 1.7-3.7 3.6v1c0 .7.1 1.4.4 2.1V9h.1zm-7.4 9.1c.4.4 1.1.4 1.5 0l.4-.4c-.1-.1-.1-.3-.1-.4v-.6c-.3.1-.7.1-1.1.1s-.7 0-1.1-.1v.6c0 .1 0 .3-.1.4l.5.4zm-2.9-2.2c.1.3.7.7 1.5 1v-.6c-.6-.4-1-1-1.2-1.5-.1.2-.2.6-.3 1.1zm.5-4.2v1.1h.1c.3 0 .6.3.6.4 0 1.4 1.2 2.6 2.6 2.6 1.2 0 2.3-1 2.6-2.2-.8-1.7-2.8-1.9-3.4-1.9l-.7.7c-.1.1-.6.1-.7 0-.4-.1-.4-.4-.3-.6l.8-1c.1-.1.3-.1.3-.1s.8 0 1.8.3c1.2.3 2.1 1 2.5 1.8v-.1-1c0-.8-.4-1.7-1-2.2-.6-.6-1.4-1-2.2-1s-1.7.3-2.2 1c-.4.6-.8 1.4-.8 2.2zm5.1 5.1c1-.3 1.4-.7 1.5-1-.1-.3-.3-.7-.3-1.1-.3.7-.7 1.2-1.2 1.5v.6zM30.4 20c.3 0 .6.3.6.4v3c0 .3-.3.4-.6.4s-.6-.3-.6-.4v-3c.2-.3.5-.4.6-.4zm-27.8.6c.3 0 .6.3.6.4v2.5c0 .3-.3.4-.6.4s-.6-.3-.6-.5V21c0-.2.3-.4.6-.4zM13.3 5.5v1.1c0 .3-.3.4-.6.4-.1 0-.4-.1-.4-.4V5.5c0-.6.4-1 .8-1 1.5-.3 5.4-.6 7.2 1.2.3.1.3.4.1.7-.1.1-.6.1-.7 0-.7-.7-1.8-1-3.3-1.1-1.1-.1-2.4.1-3.1.2zM10.8 21c.3 0 .6.3.6.4v2.1c0 .3-.3.4-.6.4s-.6-.3-.6-.4v-2.1c.1-.2.4-.4.6-.4zm11.4 0c.3 0 .6.3.6.4v2.1c0 .3-.3.4-.6.4s-.6-.3-.6-.4v-2.1c.1-.2.3-.4.6-.4z" data-name="Livello 22"/></svg><svg viewBox="0 0 24 24" id="ca-clear" xmlns="http://www.w3.org/2000/svg"><g data-name="Livello 9"><path fill="none" d="M0 0h24v24H0V0z"/><path d="M19 6.41L17.59 5 12 10.59 6.41 5 5 6.41 10.59 12 5 17.59 6.41 19 12 13.41 17.59 19 19 17.59 13.41 12 19 6.41z"/></g></svg><svg viewBox="0 0 24 24" id="ca-color_lens" xmlns="http://www.w3.org/2000/svg"><g data-name="Livello 84"><path fill="none" d="M0 0h24v24H0z"/><path d="M12 22C6.49 22 2 17.51 2 12S6.49 2 12 2s10 4.04 10 9c0 3.31-2.69 6-6 6h-1.77c-.28 0-.5.22-.5.5 0 .12.05.23.13.33.41.47.64 1.06.64 1.67A2.5 2.5 0 0 1 12 22zm0-18c-4.41 0-8 3.59-8 8s3.59 8 8 8c.28 0 .5-.22.5-.5a.54.54 0 0 0-.14-.35c-.41-.46-.63-1.05-.63-1.65a2.5 2.5 0 0 1 2.5-2.5H16c2.21 0 4-1.79 4-4 0-3.86-3.59-7-8-7z"/><circle cx="6.5" cy="11.5" r="1.5"/><circle cx="9.5" cy="7.5" r="1.5"/><circle cx="14.5" cy="7.5" r="1.5"/><circle cx="17.5" cy="11.5" r="1.5"/></g></svg><svg viewBox="0 0 32 24" preserveAspectRatio="xMinYMid meet" id="ca-consiglio" xmlns="http://www.w3.org/2000/svg"><g data-name="Livello 80"><path d="M23.5 10.6c0 1.8 1.4 3.3 3.3 3.3 1.7 0 3.3-1.4 3.3-3.3 0-1.8-1.4-3.3-3.3-3.3s-3.3 1.4-3.3 3.3zm3.2-1.5c.8 0 1.4.7 1.4 1.4 0 .8-.7 1.4-1.4 1.4s-1.4-.7-1.4-1.4.7-1.4 1.4-1.4zM28.6 15.8h-3.7c-1.6 0-2.7 1.2-2.7 2.7v4.6c0 .5.4.9.9.9s.9-.4.9-.9v-4.6c0-.5.4-.9.9-.9h3.7c.5 0 .9.4.9.9v4.6c0 .5.4.9.9.9s.9-.4.9-.9v-4.6c0-1.5-1.2-2.7-2.7-2.7zM12.4 10.6c0 1.8 1.4 3.3 3.3 3.3 1.8 0 3.3-1.4 3.3-3.3 0-1.8-1.4-3.3-3.3-3.3s-3.3 1.4-3.3 3.3zm3.3-1.5c.8 0 1.4.7 1.4 1.4 0 .8-.7 1.4-1.4 1.4s-1.4-.7-1.4-1.4c-.1-.7.6-1.4 1.4-1.4zM13.4 3.3C13.4 1.4 12 0 10.2 0 8.3 0 6.9 1.4 6.9 3.3s1.4 3.3 3.3 3.3c1.7-.1 3.2-1.5 3.2-3.3zm-3.2 1.4c-.8 0-1.5-.7-1.5-1.4s.7-1.4 1.4-1.4c.8 0 1.4.7 1.4 1.4s-.5 1.4-1.3 1.4zM17.5 15.8h-3.7c-1.6 0-2.7 1.2-2.7 2.7v4.6c0 .5.4.9.9.9s.9-.4.9-.9v-4.6c0-.5.4-.9.9-.9h3.7c.5 0 .9.4.9.9v4.6c0 .5.4.9.9.9s.9-.4.9-.9v-4.6c0-1.5-1.2-2.7-2.7-2.7zM6.4 15.8H2.7C1.2 15.8 0 17 0 18.5v4.6c0 .5.4.9.9.9s.9-.4.9-.9v-4.6c0-.5.4-.9.9-.9h3.7c.5 0 .9.4.9.9v4.6c0 .5.4.9.9.9s.9-.4.9-.9v-4.6c0-1.5-1.1-2.7-2.7-2.7zM4.6 13.8c1.8 0 3.3-1.3 3.3-3.1S6.5 7.3 4.6 7.3c-1.8 0-3.3 1.4-3.3 3.3 0 1.8 1.4 3.2 3.3 3.2zm0-4.7c.7 0 1.4.7 1.4 1.5 0 .7-.7 1.4-1.4 1.4-.8 0-1.4-.7-1.4-1.4-.1-.8.6-1.5 1.4-1.5zM24.9 3.3c0-1.8-1.4-3.3-3.3-3.3-1.8 0-3.3 1.4-3.3 3.3s1.4 3.3 3.3 3.3c1.9-.1 3.3-1.5 3.3-3.3zm-3.2 1.4c-.8 0-1.4-.7-1.4-1.4s.7-1.4 1.4-1.4c.8 0 1.4.7 1.4 1.4s-.7 1.4-1.4 1.4z"/></g></svg><svg viewBox="0 0 24 24" id="ca-contact_phone" xmlns="http://www.w3.org/2000/svg"><g data-name="Livello 27"><path fill="none" d="M0 0h24v24H0V0z"/><path d="M22 3H2C.9 3 0 3.9 0 5v14c0 1.1.9 2 2 2h20c1.1 0 1.99-.9 1.99-2L24 5c0-1.1-.9-2-2-2zm0 16H2V5h20v14zm-2.99-1.01L21 16l-1.51-2h-1.64c-.22-.63-.35-1.3-.35-2s.13-1.37.35-2h1.64L21 8l-1.99-1.99A7.474 7.474 0 0 0 16.28 10c-.18.64-.28 1.31-.28 2s.1 1.36.28 2a7.512 7.512 0 0 0 2.73 3.99zM9 12c1.65 0 3-1.35 3-3s-1.35-3-3-3-3 1.35-3 3 1.35 3 3 3zm0-4c.55 0 1 .45 1 1s-.45 1-1 1-1-.45-1-1 .45-1 1-1zm6 8.59c0-2.5-3.97-3.58-6-3.58s-6 1.08-6 3.58V18h12v-1.41zM5.48 16c.74-.5 2.22-1 3.52-1s2.77.49 3.52 1H5.48z"/></g></svg><svg viewBox="0 0 24 24" id="ca-credit_card" xmlns="http://www.w3.org/2000/svg"><g data-name="Livello 85"><path fill="none" d="M0 0h24v24H0V0z"/><path d="M20 4H4c-1.11 0-1.99.89-1.99 2L2 18c0 1.11.89 2 2 2h16c1.11 0 2-.89 2-2V6c0-1.11-.89-2-2-2zm0 14H4v-6h16v6zm0-10H4V6h16v2z"/></g></svg><svg viewBox="0 0 24 24" id="ca-dashboard" xmlns="http://www.w3.org/2000/svg"><g data-name="Livello 80"><path fill="none" d="M0 0h24v24H0V0z"/><path d="M19 5v2h-4V5h4M9 5v6H5V5h4m10 8v6h-4v-6h4M9 17v2H5v-2h4M21 3h-8v6h8V3zM11 3H3v10h8V3zm10 8h-8v10h8V11zm-10 4H3v6h8v-6z"/></g></svg><svg viewBox="0 0 24 24" id="ca-date_range" xmlns="http://www.w3.org/2000/svg"><g data-name="Livello 30"><path fill="none" d="M0 0h24v24H0V0z"/><path d="M7 11h2v2H7v-2zm14-5v14c0 1.1-.9 2-2 2H5a2 2 0 0 1-2-2l.01-14c0-1.1.88-2 1.99-2h1V2h2v2h8V2h2v2h1c1.1 0 2 .9 2 2zM5 8h14V6H5v2zm14 12V10H5v10h14zm-4-7h2v-2h-2v2zm-4 0h2v-2h-2v2z"/></g></svg><svg viewBox="0 0 24 24" id="ca-delete_outline" xmlns="http://www.w3.org/2000/svg"><g data-name="Livello 31"><path fill="none" d="M0 0h24v24H0V0z"/><path d="M6 19c0 1.1.9 2 2 2h8c1.1 0 2-.9 2-2V7H6v12zM8 9h8v10H8V9zm7.5-5l-1-1h-5l-1 1H5v2h14V4h-3.5z"/></g></svg><svg viewBox="0 0 24 24" id="ca-description" xmlns="http://www.w3.org/2000/svg"><g data-name="Livello 10"><path fill="none" d="M0 0h24v24H0V0z"/><path d="M8 16h8v2H8zm0-4h8v2H8zm6-10H6c-1.1 0-2 .9-2 2v16c0 1.1.89 2 1.99 2H18c1.1 0 2-.9 2-2V8l-6-6zm4 18H6V4h7v5h5v11z"/></g></svg><svg viewBox="0 0 24 24" id="ca-directions" xmlns="http://www.w3.org/2000/svg"><g data-name="Livello 58"><path fill="none" d="M0 0h24v24H0V0z"/><path d="M22.43 10.59l-9.01-9.01c-.75-.75-2.07-.76-2.83 0l-9 9c-.78.78-.78 2.04 0 2.82l9 9c.39.39.9.58 1.41.58.51 0 1.02-.19 1.41-.58l8.99-8.99c.79-.76.8-2.02.03-2.82zm-10.42 10.4l-9-9 9-9 9 9-9 9zM8 11v4h2v-3h4v2.5l3.5-3.5L14 7.5V10H9c-.55 0-1 .45-1 1z"/></g></svg><svg viewBox="0 0 24 24" id="ca-directions_bike" xmlns="http://www.w3.org/2000/svg"><g data-name="Livello 82"><path fill="none" d="M0 0h24v24H0V0z"/><path d="M15.5 5.5c1.1 0 2-.9 2-2s-.9-2-2-2-2 .9-2 2 .9 2 2 2zM5 12c-2.8 0-5 2.2-5 5s2.2 5 5 5 5-2.2 5-5-2.2-5-5-5zm0 8.5c-1.9 0-3.5-1.6-3.5-3.5s1.6-3.5 3.5-3.5 3.5 1.6 3.5 3.5-1.6 3.5-3.5 3.5zm5.8-10l2.4-2.4.8.8c1.3 1.3 3 2.1 5.1 2.1V9c-1.5 0-2.7-.6-3.6-1.5l-1.9-1.9c-.5-.4-1-.6-1.6-.6s-1.1.2-1.4.6L7.8 8.4c-.4.4-.6.9-.6 1.4 0 .6.2 1.1.6 1.4L11 14v5h2v-6.2l-2.2-2.3zM19 12c-2.8 0-5 2.2-5 5s2.2 5 5 5 5-2.2 5-5-2.2-5-5-5zm0 8.5c-1.9 0-3.5-1.6-3.5-3.5s1.6-3.5 3.5-3.5 3.5 1.6 3.5 3.5-1.6 3.5-3.5 3.5z"/></g></svg><svg viewBox="0 0 24 24" id="ca-directions_car" xmlns="http://www.w3.org/2000/svg"><g data-name="Livello 86"><path fill="none" d="M0 0h24v24H0V0z"/><path d="M18.92 6.01C18.72 5.42 18.16 5 17.5 5h-11c-.66 0-1.21.42-1.42 1.01L3 12v8c0 .55.45 1 1 1h1c.55 0 1-.45 1-1v-1h12v1c0 .55.45 1 1 1h1c.55 0 1-.45 1-1v-8l-2.08-5.99zM6.85 7h10.29l1.08 3.11H5.77L6.85 7zM19 17H5v-5h14v5z"/><circle cx="7.5" cy="14.5" r="1.5"/><circle cx="16.5" cy="14.5" r="1.5"/></g></svg><svg viewBox="0 0 24 24" id="ca-directions_subway" xmlns="http://www.w3.org/2000/svg"><g data-name="Livello 11"><path fill="none" d="M0 0h24v24H0V0z"/><path d="M12 2c-4 0-8 .5-8 4v9.5C4 17.43 5.57 19 7.5 19L6 20.5v.5h12v-.5L16.5 19c1.93 0 3.5-1.57 3.5-3.5V6c0-3.5-3.58-4-8-4zm5.66 3H6.43c.61-.52 2.06-1 5.57-1 3.71 0 5.12.46 5.66 1zM11 7v3H6V7h5zm2 0h5v3h-5V7zm3.5 10h-9c-.83 0-1.5-.67-1.5-1.5V12h12v3.5c0 .83-.67 1.5-1.5 1.5z"/><circle cx="8.5" cy="14.5" r="1.5"/><circle cx="15.5" cy="14.5" r="1.5"/></g></svg><svg viewBox="0 0 24 24" id="ca-directions_walk" xmlns="http://www.w3.org/2000/svg"><g data-name="Livello 52"><path fill="none" d="M0 0h24v24H0V0z"/><path d="M13.5 5.5c1.1 0 2-.9 2-2s-.9-2-2-2-2 .9-2 2 .9 2 2 2zM9.8 8.9L7 23h2.1l1.8-8 2.1 2v6h2v-7.5l-2.1-2 .6-3C14.8 12 16.8 13 19 13v-2c-1.9 0-3.5-1-4.3-2.4l-1-1.6a2.145 2.145 0 0 0-2.65-.84L6 8.3V13h2V9.6l1.8-.7"/></g></svg><svg viewBox="0 0 24 24" id="ca-dvr" xmlns="http://www.w3.org/2000/svg"><path d="M21 3H3c-1.1 0-2 .9-2 2v12c0 1.1.9 2 2 2h5v2h8v-2h5c1.1 0 2-.9 2-2V5c0-1.1-.9-2-2-2zm0 14H3V5h18v12zm-2-9H8v2h11V8zm0 4H8v2h11v-2zM7 8H5v2h2V8zm0 4H5v2h2v-2z" data-name="Livello 99"/></svg><svg viewBox="0 0 24 24" id="ca-elezioni" xmlns="http://www.w3.org/2000/svg"><path d="M22 17.4c-.1-.2-.3-.3-.5-.3h-2.7V13c0-.8-.7-1.5-1.5-1.5H17v-1.2c0-.6-.2-1.1-.6-1.5L9.3 1.4c-.8-.8-2-.9-2.9-.3L3 3.4c-.6.4-1 1.2-.9 1.9l.7 5.1c0 .7.3 1.4.7 1.9l1.2 1.4v3.4H2.5c-.2 0-.4.1-.5.3l-2 6c0 .1 0 .3.1.4.1.1.2.2.4.2h23c.2 0 .3-.1.4-.2.1-.1.1-.3.1-.4l-2-6zm-4.6-4.9c.3 0 .5.2.5.5v7.7H5.7v-5.8c0 .1.1.1.1.2l1.8 3.2c.4.3.7.7 1.2.8h.1c.3.1.5.2.8.2.8 0 1.5-.4 1.9-1.1.4-.7.4-1.5.1-2.1l-1.8-3.6h7.5zm-13-.8c-.4-.4-.6-.9-.6-1.4l-.7-5.2c0-.4.1-.7.4-1L7 1.9c.5-.3 1.2-.3 1.6.2l7.1 7.4c.2.2.3.5.3.8v1.2H9.4l-.4-.9c-.1-.2-.4-.3-.7-.2-.3.1-.4.4-.3.7l2.8 5.5c.2.4.2 1-.2 1.4-.3.4-.9.5-1.3.3h-.1c-.3-.1-.5-.3-.6-.5l-1.8-3.2c-.1-.1-.1-.2-.2-.3l-2.2-2.6zM1.2 23l1.6-4.9h1.9v2.6h-1c-.3 0-.5.2-.5.5s.2.5.5.5h15.9c.3 0 .5-.2.5-.5s-.2-.5-.5-.5h-.9v-2.6h2.4l1.6 4.9H1.2z" data-name="Livello 81"/></svg><svg viewBox="0 0 24 24" id="ca-email" xmlns="http://www.w3.org/2000/svg"><path d="M22 6c0-1.1-.9-2-2-2H4c-1.1 0-2 .9-2 2v12c0 1.1.9 2 2 2h16c1.1 0 2-.9 2-2V6zm-2 0l-8 5-8-5h16zm0 12H4V8l8 5 8-5v10z" data-name="Livello 123"/></svg><svg viewBox="0 0 24 24" id="ca-emoji_symbols" xmlns="http://www.w3.org/2000/svg"><g data-name="Livello 103"><path d="M3 2h8v2H3zM6 11h2V7h3V5H3v2h3zM12.404 20.182l7.778-7.778 1.414 1.414-7.778 7.778z"/><circle cx="14.5" cy="14.5" r="1.5"/><circle cx="19.5" cy="19.5" r="1.5"/><path d="M15.5 11c1.4 0 2.5-1.1 2.5-2.5V4h3V2h-4v4.5c-.4-.3-.9-.5-1.5-.5C14.1 6 13 7.1 13 8.5s1.1 2.5 2.5 2.5zM9.7 16l-1.4 1.4-.7-.7.4-.4c1-1 1-2.6 0-3.5-.5-.5-1.2-.8-1.8-.8s-1.3.2-1.8.7c-1 1-1 2.6 0 3.5l.3.4-1.1 1.1c-1 1-1 2.6 0 3.5.6.6 1.3.8 1.9.8s1.3-.2 1.8-.7l1.1-1.1 1.4 1.4 1.4-1.4-1.4-1.4 1.4-1.4L9.7 16zm-3.9-1.8c.2-.1.3-.2.4-.2s.2 0 .3.1c.2.2.2.5 0 .7l-.3.4-.3-.4c-.2-.1-.2-.4-.1-.6zm0 5.6c-.1.2-.2.2-.3.2s-.2 0-.3-.1c-.2-.2-.2-.5 0-.7l1.1-1.1.7.7-1.2 1z"/></g></svg><svg viewBox="0 0 24 24" id="ca-error_outline" xmlns="http://www.w3.org/2000/svg"><path d="M11 15h2v2h-2v-2zm0-8h2v6h-2V7zm1-5C6.5 2 2 6.5 2 12s4.5 10 10 10 10-4.5 10-10S17.5 2 12 2zm0 18c-4.4 0-8-3.6-8-8s3.6-8 8-8 8 3.6 8 8-3.6 8-8 8z" data-name="Livello 131"/></svg><svg viewBox="0 0 24 24" id="ca-event" xmlns="http://www.w3.org/2000/svg"><g data-name="Livello 12"><path fill="none" d="M0 0h24v24H0V0z"/><path d="M19 4h-1V2h-2v2H8V2H6v2H5c-1.11 0-1.99.9-1.99 2L3 20a2 2 0 0 0 2 2h14c1.1 0 2-.9 2-2V6c0-1.1-.9-2-2-2zm0 16H5V10h14v10zm0-12H5V6h14v2zm-7 5h5v5h-5z"/></g></svg><svg viewBox="0 0 24 24" id="ca-event_seat" xmlns="http://www.w3.org/2000/svg"><g data-name="Livello 68"><path fill="none" d="M0 0h24v24H0V0z"/><path d="M15 5v7H9V5h6m0-2H9c-1.1 0-2 .9-2 2v9h10V5c0-1.1-.9-2-2-2zm7 7h-3v3h3v-3zM5 10H2v3h3v-3zm15 5H4v6h2v-4h12v4h2v-6z"/></g></svg><svg viewBox="0 0 24 24" id="ca-exit" xmlns="http://www.w3.org/2000/svg"><path d="M10.1 15.6l1.4 1.4 5-5-5-5-1.4 1.4 2.6 2.6H3v2h9.7l-2.6 2.6zM19 3H5c-1.1 0-2 .9-2 2v4h2V5h14v14H5v-4H3v4c0 1.1.9 2 2 2h14c1.1 0 2-.9 2-2V5c0-1.1-.9-2-2-2z" data-name="Livello 130"/></svg><svg viewBox="0 0 24 24" id="ca-exit_to_app" xmlns="http://www.w3.org/2000/svg"><g data-name="Livello 78"><path fill="none" d="M0 0h24v24H0V0z"/><path d="M10.09 15.59L11.5 17l5-5-5-5-1.41 1.41L12.67 11H3v2h9.67l-2.58 2.59zM19 3H5a2 2 0 0 0-2 2v4h2V5h14v14H5v-4H3v4a2 2 0 0 0 2 2h14c1.1 0 2-.9 2-2V5c0-1.1-.9-2-2-2z"/></g></svg><svg viewBox="0 0 24 24" id="ca-face" xmlns="http://www.w3.org/2000/svg"><g data-name="Livello 71"><path fill="none" d="M0 0h24v24H0V0z"/><path d="M10.25 13a1.25 1.25 0 1 1-2.5 0 1.25 1.25 0 0 1 2.5 0zM15 11.75a1.25 1.25 0 1 0 0 2.5 1.25 1.25 0 0 0 0-2.5zm7 .25c0 5.52-4.48 10-10 10S2 17.52 2 12 6.48 2 12 2s10 4.48 10 10zM10.66 4.12C12.06 6.44 14.6 8 17.5 8c.46 0 .91-.05 1.34-.12C17.44 5.56 14.9 4 12 4c-.46 0-.91.05-1.34.12zM4.42 9.47a8.046 8.046 0 0 0 3.66-4.44 8.046 8.046 0 0 0-3.66 4.44zM20 12c0-.78-.12-1.53-.33-2.24-.7.15-1.42.24-2.17.24a10 10 0 0 1-7.76-3.69A10.016 10.016 0 0 1 4 11.86c.01.04 0 .09 0 .14 0 4.41 3.59 8 8 8s8-3.59 8-8z"/></g></svg><svg viewBox="0 0 24 24" id="ca-facebook" xmlns="http://www.w3.org/2000/svg"><path d="M9.707 21v-8.05H7v-3.2h2.707V7.219c0-1.336.375-2.373 1.125-3.112C11.582 3.37 12.578 3 13.82 3c1.008 0 1.828.047 2.461.14v2.848h-1.687c-.633 0-1.067.14-1.301.422-.188.235-.281.61-.281 1.125V9.75H16l-.422 3.2h-2.566V21H9.707z" data-name="Livello 70"/></svg><svg viewBox="0 0 24 24" id="ca-favorite_border" xmlns="http://www.w3.org/2000/svg"><g data-name="Livello 13"><path fill="none" d="M0 0h24v24H0V0z"/><path d="M16.5 3c-1.74 0-3.41.81-4.5 2.09C10.91 3.81 9.24 3 7.5 3 4.42 3 2 5.42 2 8.5c0 3.78 3.4 6.86 8.55 11.54L12 21.35l1.45-1.32C18.6 15.36 22 12.28 22 8.5 22 5.42 19.58 3 16.5 3zm-4.4 15.55l-.1.1-.1-.1C7.14 14.24 4 11.39 4 8.5 4 6.5 5.5 5 7.5 5c1.54 0 3.04.99 3.57 2.36h1.87C13.46 5.99 14.96 5 16.5 5c2 0 3.5 1.5 3.5 3.5 0 2.89-3.14 5.74-7.9 10.05z"/></g></svg><svg viewBox="0 0 24 24" id="ca-fingerprint" xmlns="http://www.w3.org/2000/svg"><g data-name="Livello 74"><path fill="none" d="M0 0h24v24H0V0z"/><path d="M17.81 4.47c-.08 0-.16-.02-.23-.06C15.66 3.42 14 3 12.01 3c-1.98 0-3.86.47-5.57 1.41-.24.13-.54.04-.68-.2a.506.506 0 0 1 .2-.68C7.82 2.52 9.86 2 12.01 2c2.13 0 3.99.47 6.03 1.52.25.13.34.43.21.67a.49.49 0 0 1-.44.28zM3.5 9.72a.499.499 0 0 1-.41-.79c.99-1.4 2.25-2.5 3.75-3.27C9.98 4.04 14 4.03 17.15 5.65c1.5.77 2.76 1.86 3.75 3.25a.5.5 0 0 1-.12.7c-.23.16-.54.11-.7-.12a9.388 9.388 0 0 0-3.39-2.94c-2.87-1.47-6.54-1.47-9.4.01-1.36.7-2.5 1.7-3.4 2.96-.08.14-.23.21-.39.21zm6.25 12.07a.47.47 0 0 1-.35-.15c-.87-.87-1.34-1.43-2.01-2.64-.69-1.23-1.05-2.73-1.05-4.34 0-2.97 2.54-5.39 5.66-5.39s5.66 2.42 5.66 5.39c0 .28-.22.5-.5.5s-.5-.22-.5-.5c0-2.42-2.09-4.39-4.66-4.39s-4.66 1.97-4.66 4.39c0 1.44.32 2.77.93 3.85.64 1.15 1.08 1.64 1.85 2.42.19.2.19.51 0 .71-.11.1-.24.15-.37.15zm7.17-1.85c-1.19 0-2.24-.3-3.1-.89-1.49-1.01-2.38-2.65-2.38-4.39 0-.28.22-.5.5-.5s.5.22.5.5c0 1.41.72 2.74 1.94 3.56.71.48 1.54.71 2.54.71.24 0 .64-.03 1.04-.1.27-.05.53.13.58.41.05.27-.13.53-.41.58-.57.11-1.07.12-1.21.12zM14.91 22c-.04 0-.09-.01-.13-.02-1.59-.44-2.63-1.03-3.72-2.1a7.297 7.297 0 0 1-2.17-5.22c0-1.62 1.38-2.94 3.08-2.94s3.08 1.32 3.08 2.94c0 1.07.93 1.94 2.08 1.94s2.08-.87 2.08-1.94c0-3.77-3.25-6.83-7.25-6.83-2.84 0-5.44 1.58-6.61 4.03-.39.81-.59 1.76-.59 2.8 0 .78.07 2.01.67 3.61.1.26-.03.55-.29.64-.26.1-.55-.04-.64-.29a11.14 11.14 0 0 1-.73-3.96c0-1.2.23-2.29.68-3.24 1.33-2.79 4.28-4.6 7.51-4.6 4.55 0 8.25 3.51 8.25 7.83 0 1.62-1.38 2.94-3.08 2.94s-3.08-1.32-3.08-2.94c0-1.07-.93-1.94-2.08-1.94s-2.08.87-2.08 1.94c0 1.71.66 3.31 1.87 4.51.95.94 1.86 1.46 3.27 1.85.27.07.42.35.35.61-.05.23-.26.38-.47.38z"/></g></svg><svg viewBox="0 0 24 24" id="ca-flag" xmlns="http://www.w3.org/2000/svg"><path d="M14 9l-1-2H7V5.7c.6-.3 1-1 1-1.7 0-1.1-.9-2-2-2s-2 .9-2 2c0 .7.4 1.4 1 1.7V21h2v-4h5l1 2h7V9h-6zm4 8h-4l-1-2H7V9h5l1 2h5v6z" data-name="Livello 98"/></svg><svg viewBox="0 0 24 24" id="ca-folder_open" xmlns="http://www.w3.org/2000/svg"><path d="M20 6h-8l-2-2H4c-1.1 0-2 .9-2 2v12c0 1.1.9 2 2 2h16c1.1 0 2-.9 2-2V8c0-1.1-.9-2-2-2zm0 12H4V8h16v10z" data-name="Livello 136"/></svg><svg viewBox="0 0 24 24" id="ca-format_paint" xmlns="http://www.w3.org/2000/svg"><g data-name="Livello 67"><path fill="none" d="M0 0h24v24H0V0z"/><path d="M18 4V3c0-.55-.45-1-1-1H5c-.55 0-1 .45-1 1v4c0 .55.45 1 1 1h12c.55 0 1-.45 1-1V6h1v4H9v11c0 .55.45 1 1 1h2c.55 0 1-.45 1-1v-9h8V4h-3zm-2 2H6V4h10v2z"/></g></svg><svg viewBox="0 0 24 24" id="ca-forum" xmlns="http://www.w3.org/2000/svg"><g data-name="Livello 59"><path fill="none" d="M0 0h24v24H0V0z"/><path d="M15 4v7H5.17L4 12.17V4h11m1-2H3c-.55 0-1 .45-1 1v14l4-4h10c.55 0 1-.45 1-1V3c0-.55-.45-1-1-1zm5 4h-2v9H6v2c0 .55.45 1 1 1h11l4 4V7c0-.55-.45-1-1-1z"/></g></svg><svg viewBox="0 0 24 24" id="ca-giunta" xmlns="http://www.w3.org/2000/svg"><g data-name="Livello 82"><path d="M20.5 4c1.1 0 2-.9 2-2s-.9-2-2-2-2 .9-2 2 .9 2 2 2zm0-3c.6 0 1 .4 1 1s-.4 1-1 1-1-.4-1-1 .4-1 1-1zM22.6 5h-3.9c-.5-.9-1.6-1.2-2.5-.8-.9.4-1.4 1.4-1.1 2.4.3 1 1.2 1.6 2.2 1.4 1-.1 1.7-1 1.7-2h3.6c.2 0 .4.2.4.4v4.3c0 .2-.2.4-.4.4H22c-.3 0-.5.2-.5.5V17h-2v-1.1c.6-.2 1-.7 1-1.3v-4.3c0-.8-.6-1.4-1.4-1.4h-4.3c-.8 0-1.4.6-1.4 1.4v.7h-3v-.6C10.4 9.6 9.8 9 9 9H4.9c-.8 0-1.4.6-1.4 1.4v4.3c0 .6.4 1.1 1 1.3v1h-2v-5.5c0-.3-.2-.5-.5-.5h-.6c-.2 0-.4-.2-.4-.4V6.3c0-.1.2-.3.4-.3H5c0 1 .7 1.9 1.7 2s2-.5 2.2-1.5c.2-1-.2-2-1.2-2.4-.9-.4-2 0-2.5.8H1.4C.6 5 0 5.6 0 6.4v4.3c0 .7.6 1.3 1.4 1.3h.1v5.5c0 .3.2.5.5.5h3v3.5c0 .3.2.5.5.5h3c.3 0 .5-.2.5-.5v-3.8c.2.2.6.3.9.3h.1v5.5c0 .3.2.5.5.5h3c.3 0 .5-.2.5-.5V18h.1c.3 0 .6-.1.9-.3v3.8c0 .3.2.5.5.5h3c.3 0 .5-.2.5-.5V18h3c.3 0 .5-.2.5-.5V12h.1c.8 0 1.4-.6 1.4-1.4V6.3c0-.7-.6-1.3-1.4-1.3zM17 7c-.6 0-1-.4-1-1s.4-1 1-1 1 .4 1 1-.4 1-1 1zM7 5c.6 0 1 .4 1 1s-.4 1-1 1-1-.4-1-1 .4-1 1-1zm1.5 7.4V15c-.3 0-.5.2-.5.5V21H6v-5.5c0-.3-.2-.5-.5-.5h-.6c-.2 0-.4-.2-.4-.4v-4.3c0-.2.2-.4.4-.4h4.3c.2 0 .4.2.4.4v.7c-.7.2-1.1.8-1.1 1.4zm6.1 4.2c-.1.2-.3.4-.5.4h-.6c-.3 0-.5.2-.5.5V23h-2v-5.5c0-.3-.2-.5-.5-.5h-.6c-.2 0-.4-.2-.4-.4v-4.3c0-.2.2-.4.4-.4h4.3c.2 0 .4.2.4.4v4.3zm3.9-1.6c-.3 0-.5.2-.5.5V21h-2v-5.5c0-.3-.2-.5-.5-.5v-2.6c0-.6-.4-1.1-1-1.3v-.7c0-.2.2-.4.4-.4h4.3c.2 0 .4.2.4.4v4.3c-.1.1-.3.3-.5.3h-.6z"/><path d="M12 10c1.1 0 2-.9 2-2s-.9-2-2-2-2 .9-2 2 .9 2 2 2zm0-3c.6 0 1 .4 1 1s-.4 1-1 1-1-.4-1-1 .4-1 1-1zM3.5 4c1.1 0 2-.9 2-2 0-.5-.2-1-.6-1.4C4.5.2 4 0 3.5 0c-1.1 0-2 .9-2 2s.9 2 2 2zm0-3c.6 0 1 .4 1 1 0 .3-.1.5-.3.7s-.4.3-.7.3c-.6 0-1-.4-1-1s.4-1 1-1z"/></g></svg><svg viewBox="0 0 24 24" id="ca-google_plus" xmlns="http://www.w3.org/2000/svg"><path d="M14.8 11.1c.1.3.1.7.1 1 0 3.7-2.6 6.4-6.3 6.4-3.6 0-6.5-2.9-6.5-6.5S5 5.5 8.6 5.5c1.7 0 3.3.7 4.4 1.7L11.3 9c-.5-.5-1.3-1-2.6-1-2.3-.2-4.1 1.7-4.1 4s1.9 4.2 4.1 4.2c2.6 0 3.6-1.9 3.7-2.8H8.6v-2.2l6.2-.1zm5.2.2v-2h-1.9v1.9h-1.9v2h1.9V15H20v-1.9h1.9v-1.9H20v.1z" data-name="Layer 117"/></svg><svg viewBox="0 0 24 24" id="ca-grain" xmlns="http://www.w3.org/2000/svg"><g data-name="Livello 70"><path fill="none" d="M0 0h24v24H0V0z"/><path d="M10 12c-1.1 0-2 .9-2 2s.9 2 2 2 2-.9 2-2-.9-2-2-2zM6 8c-1.1 0-2 .9-2 2s.9 2 2 2 2-.9 2-2-.9-2-2-2zm0 8c-1.1 0-2 .9-2 2s.9 2 2 2 2-.9 2-2-.9-2-2-2zm12-8c1.1 0 2-.9 2-2s-.9-2-2-2-2 .9-2 2 .9 2 2 2zm-4 8c-1.1 0-2 .9-2 2s.9 2 2 2 2-.9 2-2-.9-2-2-2zm4-4c-1.1 0-2 .9-2 2s.9 2 2 2 2-.9 2-2-.9-2-2-2zm-4-4c-1.1 0-2 .9-2 2s.9 2 2 2 2-.9 2-2-.9-2-2-2zm-4-4c-1.1 0-2 .9-2 2s.9 2 2 2 2-.9 2-2-.9-2-2-2z"/></g></svg><svg viewBox="0 0 24 24" id="ca-group_add" xmlns="http://www.w3.org/2000/svg"><g data-name="Livello 55"><path fill="none" d="M0 0h24v24H0V0z"/><path d="M5 15v-3h3v-2H5V7H3v3H0v2h3v3zm7-1.25c-2.34 0-7 1.17-7 3.5V19h14v-1.75c0-2.33-4.66-3.5-7-3.5zM7.34 17c.84-.58 2.87-1.25 4.66-1.25s3.82.67 4.66 1.25H7.34zM12 12c1.93 0 3.5-1.57 3.5-3.5S13.93 5 12 5 8.5 6.57 8.5 8.5 10.07 12 12 12zm0-5c.83 0 1.5.67 1.5 1.5S12.83 10 12 10s-1.5-.67-1.5-1.5S11.17 7 12 7zm5 5c1.93 0 3.5-1.57 3.5-3.5S18.93 5 17 5c-.24 0-.48.02-.71.07a5.416 5.416 0 0 1-.02 6.85c.24.05.48.08.73.08zm2.32 2.02c1 .81 1.68 1.87 1.68 3.23V19h3v-1.75c0-1.69-2.44-2.76-4.68-3.23z"/></g></svg><svg viewBox="0 0 24 24" id="ca-hearing" xmlns="http://www.w3.org/2000/svg"><path d="M17 20c-.3 0-.6-.1-.8-.1-.7-.4-1.2-.9-1.7-2.4-.5-1.6-1.5-2.3-2.4-3-.8-.6-1.6-1.2-2.3-2.5-.5-1-.8-2.1-.8-3 0-2.8 2.2-5 5-5s5 2.2 5 5h2c0-3.9-3.1-7-7-7S7 5.1 7 9c0 1.3.4 2.6 1.1 3.9.9 1.6 2 2.5 2.9 3.1.8.6 1.4 1.1 1.7 2 .6 1.8 1.4 2.8 2.7 3.5.5.2 1.1.4 1.6.4 2.2 0 4-1.8 4-4h-2c0 1.2-.9 2.1-2 2.1zM7.6 2.6L6.2 1.2C4.2 3.2 3 6 3 9s1.2 5.8 3.2 7.8l1.4-1.4C6 13.7 5 11.5 5 9s1-4.7 2.6-6.4zM11.5 9c0 1.4 1.1 2.5 2.5 2.5s2.5-1.1 2.5-2.5-1.1-2.5-2.5-2.5-2.5 1.1-2.5 2.5z" data-name="Livello 122"/></svg><svg viewBox="0 0 24 24" id="ca-home" xmlns="http://www.w3.org/2000/svg"><g data-name="Livello 50"><path fill="none" d="M0 0h24v24H0V0z"/><path d="M12 5.69l5 4.5V18h-2v-6H9v6H7v-7.81l5-4.5M12 3L2 12h3v8h6v-6h2v6h6v-8h3L12 3z"/></g></svg><svg viewBox="0 0 24 24" id="ca-house" xmlns="http://www.w3.org/2000/svg"><g data-name="Livello 104"><path d="M19 9.3V4h-3v2.6L12 3 2 12h3v8h6v-6h2v6h6v-8h3l-3-2.7zM17 18h-2v-6H9v6H7v-7.8l5-4.5 5 4.5V18z"/><path d="M10 10h4c0-1.1-.9-2-2-2s-2 .9-2 2z"/></g></svg><svg viewBox="0 0 24 24" id="ca-how_to_reg" xmlns="http://www.w3.org/2000/svg"><g data-name="Livello 83"><path fill="none" d="M0 0h24v24H0V0z"/><path d="M11 12c2.21 0 4-1.79 4-4s-1.79-4-4-4-4 1.79-4 4 1.79 4 4 4zm0-6c1.1 0 2 .9 2 2s-.9 2-2 2-2-.9-2-2 .9-2 2-2zM5 18c.2-.63 2.57-1.68 4.96-1.94l2.04-2a9.34 9.34 0 0 0-1-.06c-2.67 0-8 1.34-8 4v2h9l-2-2H5zm15.6-5.5l-5.13 5.17-2.07-2.08L12 17l3.47 3.5L22 13.91z"/></g></svg><svg viewBox="0 0 24 24" id="ca-how_to_vote" xmlns="http://www.w3.org/2000/svg"><g data-name="Livello 89"><path fill="none" d="M0 0h24v24H0V0z"/><path d="M18 13h-.68l-2 2h1.91L19 17H5l1.78-2h2.05l-2-2H6l-3 3v4c0 1.1.89 2 1.99 2H19a2 2 0 0 0 2-2v-4l-3-3zm1 7H5v-1h14v1zm-7.66-4.98c.39.39 1.02.39 1.41 0l6.36-6.36a.996.996 0 0 0 0-1.41L14.16 2.3a.975.975 0 0 0-1.4-.01L6.39 8.66a.996.996 0 0 0 0 1.41l4.95 4.95zm2.12-10.61L17 7.95l-4.95 4.95-3.54-3.54 4.95-4.95z"/></g></svg><svg viewBox="0 0 24 24" id="ca-incandescent" xmlns="http://www.w3.org/2000/svg"><path d="M3.5 19.1L5 20.5l1.8-1.8-1.4-1.4-1.9 1.8zm7.5.9h2v3h-2v-3zM1 11h3v2H1v-2zm12-7v4l1 .6c1.2.7 2 2 2 3.5 0 2.2-1.8 4-4 4s-4-1.8-4-4c0-1.4.8-2.7 2-3.5l1-.6V4h2m2-2H9v4.8c-1.8 1-3 3-3 5.2 0 3.3 2.7 6 6 6s6-2.7 6-6c0-2.2-1.2-4.2-3-5.2V2zm5 9h3v2h-3v-2zm-2.8 7.7l1.8 1.8 1.4-1.4-1.8-1.8-1.4 1.4z" data-name="Livello 91"/></svg><svg viewBox="0 0 24 24" id="ca-info" xmlns="http://www.w3.org/2000/svg"><path d="M11 7h2v2h-2V7zm0 4h2v6h-2v-6zm1-9C6.5 2 2 6.5 2 12s4.5 10 10 10 10-4.5 10-10S17.5 2 12 2zm0 18c-4.4 0-8-3.6-8-8s3.6-8 8-8 8 3.6 8 8-3.6 8-8 8z" data-name="Livello 124"/></svg><svg viewBox="0 0 31 24" preserveAspectRatio="xMinYMid meet" id="ca-iti" xmlns="http://www.w3.org/2000/svg"><g data-name="Livello 83"><path d="M19 12.5h1.3v.9H19zM19.5 10.3h.9v1.8h-.9zM2.2 20.5h21.3v.9H2.2zM24.8 20.5h3.5v.9h-3.5zM5.3 23.1H8v.9H5.3zM9.3 23.1h15.5v.9H9.3z"/><path d="M29.2 15.2h-.9v2.6h-.5v-7C29.5 10.6 31 9 31 7.2c0-2.1-1.7-3.6-3.6-3.6-2.1 0-3.6 1.7-3.6 3.6 0 1.8 1.4 3.4 3.2 3.6v7h-.5v-1.5h-.9v1.5h-.4v-.6c0-5.4-4.4-9.8-9.8-9.8s-9.8 4.4-9.8 9.8v.6H4.1v-7c1.8-.2 3.3-1.8 3.3-3.6 0-2.1-1.7-3.6-3.6-3.6S0 5.3 0 7.4c0 1.8 1.4 3.4 3.2 3.6v7h-.5v-2.6h-.8V18h-.5v-1.7H.5v1.5H.1v.9h30.5v-.9h-1.4v-2.6zm-26-5.1C1.9 9.8.9 8.6.9 7.4c0-1.5 1.3-2.7 2.8-2.7 1.5 0 2.7 1.2 2.7 2.7 0 1.4-1 2.6-2.3 2.7v-2h-.9v2zm7.9 7.7h-.4v-2.6h-.9v2.6h-.3v-3.2H11v3.2zm6.1 0h-3.9v-7.1h1.8v5.5h2.1v1.6zm2.9 0h-.6v-3.2h.6v3.2zm4 0h-3.2v-4.1h-2.3v4.1h-.8v-2.5h-2.1V9.8h-3.5v8H12v-4.1H8.6v4.1H6.5c-.1-.3-.1-.4-.1-.6 0-4.9 4-8.9 8.9-8.9s8.9 4 8.9 8.9c-.1.2-.1.3-.1.6zm2.9-7.7c-1.4-.3-2.5-1.4-2.5-2.7 0-1.5 1.3-2.7 2.8-2.7s2.8 1.3 2.8 2.7c0 1.4-1 2.6-2.3 2.7v-2H27v2z"/><path d="M13.9 6.3h5.4c1 0 1.9-.9 1.9-1.9s-.9-2.1-1.9-2.1C19.1 1 17.9 0 16.6 0c-1.2 0-2.2.8-2.6 1.9-1.1.2-2 1.1-2 2.2 0 1.2.9 2.2 1.9 2.2zm0-3.3h.3l.4.1.1-.5c.1-.9.9-1.7 1.9-1.7 1 0 1.8.8 1.9 1.9v.5h.8c.5 0 1 .5 1 1s-.5 1-1 1h-5.4c-.6 0-1.2-.5-1.2-1.2S13.3 3 13.9 3z"/></g></svg><svg viewBox="0 0 24 24" id="ca-keyboard_arrow_down" xmlns="http://www.w3.org/2000/svg"><path d="M7.4 8.6l4.6 4.6 4.6-4.6L18 10l-6 6-6-6 1.4-1.4z" data-name="Livello 115"/></svg><svg viewBox="0 0 24 24" id="ca-keyboard_arrow_left" xmlns="http://www.w3.org/2000/svg"><path d="M15.4 16.6L10.8 12l4.6-4.6L14 6l-6 6 6 6 1.4-1.4z" data-name="Livello 112"/></svg><svg viewBox="0 0 24 24" id="ca-keyboard_arrow_right" xmlns="http://www.w3.org/2000/svg"><path d="M8.6 16.6l4.6-4.6-4.6-4.6L10 6l6 6-6 6-1.4-1.4z" data-name="Livello 114"/></svg><svg viewBox="0 0 24 24" id="ca-keyboard_arrow_up" xmlns="http://www.w3.org/2000/svg"><path d="M7.4 15.4l4.6-4.6 4.6 4.6L18 14l-6-6-6 6 1.4 1.4z" data-name="Livello 114"/></svg><svg viewBox="0 0 24 24" id="ca-layers" xmlns="http://www.w3.org/2000/svg"><g data-name="Livello 61"><path fill="none" d="M0 0h24v24H0V0z"/><path d="M11.99 18.54l-7.37-5.73L3 14.07l9 7 9-7-1.63-1.27zM12 16l7.36-5.73L21 9l-9-7-9 7 1.63 1.27L12 16zm0-11.47L17.74 9 12 13.47 6.26 9 12 4.53z"/></g></svg><svg viewBox="0 0 24 24" id="ca-linear_scale" xmlns="http://www.w3.org/2000/svg"><g data-name="Livello 72"><path fill="none" d="M0 0h24v24H0z"/><path d="M19.5 9.5c-1.03 0-1.9.62-2.29 1.5h-2.92c-.39-.88-1.26-1.5-2.29-1.5s-1.9.62-2.29 1.5H6.79c-.39-.88-1.26-1.5-2.29-1.5a2.5 2.5 0 0 0 0 5c1.03 0 1.9-.62 2.29-1.5h2.92c.39.88 1.26 1.5 2.29 1.5s1.9-.62 2.29-1.5h2.92c.39.88 1.26 1.5 2.29 1.5a2.5 2.5 0 0 0 0-5z"/></g></svg><svg viewBox="0 0 24 24" id="ca-link" xmlns="http://www.w3.org/2000/svg"><path d="M17 7h-4v2h4c1.6 0 3 1.4 3 3s-1.4 3-3 3h-4v2h4c2.8 0 5-2.2 5-5s-2.2-5-5-5zm-6 8H7c-1.7 0-3-1.4-3-3s1.3-3 3-3h4V7H7c-2.8 0-5 2.2-5 5s2.2 5 5 5h4v-2zm-3-4h8v2H8v-2z" data-name="Livello 134"/></svg><svg viewBox="0 0 24 24" id="ca-linkedin" xmlns="http://www.w3.org/2000/svg"><path d="M16.53 8.68A3.94 3.94 0 0 0 13 10.62V9H9.37v12h3.73v-5.95c0-1.57.29-3.09 2.24-3.09 1.95 0 1.93 1.8 1.93 3.19V21H21v-6.6c0-3.23-.69-5.72-4.47-5.72zM5.16 3a2.17 2.17 0 1 0 2.16 2.18A2.16 2.16 0 0 0 5.16 3zM3.29 9v12H7V9H3.29zm13.24-.3A3.94 3.94 0 0 0 13 10.62V9H9.37v12h3.73v-5.95c0-1.57.29-3.09 2.24-3.09 1.95 0 1.93 1.8 1.93 3.19V21H21v-6.6c0-3.23-.69-5.72-4.47-5.72v.02zM3.29 21H7V9H3.29v12zM5.16 3a2.17 2.17 0 1 0 2.16 2.18A2.16 2.16 0 0 0 5.16 3z" data-name="Livello 118"/></svg><svg viewBox="0 0 24 24" id="ca-list_alt" xmlns="http://www.w3.org/2000/svg"><path d="M11 7h6v2h-6V7zm0 4h6v2h-6v-2zm0 4h6v2h-6v-2zM7 7h2v2H7V7zm0 4h2v2H7v-2zm0 4h2v2H7v-2zM20.1 3H3.9c-.5 0-.9.4-.9.9v16.2c0 .4.4.9.9.9h16.2c.4 0 .9-.5.9-.9V3.9c0-.5-.5-.9-.9-.9zM19 19H5V5h14v14z" data-name="Livello 96"/></svg><svg viewBox="0 0 24 24" id="ca-local_library" xmlns="http://www.w3.org/2000/svg"><g data-name="Livello 15"><path fill="none" d="M0 0h24v24H0V0z"/><path d="M12 9c2.21 0 4-1.79 4-4s-1.79-4-4-4-4 1.79-4 4 1.79 4 4 4zm0-6c1.1 0 2 .9 2 2s-.9 2-2 2-2-.9-2-2 .9-2 2-2zm0 8.55C9.64 9.35 6.48 8 3 8v11c3.48 0 6.64 1.35 9 3.55 2.36-2.19 5.52-3.55 9-3.55V8c-3.48 0-6.64 1.35-9 3.55zm7 5.58c-2.53.34-4.93 1.3-7 2.82a15.2 15.2 0 0 0-7-2.83v-6.95c2.1.38 4.05 1.35 5.64 2.83L12 14.28l1.36-1.27A11.18 11.18 0 0 1 19 10.18v6.95z"/></g></svg><svg viewBox="0 0 24 24" id="ca-local_parking" xmlns="http://www.w3.org/2000/svg"><g data-name="Livello 69"><path fill="none" d="M0 0h24v24H0V0z"/><path d="M13 3H6v18h4v-6h3c3.31 0 6-2.69 6-6s-2.69-6-6-6zm.2 8H10V7h3.2c1.1 0 2 .9 2 2s-.9 2-2 2z"/></g></svg><svg viewBox="0 0 24 24" id="ca-local_shipping" xmlns="http://www.w3.org/2000/svg"><path d="M20 8h-3V4H3c-1.1 0-2 .9-2 2v11h2c0 1.7 1.3 3 3 3s3-1.3 3-3h6c0 1.7 1.3 3 3 3s3-1.3 3-3h2v-5l-3-4zm-.5 1.5l2 2.5H17V9.5h2.5zM6 18c-.6 0-1-.5-1-1s.4-1 1-1 1 .4 1 1-.4 1-1 1zm2.2-3c-.6-.6-1.3-1-2.2-1s-1.7.4-2.2 1H3V6h12v9H8.2zm9.8 3c-.5 0-1-.5-1-1s.5-1 1-1 1 .4 1 1-.5 1-1 1z" data-name="Livello 101"/></svg><svg viewBox="0 0 24 24" id="ca-location_city" xmlns="http://www.w3.org/2000/svg"><g data-name="Livello 75"><path fill="none" d="M0 0h24v24H0V0z"/><path d="M15 11V5l-3-3-3 3v2H3v14h18V11h-6zm-8 8H5v-2h2v2zm0-4H5v-2h2v2zm0-4H5V9h2v2zm6 8h-2v-2h2v2zm0-4h-2v-2h2v2zm0-4h-2V9h2v2zm0-4h-2V5h2v2zm6 12h-2v-2h2v2zm0-4h-2v-2h2v2z"/></g></svg><svg viewBox="0 0 24 24" id="ca-loyalty" xmlns="http://www.w3.org/2000/svg"><g data-name="Livello 100"><path d="M21.4 11.6l-9-9c-.3-.4-.8-.6-1.4-.6H4c-1.1 0-2 .9-2 2v7c0 .6.2 1.1.6 1.4l9 9c.4.4.9.6 1.4.6s1.1-.2 1.4-.6l7-7c.4-.4.6-.9.6-1.4s-.2-1.1-.6-1.4zM13 20l-9-9V4h7l9 9-7 7z"/><circle cx="6.5" cy="6.5" r="1.5"/><path d="M8.9 12.5c0 .6.2 1.1.6 1.4l3.5 3.5 3.5-3.5c.4-.4.6-.9.6-1.4 0-1.1-.9-2.1-2.1-2.1-.6 0-1.1.2-1.4.6l-.6.7-.6-.6c-.4-.4-.9-.6-1.4-.6-1.2 0-2.1.9-2.1 2z"/></g></svg><svg viewBox="0 0 24 24" id="ca-map" xmlns="http://www.w3.org/2000/svg"><g data-name="Livello 79"><path fill="none" d="M0 0h24v24H0V0z"/><path d="M20.5 3l-.16.03L15 5.1 9 3 3.36 4.9c-.21.07-.36.25-.36.48V20.5c0 .28.22.5.5.5l.16-.03L9 18.9l6 2.1 5.64-1.9c.21-.07.36-.25.36-.48V3.5c0-.28-.22-.5-.5-.5zM10 5.47l4 1.4v11.66l-4-1.4V5.47zm-5 .99l3-1.01v11.7l-3 1.16V6.46zm14 11.08l-3 1.01V6.86l3-1.16v11.84z"/></g></svg><svg viewBox="0 0 24 24" id="ca-menu_book" xmlns="http://www.w3.org/2000/svg"><g data-name="Livello 95"><path d="M21 5c-1.1-.3-2.3-.5-3.5-.5-1.9 0-4.1.4-5.5 1.5-1.4-1.1-3.6-1.5-5.5-1.5S2.5 4.9 1 6v14.6c0 .3.3.5.5.5h.3c1.3-.7 3.3-1.1 4.7-1.1 1.9 0 4.1.4 5.5 1.5 1.4-.9 3.8-1.5 5.5-1.5 1.6 0 3.4.3 4.8 1h.3c.3 0 .5-.3.5-.5V6c-.7-.5-1.3-.8-2.1-1zm0 13.5c-1.1-.4-2.3-.5-3.5-.5-1.7 0-4.1.6-5.5 1.5V8c1.4-.8 3.8-1.5 5.5-1.5 1.2 0 2.4.2 3.5.5v11.5z"/><path d="M17.5 10.5c.9 0 1.7.1 2.5.3V9.2c-.8-.1-1.6-.2-2.5-.2-1.7 0-3.2.3-4.5.8v1.7c1.1-.7 2.7-1 4.5-1zM13 12.5v1.7c1.1-.6 2.7-1 4.5-1 .9 0 1.7.1 2.5.3V12c-.8-.1-1.6-.2-2.5-.2-1.7-.1-3.2.2-4.5.7zM17.5 14.3c-1.7 0-3.2.3-4.5.8v1.7c1.1-.6 2.7-1 4.5-1 .9 0 1.7.1 2.5.3v-1.5c-.8-.2-1.6-.3-2.5-.3z"/></g></svg><svg viewBox="0 0 24 24" id="ca-more_vert" xmlns="http://www.w3.org/2000/svg"><path d="M12 8c1.1 0 2-.9 2-2s-.9-2-2-2-2 .9-2 2 .9 2 2 2zm0 2c-1.1 0-2 .9-2 2s.9 2 2 2 2-.9 2-2-.9-2-2-2zm0 6c-1.1 0-2 .9-2 2s.9 2 2 2 2-.9 2-2-.9-2-2-2z" data-name="Livello 119"/></svg><svg viewBox="0 0 24 24" id="ca-museum" xmlns="http://www.w3.org/2000/svg"><g data-name="Livello 94"><path d="M22 11V9L12 2 2 9v2h2v9H2v2h20v-2h-2v-9h2zm-4 9H6V9h12v11z"/><path d="M10 14l2 3 2-3v4h2v-7h-2l-2 3-2-3H8v7h2z"/></g></svg><svg viewBox="0 0 24 24" id="ca-nature_people" xmlns="http://www.w3.org/2000/svg"><g data-name="Livello 81"><path fill="none" d="M0 0h24v24H0V0z"/><circle cx="4.5" cy="9.5" r="1.5"/><path d="M22.17 9.17c0-3.87-3.13-7-7-7s-7 3.13-7 7A6.98 6.98 0 0 0 14 16.06V20H6v-3h1v-4c0-.55-.45-1-1-1H3c-.55 0-1 .45-1 1v4h1v5h16v-2h-3v-3.88a7 7 0 0 0 6.17-6.95zm-7 5c-2.76 0-5-2.24-5-5s2.24-5 5-5 5 2.24 5 5-2.24 5-5 5z"/></g></svg><svg viewBox="0 0 24 24" id="ca-opacity" xmlns="http://www.w3.org/2000/svg"><g data-name="Livello 65"><path fill="none" d="M24 0H0v24h24V0zm0 0H0v24h24V0zM0 24h24V0H0v24z"/><path d="M17.66 8L12 2.35 6.34 8A8.02 8.02 0 0 0 4 13.64c0 2 .78 4.11 2.34 5.67a7.99 7.99 0 0 0 11.32 0c1.56-1.56 2.34-3.67 2.34-5.67S19.22 9.56 17.66 8zM6 14c.01-2 .62-3.27 1.76-4.4L12 5.27l4.24 4.38C17.38 10.77 17.99 12 18 14H6z"/></g></svg><svg viewBox="0 0 24 24" id="ca-open_in_new" xmlns="http://www.w3.org/2000/svg"><path d="M19 19H5V5h5V3H5c-1.1 0-2 .9-2 2v14c0 1.1.9 2 2 2h14c1.1 0 2-.9 2-2v-5h-2v5zM14 3v2h3.6l-9.8 9.8 1.4 1.4L19 6.4V10h2V3h-7z" data-name="Livello 133"/></svg><svg viewBox="0 0 24 24" id="ca-opendata" xmlns="http://www.w3.org/2000/svg"><g data-name="Livello 84"><path d="M3.3 16.8c1.9.6 4.4.9 7.1.9 2.7 0 5.3-.4 7.1-.9.9-.3 1.7-.6 2.3-1.1.6-.4 1-1 1-1.7V5.3v-.1-.1c0-.6-.5-1.2-1-1.6-.6-.4-1.4-.8-2.3-1.1-1.9-.3-4.4-.6-7.1-.6-2.8 0-5.3.3-7.1.9-.9.3-1.7.6-2.3 1.1-.6.4-1 1-1 1.6v13c0 .7.4 1.3 1 1.7.6.4 1.4.8 2.3 1.1 1.9.6 4.4.9 7.1.9 1.8 0 3.5 0 5-.3.3-.1.5-.4.5-.7-.1-.3-.4-.6-.7-.5-1.4.3-3 .3-4.8.3-2.7 0-5.1-.3-6.8-.9-.8-.3-1.5-.6-1.9-.9-.4-.3-.5-.5-.5-.7v-2.5c.6.4 1.3.7 2.1.9zm-1.6-12c.4-.3 1.1-.6 1.9-.9 1.7-.5 4.1-.9 6.8-.9s5.1.3 6.8.9c.8.3 1.5.6 1.9.9.4.3.5.5.5.7s-.1.4-.5.7c-.4.3-1.1.6-1.9.9-1.7.5-4.1.9-6.8.9s-5.1-.4-6.8-.9c-.8-.3-1.5-.6-1.9-.9-.4-.3-.5-.5-.5-.7s.1-.4.5-.7zm-.6 4.9V7.4c.6.4 1.3.7 2.1.9 1.9.6 4.4.9 7.1.9s5.3-.4 7.1-.9c.8-.3 1.5-.6 2.1-.9v2.4c0 .2-.1.4-.5.7s-1.1.6-1.9.9c-1.7.5-4.1.9-6.8.9s-5.1-.3-6.8-.9c-.8-.3-1.5-.6-1.9-.9-.4-.3-.5-.5-.5-.8 0 .1 0 .1 0 0zm0 4.5v-2.5c.6.4 1.3.7 2.1.9 1.9.6 4.4.9 7.1.9s5.3-.4 7.1-.9c.8-.3 1.5-.6 2.1-.9v2.5c0 .2-.1.4-.5.7-.4.3-1.1.6-1.9.9-1.7.5-4.1.9-6.8.9s-5.1-.3-6.8-.9c-.8-.3-1.5-.6-1.9-.9-.4-.3-.5-.5-.5-.7zM23.2 18.5h-2.5v-.9c0-.1 0-.1.1-.2s.3-.1.5-.1.4.1.5.1c.1.1.1.1.1.2 0 .2.1.4.3.5.2.1.4.1.6 0 .2-.1.3-.3.3-.5 0-.5-.3-.9-.6-1.2-.4-.3-.8-.3-1.2-.3-.4 0-.7 0-1.1.3-.4.3-.6.7-.6 1.2v.9H19h-.1c-.3 0-.6.3-.6.6v4.3c0 .3.3.6.6.6h4.3c.3 0 .6-.3.6-.6v-4.3c0-.3-.3-.6-.6-.6zm-.5 4.4h-3.1v-3.1h3.1v3.1z"/></g></svg><svg viewBox="0 0 24 24" id="ca-pa" xmlns="http://www.w3.org/2000/svg"><path d="M23.8 7.6c.1.1.2.2.2.4v.9c0 .6-.4 1.1-.9 1.3v1.5c0 .3-.2.5-.5.5h-.5v5.3h.5c.3 0 .5.2.5.5v1.7c.3.2.5.6.6 1l.4 2.9c0 .1 0 .3-.1.4-.1.1-.2.2-.4.2H.5c-.1 0-.3-.1-.4-.2-.1-.3-.1-.4-.1-.5l.4-2.9c0-.4.3-.7.6-1v-1.7c0-.3.2-.5.5-.5H2v-5.3h-.6c-.3 0-.5-.2-.5-.5v-1.5C.4 10 0 9.5 0 8.9V8c0-.2.1-.3.2-.4C.3 7.6 11.7.1 11.7.1c.2-.1.4-.1.5 0l11.6 7.5zm-1.2 1.8c.3 0 .5-.2.5-.5v-.5H.9v.5c0 .3.2.5.5.5h21.2zm-3.4 1.8h3v-.9h-3v.9zM1 23.1h22l-.3-2.4c0-.2-.2-.4-.5-.4H1.7c-.2 0-.4.2-.5.4L1 23.1zm.9-4.7v.9h3v-.9h-3zm.9-1h1.1v-5.3H2.8v5.3zm7.8 1h-3v.9h3v-.9zm-2-1h1.1v-5.3H8.6v5.3zm7.8 1h-3v.9h3v-.9zm-2.1-1h1.1v-5.3h-1.1v5.3zm5.8 0h1.1v-5.3h-1.1v5.3zm2 1h-3v.9h3v-.9zm-3.9-8.1h-.9v1.4c0 .3-.2.5-.5.5h-.5v5.3h.5c.3 0 .5.2.5.5v1.4h.9V18c0-.3.2-.5.5-.5h.5v-5.3h-.5c-.3 0-.5-.2-.5-.5v-1.4zm-1.8 0h-3v.9h3v-.9zm-3.9 0h-.9v1.4c0 .3-.2.5-.5.5h-.5v5.3h.5c.3 0 .5.2.5.5v1.4h.9V18c0-.3.2-.5.5-.5h.5v-5.3H13c-.3 0-.5-.2-.5-.5v-1.4zm-1.9 0h-3v.9h3v-.9zm-3.9 0h-.9v1.4c0 .3-.2.5-.5.5h-.5v5.3h.5c.3 0 .5.2.5.5v1.4h.9V18c0-.3.2-.5.5-.5h.5v-5.3h-.5c-.3 0-.5-.2-.5-.5v-1.4zm-1.9 0h-3v.9h3v-.9zM12 1L2 7.5h20L12 1zm0 1.8c1 0 1.9.8 1.9 1.9S13 6.6 12 6.6s-1.9-.8-1.9-1.9.9-1.9 1.9-1.9zm0 2.8c.5 0 .9-.4.9-.9s-.4-1-.9-1-.9.4-.9.9.4 1 .9 1zM4.4 21.2c.3 0 .5.2.5.5s-.2.5-.5.5-.5-.2-.5-.5.2-.5.5-.5zm15.2 0c.3 0 .5.2.5.5s-.2.5-.5.5H6.2c-.3 0-.5-.2-.5-.5s.2-.5.5-.5h13.4z" data-name="Livello 23"/></svg><svg viewBox="0 0 24 24" id="ca-people" xmlns="http://www.w3.org/2000/svg"><path d="M9 13.75c-2.34 0-7 1.17-7 3.5V19h14v-1.75c0-2.33-4.66-3.5-7-3.5zM4.34 17c.84-.58 2.87-1.25 4.66-1.25s3.82.67 4.66 1.25H4.34zM9 12c1.93 0 3.5-1.57 3.5-3.5S10.93 5 9 5 5.5 6.57 5.5 8.5 7.07 12 9 12zm0-5c.83 0 1.5.67 1.5 1.5S9.83 10 9 10s-1.5-.67-1.5-1.5S8.17 7 9 7zm7.04 6.81c1.16.84 1.96 1.96 1.96 3.44V19h4v-1.75c0-2.02-3.5-3.17-5.96-3.44zM15 12c1.93 0 3.5-1.57 3.5-3.5S16.93 5 15 5c-.54 0-1.04.13-1.5.35.63.89 1 1.98 1 3.15s-.37 2.26-1 3.15c.46.22.96.35 1.5.35z" data-name="Livello 16"/></svg><svg viewBox="0 0 24 24" id="ca-perm_data_setting" xmlns="http://www.w3.org/2000/svg"><path d="M18 11.6h2V0L0 20h11.6v-2H4.8L18 4.8v6.8zm5.8 8.7l-1.1-.8V19v-.5l1.1-.8c.1-.1.1-.2.1-.3l-1-1.7c-.1-.1-.2-.1-.3-.1l-1.3.4c-.3-.2-.5-.4-.9-.5l-.2-1.3c0-.1-.1-.2-.2-.2h-2c-.1 0-.2.1-.3.2l-.2 1.3c-.3.1-.6.3-.9.5l-1.2-.5c-.1 0-.2 0-.3.1l-1 1.7c-.1.1 0 .2.1.3l1.1.8v1l-1.1.8c-.1.1-.1.2-.1.3l1 1.7c.1.1.2.1.3.1l1.2-.5c.3.2.5.4.9.5l.2 1.3c0 .1.1.2.3.2h2c.1 0 .2-.1.3-.2l.2-1.3c.3-.1.6-.3.8-.5l1.3.5c.1 0 .2 0 .3-.1l1-1.7s0-.1-.1-.2zm-4.8.2c-.8 0-1.5-.7-1.5-1.5s.7-1.5 1.5-1.5 1.5.7 1.5 1.5-.7 1.5-1.5 1.5z" data-name="Livello 107"/></svg><svg viewBox="0 0 24 24" id="ca-perm_identity" xmlns="http://www.w3.org/2000/svg"><path d="M12 6c1.1 0 2 .9 2 2s-.9 2-2 2-2-.9-2-2 .9-2 2-2m0 9c2.7 0 5.8 1.3 6 2v1H6v-1c.2-.7 3.3-2 6-2m0-11C9.8 4 8 5.8 8 8s1.8 4 4 4 4-1.8 4-4-1.8-4-4-4zm0 9c-2.7 0-8 1.3-8 4v3h16v-3c0-2.7-5.3-4-8-4z" data-name="Livello 137"/></svg><svg viewBox="0 0 24 24" id="ca-person_add" xmlns="http://www.w3.org/2000/svg"><g data-name="Livello 88"><path fill="none" d="M0 0h24v24H0V0z"/><path d="M15 12c2.21 0 4-1.79 4-4s-1.79-4-4-4-4 1.79-4 4 1.79 4 4 4zm0-6c1.1 0 2 .9 2 2s-.9 2-2 2-2-.9-2-2 .9-2 2-2zm0 8c-2.67 0-8 1.34-8 4v2h16v-2c0-2.66-5.33-4-8-4zm-6 4c.22-.72 3.31-2 6-2 2.7 0 5.8 1.29 6 2H9zm-3-3v-3h3v-2H6V7H4v3H1v2h3v3z"/></g></svg><svg viewBox="0 0 24 24" id="ca-pets" xmlns="http://www.w3.org/2000/svg"><g data-name="Livello 51"><path fill="none" d="M0 0h24v24H0V0z"/><circle cx="4.5" cy="9.5" r="2.5"/><circle cx="9" cy="5.5" r="2.5"/><circle cx="15" cy="5.5" r="2.5"/><circle cx="19.5" cy="9.5" r="2.5"/><path d="M17.34 14.86c-.87-1.02-1.6-1.89-2.48-2.91-.46-.54-1.05-1.08-1.75-1.32-.11-.04-.22-.07-.33-.09-.25-.04-.52-.04-.78-.04s-.53 0-.79.05c-.11.02-.22.05-.33.09-.7.24-1.28.78-1.75 1.32-.87 1.02-1.6 1.89-2.48 2.91-1.31 1.31-2.92 2.76-2.62 4.79.29 1.02 1.02 2.03 2.33 2.32.73.15 3.06-.44 5.54-.44h.18c2.48 0 4.81.58 5.54.44 1.31-.29 2.04-1.31 2.33-2.32.31-2.04-1.3-3.49-2.61-4.8z"/></g></svg><svg viewBox="0 0 24 24" id="ca-phone_in_talk" xmlns="http://www.w3.org/2000/svg"><g data-name="Livello 25"><path fill="none" d="M0 0h24v24H0V0z"/><path d="M15 12h2c0-2.76-2.24-5-5-5v2c1.66 0 3 1.34 3 3zm4 0h2a9 9 0 0 0-9-9v2c3.87 0 7 3.13 7 7zm1 3.5c-1.25 0-2.45-.2-3.57-.57-.1-.03-.21-.05-.31-.05-.26 0-.51.1-.71.29l-2.2 2.2a15.045 15.045 0 0 1-6.59-6.59l2.2-2.21a.96.96 0 0 0 .25-1A11.36 11.36 0 0 1 8.5 4c0-.55-.45-1-1-1H4c-.55 0-1 .45-1 1 0 9.39 7.61 17 17 17 .55 0 1-.45 1-1v-3.5c0-.55-.45-1-1-1zM5.03 5h1.5c.07.88.22 1.75.45 2.58l-1.2 1.21c-.4-1.21-.66-2.47-.75-3.79zM19 18.97c-1.32-.09-2.6-.35-3.8-.76l1.2-1.2c.85.24 1.72.39 2.6.45v1.51z"/></g></svg><svg viewBox="0 0 24 24" id="ca-phonelink_ring" xmlns="http://www.w3.org/2000/svg"><g data-name="Livello 28"><path fill="none" d="M0 0h24v24H0V0z"/><path d="M20.1 7.7l-1 1c1.8 1.8 1.8 4.6 0 6.5l1 1c2.5-2.3 2.5-6.1 0-8.5zM18 9.8l-1 1c.5.7.5 1.6 0 2.3l1 1c1.2-1.2 1.2-3 0-4.3zM14 1H4c-1.1 0-2 .9-2 2v18c0 1.1.9 2 2 2h10c1.1 0 2-.9 2-2V3c0-1.1-.9-2-2-2zm0 19H4V4h10v16z"/></g></svg><svg viewBox="0 0 24 24" id="ca-pin_drop" xmlns="http://www.w3.org/2000/svg"><g data-name="Livello 87"><path fill="none" d="M0 0h24v24H0V0z"/><path d="M5 20h14v2H5zM18 8c0-3.31-2.69-6-6-6S6 4.69 6 8c0 4.5 6 11 6 11s6-6.5 6-11zM8 8c0-2.21 1.79-4 4-4s4 1.79 4 4c0 2.13-2.08 5.46-4 7.91-1.92-2.44-4-5.78-4-7.91zm4-2c-1.1 0-2 .9-2 2s.9 2 2 2a2 2 0 1 0 0-4z"/></g></svg><svg viewBox="0 0 24 24" id="ca-place" xmlns="http://www.w3.org/2000/svg"><g data-name="Livello 17"><path fill="none" d="M0 0h24v24H0V0z"/><path d="M12 2C8.13 2 5 5.13 5 9c0 5.25 7 13 7 13s7-7.75 7-13c0-3.87-3.13-7-7-7zM7 9c0-2.76 2.24-5 5-5s5 2.24 5 5c0 2.88-2.88 7.19-5 9.88C9.92 16.21 7 11.85 7 9z"/><circle cx="12" cy="9" r="2.5"/></g></svg><svg viewBox="0 0 24 24" id="ca-play" xmlns="http://www.w3.org/2000/svg"><g data-name="Livello 70"><path fill="none" d="M0 0h24v24H0V0z"/><path d="M12 2C6.48 2 2 6.48 2 12s4.48 10 10 10 10-4.48 10-10S17.52 2 12 2zm-2 14.5v-9l6 4.5-6 4.5z"/></g></svg><svg viewBox="0 0 24 24" id="ca-policy" xmlns="http://www.w3.org/2000/svg"><path d="M12 1L3 5v6c0 5.5 3.8 10.7 9 12 5.2-1.3 9-6.5 9-12V5l-9-4zm7 10c0 1.9-.5 3.6-1.4 5.2l-1.5-1.4c1.3-1.9 1.1-4.6-.6-6.3-1.9-1.9-5.1-1.9-7.1 0s-1.9 5.1 0 7.1c1.7 1.7 4.4 1.9 6.3.6l1.7 1.7c-1.2 1.4-2.7 2.5-4.5 3-4-1.2-7-5.4-7-9.9V6.3l7-3.1 7 3.1V11zm-7 4c-1.7 0-3-1.3-3-3s1.3-3 3-3 3 1.3 3 3-1.3 3-3 3z" data-name="Livello 106"/></svg><svg viewBox="0 0 38 24" preserveAspectRatio="xMinYMid meet" id="ca-ponmetro" xmlns="http://www.w3.org/2000/svg"><g data-name="Livello 85"><path d="M10.8 19.5c.2.2.3.2.5 0v-1.8c0-.3-.2-.6-.3-.8-.2-.2-.5-.3-.8-.3H8.6v2.5c0 .2.2.3.2.3.2.2.2.2.3.2s.3-.2.3-.2 0-.2.2-.2v-1.9h1s.2.2.2.3V19c-.1.3 0 .5 0 .5zM6 20.7l-3.8.3v2.5c0 .2.2.3.2.3.1.2.1.2.3.2.1 0 .3-.2.3-.2.2-.2.2-.2.2-.3v-1.9h1c.2 0 .3.2.3.3v1.4c0 .2.2.3.2.3.2.2.3.2.5 0s.2-.2.2-.3v-1.9h1s.2.2.2.3v1.4c0 .2.2.3.2.3.2.2.3.2.5 0s.2-.2.2-.3v-1.4c0-.3-.2-.6-.3-.8-.6 0-.9-.2-1.2-.2zM12.4 20.9h-.5v-.3c0-.2-.2-.3-.2-.3-.2-.2-.3-.2-.5 0s-.2.2-.2.3v.3c0 .1-.2.1-.2.3l.2.2c0 .2 0 .2.2.2v1.3c0 .6.3.9.9.9.5 0 .6 0 .6-.3 0-.2-.2-.3-.2-.3-.2-.2-.2-.2-.3-.2h-.5v-1.5h.5c.2 0 .2-.2.5 0 .2-.2.2-.3 0-.5s-.2-.1-.3-.1zM7.7 19.3c.3-.3.5-.6.3-1.1 0-.5-.2-.8-.5-1.1-.2-.3-.5-.5-.9-.5-.3 0-.6.2-.9.5-.3.3-.5.8-.5 1.1 0 .5 0 .8.3 1.1.3.3.6.5 1.1.5s.8-.2 1.1-.5zM6 18.2c0-.2.2-.3.3-.6.2-.2.3-.2.5-.2s.3 0 .5.2.2.5.2.6c0 .3 0 .5-.2.6-.1.2-.2.2-.5.2-.5 0-.8-.3-.8-.8zM8.9 20.7c-.3 0-.9.2-1.1.5-.2.3-.3.6-.3 1.1s0 .8.3 1.1c.3.2.6.3 1.1.3.2 0 .3-.2.3-.2.2 0 .2 0 .2-.2s-.2-.3-.2-.3c-.2-.2-.2-.2-.3-.2-.3 0-.5-.2-.6-.3h1.9v-.3c0-.5-.2-.8-.3-1.1-.2-.2-.5-.4-1-.4zM8.3 22c0-.5.3-.6.8-.6.3 0 .6.3.6.6H8.3zM3 20.4v-.6h.5c.3 0 .8-.2.9-.5.2-.3.3-.6.3-1.1s0-.8-.2-1.3c-.2-.3-.6-.5-.9-.5-.2 0-.3.2-.5.2-.1-.1-.1-.1-.3-.1-.2 0-.3.2-.3.2-.2.2-.2.2-.2.3v3.1c0 .2.2.3.2.3.2.2.3.2.5 0zm0-2.5c0-.3.2-.5.5-.3.2 0 .3 0 .5.2s.2.3.2.5 0 .3-.2.5c-.2 0-.4.2-.5.2-.2 0-.3 0-.5-.2v-.9zM7.7 9.5c.2.6 1.1.3.9-.3-.1-.8-.3-1.6-.4-2.4-.2-.6-1.1-.3-1 .3.2.8.3 1.6.5 2.4zM23.2 12c-.3.5-.6.9-.8 1.4-.5.5.5.9.8.5.2-.5.5-.9.8-1.4.4-.5-.5-1-.8-.5zM14.7 20.7c-.3 0-.5.2-.6.2h-.3c0-.2-.2-.3-.3-.3-.2 0-.3.2-.3.2-.2.1-.2.1-.2.2v2.2c0 .2.2.3.2.3.2.2.3.2.5 0s.2-.2.2-.3V22c0-.2.2-.3.3-.5.2-.2.3-.2.5-.2h.2l.2-.2c.2 0 .2 0 .2-.2-.3 0-.4-.2-.6-.2zM23 15.2l-.8.9c-.2.2-.2.5 0 .6s.5.2.6 0l.8-.9c.2-.2.2-.5 0-.6-.1-.1-.4-.1-.6 0z"/><path d="M37.4 21.8c-.2-.3-.6-.2-.9.2-2.5 1.7-5.9 1.3-8.6.3-1.6-.5-3-1.4-4.4-2.3-.3-.2-.5-.5-.8-.6l5.6-4.8.2.2c.3.5 1.1-.2.6-.6l-5.3-5c0-.2-.2-.2-.2-.2l2-3.1h.2c.5.3 1.1-.5.5-.8L17.7.3c-.5-.3-1.1.5-.5.8h.2L15 7l-4.2-1.3v-.9c.6-.2.3-1.1-.3-.9L.3 5.7c-.6.2-.3 1.1.4.9h.2l3.4 6.9c-.6.3-1.1.5-1.7.8-.8.5-.5 1.1.3.8.6-.3 1.1-.6 1.7-.8 0 .2.2.2.2.3.3.6 1.1.2.8-.5V14c1.4-.5 3-.8 4.4-.8v.9c0 .6.9.6.9 0v-.9c.8 0 1.6.2 2.3.3.3 0 .5 0 .8.2l-.3.6c-.2.6.8.9.9.3l.3-.6c1.1.5 2.2 1.3 3.1 2.2l-.6 1.1c-.5.5.5.9.8.5l.8-.6c.5.6.9 1.3 1.6 1.9l.6.6-.6.5c-.6.3.2 1.1.6.6l.6-.6c4.2 3.4 10.6 5.5 15.5 2.3.1-.1.4-.5.1-.7zM9.9 12.3c-1.6.2-3.1.5-4.7.9L1.7 6.5l8.1-1.6v7.4zm4.5.4c-.6-.2-1.3-.3-1.9-.3-.5-.2-1.1-.2-1.7-.2V6.8L16 8.4c-.5 1.5-1.1 2.9-1.6 4.3zm4.4 2.2c-.9-.8-2.2-1.6-3.4-2 .5-1.4.9-2.8 1.6-4.5.5.2.8-.8.2-.9L16 7.1l2.3-5.9L25 5l-6.2 9.9zm1.2 1.4c-.2-.2-.3-.5-.6-.6l3.9-6.1 4.4 4.1-5.6 4.8c-.6-.6-1.4-1.4-2.1-2.2z"/><path d="M20.2 5.5c-.3.8-.8 1.4-1.1 2-.3.5.5 1.2.8.5.3-.6.8-1.4 1.1-2 .3-.5-.5-1.1-.8-.5zM18.3 9.5l-1.1 1.9c-.5.5.5.9.8.5l1.1-1.9c.5-.5-.5-1-.8-.5zM16.9 20.7c-.5 0-.8.2-.9.5-.3.3-.5.8-.5 1.1 0 .5 0 .8.3 1.1.3.3.6.5 1.1.5s.8-.2 1.1-.5c.2-.3.3-.6.3-1.1 0-.5-.2-.8-.5-1.1-.1-.3-.4-.5-.9-.5zm.5 2c-.2.2-.3.2-.3.2-.5 0-.8-.3-.8-.8 0-.3 0-.5.2-.6.2-.2.3-.2.5-.2s.3 0 .5.2.2.5.2.6c-.2.3-.2.5-.3.6zM3.9 7.7L5 10.2c.2.6 1.1.2.8-.5C5.5 9 5 8 4.7 7.3c-.1-.7-1.1-.2-.8.4zM12.9 8.8c-.2.6-.5 1.3-.6 1.9-.3.6.8.9.9.3.2-.6.5-1.3.6-1.9.3-.6-.8-.9-.9-.3z"/></g></svg><svg viewBox="0 0 24 24" id="ca-pool" xmlns="http://www.w3.org/2000/svg"><g data-name="Livello 18"><path fill="none" d="M0 0h24v24H0V0z"/><path d="M10 8l-3.25 3.25c.31.12.56.27.77.39.37.23.59.36 1.15.36s.78-.13 1.15-.36c.46-.27 1.08-.64 2.19-.64s1.73.37 2.18.64c.37.22.6.36 1.15.36.55 0 .78-.13 1.15-.36.12-.07.26-.15.41-.23L10.48 5C8.93 3.45 7.5 2.99 5 3v2.5c1.82-.01 2.89.39 4 1.5l1 1zm12 8.5h-.02.02zm-16.65-1c.55 0 .78.14 1.15.36.45.27 1.07.64 2.18.64s1.73-.37 2.18-.64c.37-.23.59-.36 1.15-.36.55 0 .78.14 1.15.36.45.27 1.07.64 2.18.64s1.73-.37 2.18-.64c.37-.23.59-.36 1.15-.36.55 0 .78.14 1.15.36.45.27 1.06.63 2.16.64v-2c-.55 0-.78-.14-1.15-.36-.45-.27-1.07-.64-2.18-.64s-1.73.37-2.18.64c-.37.23-.6.36-1.15.36s-.78-.14-1.15-.36c-.45-.27-1.07-.64-2.18-.64s-1.73.37-2.18.64c-.37.23-.59.36-1.15.36-.55 0-.78-.14-1.15-.36-.45-.27-1.07-.64-2.18-.64s-1.73.37-2.18.64c-.37.23-.59.36-1.15.36v2c1.11 0 1.73-.37 2.2-.64.37-.23.6-.36 1.15-.36zM18.67 18c-1.11 0-1.73.37-2.18.64-.37.23-.6.36-1.15.36-.55 0-.78-.14-1.15-.36-.45-.27-1.07-.64-2.18-.64s-1.73.37-2.19.64c-.37.23-.59.36-1.15.36s-.78-.13-1.15-.36c-.45-.27-1.07-.64-2.18-.64s-1.73.37-2.19.64c-.37.23-.59.36-1.15.36v2c1.11 0 1.73-.37 2.19-.64.37-.23.6-.36 1.15-.36.55 0 .78.13 1.15.36.45.27 1.07.64 2.18.64s1.73-.37 2.19-.64c.37-.23.59-.36 1.15-.36.55 0 .78.14 1.15.36.45.27 1.07.64 2.18.64s1.72-.37 2.18-.64c.37-.23.59-.36 1.15-.36.55 0 .78.14 1.15.36.45.27 1.07.64 2.18.64v-2c-.56 0-.78-.13-1.15-.36-.45-.27-1.07-.64-2.18-.64z"/><circle cx="16.5" cy="5.5" r="2.5"/></g></svg><svg viewBox="0 0 31 24" preserveAspectRatio="xMinYMid meet" id="ca-portaporta" xmlns="http://www.w3.org/2000/svg"><g data-name="Livello 86"><path d="M25.2 6.1V4.6l.6-.4v-.5l-.6.3v-.3l1-.6v-.6l-.9.1v-.3l-4.8 1v11.2l2.3-.5v-2.3c.2-.3.4-.6.8-.7.4-.1.8.1.8.4v2.3l.8-.1V8.3l1 .6 4.8-1-3.8-2.2-2 .4zM18.5 17h.6v3.6h-.6zM15.1 17.1h-.6v3.5H17v-.5h-1.9zM2.2 17.5c.4 0 .8.1 1 .5l.4-.5c-.4-.4-.9-.6-1.4-.5-.5 0-.9.1-1.3.5s-.5.8-.5 1.3c-.1.9.8 1.8 1.8 1.8.5 0 1.2-.3 1.4-.6l-.4-.4c-.3.3-.6.5-1 .5s-.7-.1-.9-.4c-.3-.2-.3-.6-.3-.9 0-.4.1-.6.3-.9.3-.3.5-.4.9-.4zM11.4 17.5c.4 0 .8.1 1 .4l.4-.5c-.4-.4-.9-.5-1.4-.5s-1 .1-1.3.5c-.4.4-.5.8-.5 1.3s.1 1 .5 1.3c.4.5.7.6 1.3.6.5 0 1-.3 1.5-.5v-1.5h-1.5v.5h.9v.6c-.3.3-.5.4-.9.4s-.6-.1-.9-.4c-.1-.3-.3-.6-.3-.9 0-.4.1-.6.3-.9.3-.3.5-.4.9-.4zM7.5 19.7l.4.9h.6L7 17h-.7l-1.5 3.6h.6l.4-.9h1.7zm-.8-2l.6 1.4H6.1l.6-1.4zM28.7 18.2c0-.3-.1-.5-.3-.8-.3-.3-.6-.4-1-.4h-1.5v3.6h.4v-1.3h.8l.9 1.3h.8l-1-1.4c.5-.1.9-.5.9-1zm-1.5.5h-.9v-1.2h.9c.5 0 .8.3.8.6 0 .4-.3.6-.8.6zM30.2 17h.6v3.6h-.6zM24.2 20.6L22.7 17h-.6l-1.6 3.6h.6l.4-.9h1.7l.4.9h.6zm-2.4-1.5l.6-1.4.6 1.4h-1.2zM2 21.5s-.2-.1-.3-.1H.2V24H1v-1h.5c.2 0 .3 0 .5-.1.2 0 .3-.2.3-.3.1-.1.1-.3.1-.4 0-.1-.1-.3-.1-.4l-.3-.3zm-.4 1.1c0 .1-.2.1-.3.1H1v-.8h.3c.2 0 .2.1.3.1.1.2.1.1.1.3s0 .3-.1.3zM4.8 21.8c-.1-.2-.3-.3-.4-.3-.1-.1-.4-.1-.5-.1-.2 0-.3 0-.6.1-.1 0-.3.2-.4.3-.2.1-.3.3-.3.4-.1.1-.1.4-.1.5 0 .1.2.4.3.5 0 .1.2.3.3.4.1.2.3.2.4.3.1.1.4.1.5.1s.4 0 .5-.1c.1 0 .3-.2.4-.3.1-.1.1-.3.2-.4.1-.1.1-.4.1-.5 0-.1 0-.4-.1-.5 0-.1-.2-.3-.3-.4zm-.1.9v.3c0 .2-.1.3-.1.3-.2 0-.2.1-.3.1h-.6c-.2 0-.3-.1-.3-.1 0-.2-.1-.2-.1-.3v-.3-.3c0-.2.1-.3.1-.3.2 0 .2-.1.3-.1h.6c.2 0 .3.1.3.1 0 .2.1.2.1.3v.3zM7.9 22.8c.1-.1.1-.4.1-.5 0-.1-.1-.4-.2-.5-.1-.2-.3-.3-.4-.3-.1-.1-.4-.1-.5-.1H5.7V24h.6v-.8h.3l.5.8h1l-.6-.9c.1 0 .3-.2.4-.3zm-.8-.2c-.2.1-.2.1-.3.1h-.5v-.8h.5c.2 0 .2.1.3.1.1.2.1.1.1.3s0 .3-.1.3zM8.1 22.1h.7V24h.7v-1.9h.7v-.7H8.1zM11.4 21.4L10.3 24h.8l.2-.6h1l.1.5h.6l-1-2.5h-.6zm.1 1.6l.2-.6.3.6h-.5zM15.2 21.4l-1 2.6h.6l.3-.6h.9v.5h.8l-1-2.5h-.6zm0 1.6l.3-.6.4.6h-.7zM20 21.5c-.1 0-.3-.1-.4-.1h-1.4V24h.6v-1h.8c.1 0 .3 0 .4-.1.2 0 .3-.2.3-.3.1-.1.1-.3.1-.4 0-.1-.1-.3-.1-.4l-.3-.3zm-.5 1.1c0 .1-.2.1-.3.1h-.4v-.8h.4c.2 0 .2.1.3.1.1.2.1.1.1.3s0 .3-.1.3zM22.6 21.9c-.1-.2-.3-.3-.4-.3-.2-.1-.6-.1-1 0-.2.1-.5.3-.6.6-.1.1-.1.4-.1.5 0 .1 0 .4.1.5 0 .1.2.3.3.4.1.2.3.2.4.3.1.1.4.1.5.1h.4c.1 0 .3-.2.4-.3.2-.1.2-.3.3-.4.1-.1.1-.4.1-.5 0-.1 0-.4-.1-.5 0-.1-.2-.3-.3-.4zm-.1.8v.3c0 .2-.1.3-.1.3-.2 0-.1.1-.3.1h-.6c-.2 0-.3-.1-.3-.1 0-.2-.1-.2-.1-.3v-.3-.3c0-.2.1-.3.1-.3.2 0 .1-.1.3-.1h.6c.2 0 .3.1.3.1 0 .2.1.2.1.3v.3zM25.7 22.8c.1-.1.1-.4.1-.5 0-.1-.2-.4-.3-.5 0-.2-.2-.3-.3-.3-.1-.1-.4-.1-.5-.1h-1.1V24h.6v-.8h.3l.5.8h.9l-.6-.9c.1 0 .3-.2.4-.3zm-.8-.2c-.2.1-.2.1-.3.1h-.5v-.8h.5c.2 0 .2.1.3.1.1.2.1.1.1.3s-.1.3-.1.3zM28.1 21.4h-2.2v.7h.8V24h.7v-1.9h.7zM29.3 21.4L28.1 24h.8l.2-.5h.9l.1.5h.8l-1-2.6h-.6zm0 1.6l.2-.6.3.6h-.5zM25.3 2.1L21.5 0l-4.7 1 3.7 2.1zM19.9 5.4l-3.8-2.2-4.6 1.2 3.7 2.1zM8.4 2.1L4.6 0 0 1l3.7 2.2zM10.1 11.9l.1.3h.3l.5-.2h.6c.1 0 .4-.1.5-.1l.5-.1.4-.2h1.2V7.4l-4.6 1V11l.2.4c.1.1.1.4.3.5z"/><path d="M14.3 11.6l-2 .5-1.2.3-1.2.2-.4-.7V16l1.7-.4v-2.2l1.4-.2v2.2l1.7-.4zM19.9 9.8V5.5l-4.6 1v2.6l.1.3.1.4c.1.1.1.3.1.4v.1h.3l.6-.1h.5l.6-.1.6-.1.8-.2h.5l-1.6.4-1.1.3-1.2.2h-.1l-.3-.6v4.1l1.7-.4v-2.2l1.4-.4v2.2l1.6-.2V9.8z"/><path d="M9.3 3.1v-.6l-.9.1v-.4L3.7 3.4l-.1 13 4.8-1V7.7l1.1.6 4.8-1.1L10.6 5l-2.2.5V4.3l.6-.4v-.4l-.6.2v-.2zM2.5 12c0-.5-.1-1-.4-1.4-.4-.3-.9 0-.9.5V14.8l1.3 1V12zM26.4 8.9v1l.1.7c.1.1.1.4.3.5l.1.3.3-.1.6-.1.2-.2h.3c.3 0 .4-.1.6-.1l.6-.1.6-.1H31V7.9l-4.6 1z"/><path d="M27.9 11.6l-1.2.3h-.1l-.4-.9v3.6l1.9-.4V12l1.3-.3v2.2l1.6-.4v-2.7l-2 .4z"/></g></svg><svg viewBox="0 0 24 24" id="ca-print" xmlns="http://www.w3.org/2000/svg"><g data-name="Livello 121"><path d="M19 8h-1V3H6v5H5c-1.7 0-3 1.3-3 3v6h4v4h12v-4h4v-6c0-1.7-1.3-3-3-3zM8 5h8v3H8V5zm8 12v2H8v-4h8v2zm2-2v-2H6v2H4v-4c0-.6.4-1 1-1h14c.5 0 1 .4 1 1v4h-2z"/><circle cx="18" cy="11.5" r="1"/></g></svg><svg viewBox="0 0 24 24" id="ca-query_builder" xmlns="http://www.w3.org/2000/svg"><path d="M12 2C6.5 2 2 6.5 2 12s4.5 10 10 10 10-4.5 10-10S17.5 2 12 2zm0 18c-4.4 0-8-3.6-8-8s3.6-8 8-8 8 3.6 8 8-3.6 8-8 8zm.5-13H11v6l5.3 3.1.8-1.2-4.5-2.7V7z" data-name="Livello 138"/></svg><svg viewBox="0 0 24 24" id="ca-remove" xmlns="http://www.w3.org/2000/svg"><path d="M19 13H5v-2h14v2z" data-name="Livello 110"/></svg><svg viewBox="0 0 24 24" id="ca-repeat" xmlns="http://www.w3.org/2000/svg"><g data-name="Livello 66"><path fill="none" d="M0 0h24v24H0V0z"/><path d="M7 7h10v3l4-4-4-4v3H5v6h2V7zm10 10H7v-3l-4 4 4 4v-3h12v-6h-2v4z"/></g></svg><svg viewBox="0 0 24 24" id="ca-rss" xmlns="http://www.w3.org/2000/svg"><g data-name="Livello 108"><circle cx="6.2" cy="17.8" r="2.2"/><path d="M4 4.4v2.8c7 0 12.7 5.7 12.7 12.7h2.8C19.6 11.4 12.6 4.4 4 4.4zm0 5.7v2.8c3.9 0 7.1 3.2 7.1 7.1h2.8c0-5.5-4.4-9.9-9.9-9.9z"/></g></svg><svg viewBox="0 0 24 24" id="ca-save_alt" xmlns="http://www.w3.org/2000/svg"><path d="M19 12v7H5v-7H3v7c0 1.1.9 2 2 2h14c1.1 0 2-.9 2-2v-7h-2zm-6 .7l2.6-2.6 1.4 1.4-5 5-5-5 1.4-1.4 2.6 2.6V3h2v9.7z" data-name="Livello 120"/></svg><svg viewBox="0 0 24 24" id="ca-school" xmlns="http://www.w3.org/2000/svg"><g data-name="Livello 73"><path fill="none" d="M0 0h24v24H0V0z"/><path d="M12 3L1 9l4 2.18v6L12 21l7-3.82v-6l2-1.09V17h2V9L12 3zm6.82 6L12 12.72 5.18 9 12 5.28 18.82 9zM17 15.99l-5 2.73-5-2.73v-3.72L12 15l5-2.73v3.72z"/></g></svg><svg viewBox="0 0 24 24" id="ca-search" xmlns="http://www.w3.org/2000/svg"><g data-name="Livello 19"><path fill="none" d="M0 0h24v24H0V0z"/><path d="M15.5 14h-.79l-.28-.27A6.471 6.471 0 0 0 16 9.5 6.5 6.5 0 1 0 9.5 16c1.61 0 3.09-.59 4.23-1.57l.27.28v.79l5 4.99L20.49 19l-4.99-5zm-6 0C7.01 14 5 11.99 5 9.5S7.01 5 9.5 5 14 7.01 14 9.5 11.99 14 9.5 14z"/></g></svg><svg viewBox="0 0 24 24" id="ca-select_all" xmlns="http://www.w3.org/2000/svg"><g data-name="Livello 75"><path fill="none" d="M0 0h24v24H0V0z"/><path d="M3 5h2V3c-1.1 0-2 .9-2 2zm0 8h2v-2H3v2zm4 8h2v-2H7v2zM3 9h2V7H3v2zm10-6h-2v2h2V3zm6 0v2h2c0-1.1-.9-2-2-2zM5 21v-2H3c0 1.1.9 2 2 2zm-2-4h2v-2H3v2zM9 3H7v2h2V3zm2 18h2v-2h-2v2zm8-8h2v-2h-2v2zm0 8c1.1 0 2-.9 2-2h-2v2zm0-12h2V7h-2v2zm0 8h2v-2h-2v2zm-4 4h2v-2h-2v2zm0-16h2V3h-2v2zM7 17h10V7H7v10zm2-8h6v6H9V9z"/></g></svg><svg viewBox="0 0 24 24" id="ca-sentiment_dissatisfied" xmlns="http://www.w3.org/2000/svg"><g data-name="Livello 26"><path fill="none" d="M0 0h24v24H0V0z"/><circle cx="15.5" cy="9.5" r="1.5"/><circle cx="8.5" cy="9.5" r="1.5"/><path d="M12 14c-2.33 0-4.32 1.45-5.12 3.5h1.67c.69-1.19 1.97-2 3.45-2s2.75.81 3.45 2h1.67c-.8-2.05-2.79-3.5-5.12-3.5zm-.01-12C6.47 2 2 6.48 2 12s4.47 10 9.99 10C17.52 22 22 17.52 22 12S17.52 2 11.99 2zM12 20c-4.42 0-8-3.58-8-8s3.58-8 8-8 8 3.58 8 8-3.58 8-8 8z"/></g></svg><svg viewBox="0 0 24 24" id="ca-settings" xmlns="http://www.w3.org/2000/svg"><g data-name="Livello 20"><path fill="none" d="M0 0h24v24H0V0z"/><path d="M19.43 12.98c.04-.32.07-.64.07-.98 0-.34-.03-.66-.07-.98l2.11-1.65c.19-.15.24-.42.12-.64l-2-3.46a.5.5 0 0 0-.61-.22l-2.49 1c-.52-.4-1.08-.73-1.69-.98l-.38-2.65A.488.488 0 0 0 14 2h-4c-.25 0-.46.18-.49.42l-.38 2.65c-.61.25-1.17.59-1.69.98l-2.49-1a.566.566 0 0 0-.18-.03c-.17 0-.34.09-.43.25l-2 3.46c-.13.22-.07.49.12.64l2.11 1.65c-.04.32-.07.65-.07.98 0 .33.03.66.07.98l-2.11 1.65c-.19.15-.24.42-.12.64l2 3.46a.5.5 0 0 0 .61.22l2.49-1c.52.4 1.08.73 1.69.98l.38 2.65c.03.24.24.42.49.42h4c.25 0 .46-.18.49-.42l.38-2.65c.61-.25 1.17-.59 1.69-.98l2.49 1c.06.02.12.03.18.03.17 0 .34-.09.43-.25l2-3.46c.12-.22.07-.49-.12-.64l-2.11-1.65zm-1.98-1.71c.04.31.05.52.05.73 0 .21-.02.43-.05.73l-.14 1.13.89.7 1.08.84-.7 1.21-1.27-.51-1.04-.42-.9.68c-.43.32-.84.56-1.25.73l-1.06.43-.16 1.13-.2 1.35h-1.4l-.19-1.35-.16-1.13-1.06-.43c-.43-.18-.83-.41-1.23-.71l-.91-.7-1.06.43-1.27.51-.7-1.21 1.08-.84.89-.7-.14-1.13c-.03-.31-.05-.54-.05-.74s.02-.43.05-.73l.14-1.13-.89-.7-1.08-.84.7-1.21 1.27.51 1.04.42.9-.68c.43-.32.84-.56 1.25-.73l1.06-.43.16-1.13.2-1.35h1.39l.19 1.35.16 1.13 1.06.43c.43.18.83.41 1.23.71l.91.7 1.06-.43 1.27-.51.7 1.21-1.07.85-.89.7.14 1.13zM12 8c-2.21 0-4 1.79-4 4s1.79 4 4 4 4-1.79 4-4-1.79-4-4-4zm0 6c-1.1 0-2-.9-2-2s.9-2 2-2 2 .9 2 2-.9 2-2 2z"/></g></svg><svg viewBox="0 0 24 24" id="ca-settings_applications" xmlns="http://www.w3.org/2000/svg"><g data-name="Livello 77"><path fill="none" d="M0 0h24v24H0V0z"/><path d="M6.21 13.97l1.2 2.07c.08.13.23.18.37.13l1.49-.6c.31.24.64.44 1.01.59l.22 1.59c.03.14.15.25.3.25h2.4c.15 0 .27-.11.3-.26l.22-1.59c.36-.15.7-.35 1.01-.59l1.49.6c.14.05.29 0 .37-.13l1.2-2.07c.08-.13.04-.29-.07-.39l-1.27-.99c.03-.19.04-.39.04-.58 0-.2-.02-.39-.04-.59l1.27-.99c.11-.09.15-.26.07-.39l-1.2-2.07a.306.306 0 0 0-.37-.13l-1.49.6c-.31-.24-.64-.44-1.01-.59l-.22-1.59a.31.31 0 0 0-.3-.25h-2.4a.31.31 0 0 0-.3.26l-.22 1.59c-.36.15-.71.34-1.01.58l-1.49-.6c-.14-.05-.29 0-.37.13l-1.2 2.07c-.08.13-.04.29.07.39l1.27.99c-.03.2-.05.39-.05.59 0 .2.02.39.04.59l-1.27.99c-.11.1-.14.26-.06.39zM12 10.29c.94 0 1.71.77 1.71 1.71s-.77 1.71-1.71 1.71-1.71-.77-1.71-1.71.77-1.71 1.71-1.71zM19 3H5a2 2 0 0 0-2 2v14a2 2 0 0 0 2 2h14a2 2 0 0 0 2-2V5a2 2 0 0 0-2-2zm0 16H5V5h14v14z"/></g></svg><svg viewBox="0 0 24 24" id="ca-settings_ethernet" xmlns="http://www.w3.org/2000/svg"><path d="M7.8 6.8L6.2 5.5.8 12l5.4 6.5 1.5-1.3L3.4 12l4.4-5.2zM7 13h2v-2H7v2zm10-2h-2v2h2v-2zm-6 2h2v-2h-2v2zm6.8-7.5l-1.5 1.3 4.4 5.2-4.4 5.2 1.5 1.3 5.4-6.5-5.4-6.5z" data-name="Livello 125"/></svg><svg viewBox="0 0 24 24" id="ca-share" xmlns="http://www.w3.org/2000/svg"><path d="M18 16.1c-.8 0-1.4.3-2 .8l-7.1-4.1c.1-.3.1-.6.1-.8s0-.5-.1-.7L16 7.2c.5.5 1.2.8 2 .8 1.7 0 3-1.3 3-3s-1.3-3-3-3-3 1.3-3 3c0 .2 0 .5.1.7L8 9.8C7.5 9.3 6.8 9 6 9c-1.7 0-3 1.3-3 3s1.3 3 3 3c.8 0 1.5-.3 2-.8l7.1 4.2c-.1.2-.1.4-.1.6 0 1.6 1.3 2.9 2.9 2.9s2.9-1.3 2.9-2.9-1.2-2.9-2.8-2.9zM18 4c.5 0 1 .4 1 1s-.5 1-1 1-1-.4-1-1 .5-1 1-1zM6 13c-.6 0-1-.4-1-1s.4-1 1-1 1 .4 1 1-.4 1-1 1zm12 7c-.5 0-1-.5-1-1s.5-1 1-1 1 .5 1 1-.5 1-1 1z" data-name="Livello 116"/></svg><svg viewBox="0 0 30 24" id="ca-sit" xmlns="http://www.w3.org/2000/svg"><g data-name="Livello 140"><path d="M27.5 11.5c0-.3-.2-.5-.5-.6l-2.5-.9c-.2.4-.3.3-.5.8l2.7.9 1.4 11.5-6.4-2.4-.6-6.1c-.3.1-.1.1-.4.1-.2 0-.2.1-.4 0l.6 6-5.5 2-.1-11.6 2-.9-.3-.5-1.9.8-5.2-2.2c-.2-.1-.4-.1-.6 0L3 10.7c-.3.1-.4.3-.5.6L1 23c0 .3.1.5.3.7s.5.2.7.1l6.8-2.2 6 2.2c.2.1.4.1.5 0l6-2.2L28 24h.2c.2 0 .4-.1.5-.2.2-.1.3-.4.3-.6l-1.5-11.7zM8.3 20.7l-6.4 2.1 1.5-11.4 5.8-2-.9 11.3zm6.3 2.1l-5.4-2.1.7-11.3 4.6 2 .1 11.4z"/><path d="M20.1 12.8c.2.5.9.5 1.2 0 0 0 2.7-5.3 3.3-6.5.6-1.2.6-2.6 0-3.9-1.1-2.2-3.7-3-5.8-1.9-2.2 1.1-3 3.8-1.9 5.8s3.2 6.5 3.2 6.5zm.6-10.4c1.2 0 2.1.9 2.1 2.1s-.9 2.1-2.1 2.1-2.1-.9-2.1-2.1.9-2.1 2.1-2.1z"/></g></svg><svg viewBox="0 0 24 24" id="ca-speaker" xmlns="http://www.w3.org/2000/svg"><g data-name="Livello 139"><path d="M21.6 10.8H19c-.2 0-.3-.1-.3-.3s.1-.3.3-.3h2.6c.2 0 .3.1.3.3s-.1.3-.3.3zM17.9 6.7c-.1 0-.2-.1-.3-.2-.1-.2 0-.3.1-.4L20 4.8c.2-.1.3 0 .4.1.1.2 0 .3-.1.4l-2.2 1.3c-.1.1-.1.1-.2.1zM20.1 16.3h-.2L17.7 15c-.2-.1-.2-.3-.1-.4.1-.2.3-.2.4-.1l2.2 1.3c.2.1.2.3.1.4 0 0-.1.1-.2.1zM15.3 2.9c-.1-.1-.2 0-.3 0L8.7 7.3H5.3c-1.8 0-3.2 1.4-3.2 3.2s1.4 3.2 3.2 3.2h3.4l6.3 4.4c.1 0 .1.1.2.1h.1c.1-.1.2-.2.2-.3V3.2c0-.2-.1-.3-.2-.3z"/><path d="M8.8 14.3H5.1l2.7 6c.3.6.9 1 1.6 1 .2 0 .5 0 .7-.1.9-.4 1.3-1.4.9-2.3l-2.2-4.6z"/></g></svg><svg viewBox="0 0 24 24" id="ca-speaker_notes" xmlns="http://www.w3.org/2000/svg"><path d="M20 2H4c-1.1 0-2 .9-2 2v18l4-4h14c1.1 0 2-.9 2-2V4c0-1.1-.9-2-2-2zm0 14H5.2l-.6.6-.6.6V4h16v12zM6 12h2v2H6v-2zm0-3h2v2H6V9zm0-3h2v2H6V6zm4 6h5v2h-5v-2zm0-3h8v2h-8V9zm0-3h8v2h-8V6z" data-name="Livello 93"/></svg><svg viewBox="0 0 24 24" id="ca-star" xmlns="http://www.w3.org/2000/svg"><path d="M12 17.3l6.2 3.7-1.6-7L22 9.2l-7.2-.6L12 2 9.2 8.6 2 9.2 7.5 14l-1.6 7 6.1-3.7z" data-name="Livello 126"/></svg><svg viewBox="0 0 24 24" id="ca-star_border" xmlns="http://www.w3.org/2000/svg"><path d="M22 9.2l-7.2-.6L12 2 9.2 8.6 2 9.2 7.5 14l-1.6 7 6.2-3.7 6.2 3.7-1.6-7L22 9.2zm-10 6.2l-3.8 2.3 1-4.3-3.3-2.9 4.4-.4 1.7-4 1.7 4 4.4.4-3.3 2.9 1 4.3-3.8-2.3z" data-name="Livello 127"/></svg><svg viewBox="0 0 24 24" id="ca-suape" xmlns="http://www.w3.org/2000/svg"><g data-name="Livello 87"><path class="epst0" d="M2.2 14h.2l7.2-2.2c.3 0 .4-.3.3-.6-.1-.3-.4-.5-.7-.4L2.1 13c-.4.1-.5.3-.4.6.1.3.3.4.5.4zM9.2 14.1l-7.1 1.5c-.3 0-.4.3-.4.6s.2.4.5.4h.1l7.1-1.5c.3 0 .4-.3.4-.6s-.3-.4-.6-.4zM9.3 17.4l-7.1.8c-.3.1-.5.3-.5.6.1.2.3.4.5.4l7.3-.8c.2-.1.4-.3.4-.6-.1-.2-.3-.5-.6-.4zM9.3 20.9H2.2c-.3 0-.5.2-.5.5s.2.5.5.5h7.1c.4 0 .5-.2.5-.5s-.2-.5-.5-.5z"/><path class="epst0" d="M23.7 2.4L16.3 0h-.4L9 3.1c-.2.1-.3.3-.3.5v3.7L.3 11.1c-.2 0-.3.2-.3.4v12c0 .3.2.5.5.5h23c.3 0 .5-.2.5-.5V2.9c0-.2-.2-.4-.3-.5zM1 11.8l10.4-4.7V23H1V11.8zM15.9 23h-3.5V7.1l5 1.7V23h-1.5zm7.1 0h-4.6V8.4c0-.1-.1-.3-.3-.4l-6-2.1h-.4l-2 .9V3.9L16.2 1 23 3.3V23z"/><path class="epst0" d="M20.5 6.8c.3 0 .5-.1.5-.5V4.4c0-.3-.2-.5-.5-.5s-.5.2-.5.5v1.9c0 .3.2.5.5.5zM20.5 10.4c.3 0 .5-.2.5-.6V7.9c0-.3-.2-.5-.5-.5s-.5.2-.5.5v2c0 .3.2.5.5.5zM20.5 13.9c.3 0 .5-.2.5-.5v-2c0-.3-.2-.5-.5-.5s-.5.2-.5.5v2c0 .3.2.5.5.5zM20.5 17.4c.3 0 .5-.2.5-.5v-2c0-.3-.2-.5-.5-.5s-.5.2-.5.5v2c0 .3.2.5.5.5zM20.5 20.9c.3 0 .5-.2.5-.5v-2c0-.3-.2-.5-.5-.5s-.5.2-.5.5v2c0 .3.2.5.5.5z"/></g></svg><svg viewBox="0 0 24 24" id="ca-subject" xmlns="http://www.w3.org/2000/svg"><path d="M14 17H4v2h10v-2zm6-8H4v2h16V9zM4 15h16v-2H4v2zM4 5v2h16V5H4z" data-name="Livello 109"/></svg><svg viewBox="0 0 24 24" id="ca-supervised_user_circle" xmlns="http://www.w3.org/2000/svg"><g data-name="Livello 77"><path fill="none" d="M0 0h24v24H0V0z"/><path d="M12.5 10c0-1.65-1.35-3-3-3s-3 1.35-3 3 1.35 3 3 3 3-1.35 3-3zm-3 1c-.55 0-1-.45-1-1s.45-1 1-1 1 .45 1 1-.45 1-1 1zm6.5 2c1.11 0 2-.89 2-2 0-1.11-.89-2-2-2-1.11 0-2.01.89-2 2 0 1.11.89 2 2 2zM11.99 2.01c-5.52 0-10 4.48-10 10s4.48 10 10 10 10-4.48 10-10-4.48-10-10-10zM5.84 17.12c.68-.54 2.27-1.11 3.66-1.11.07 0 .15.01.23.01.24-.64.67-1.29 1.3-1.86A9.05 9.05 0 0 0 9.5 14c-1.3 0-3.39.45-4.73 1.43-.5-1.04-.78-2.2-.78-3.43 0-4.41 3.59-8 8-8s8 3.59 8 8c0 1.2-.27 2.34-.75 3.37-1-.59-2.36-.87-3.24-.87-1.52 0-4.5.81-4.5 2.7v2.78a7.935 7.935 0 0 1-5.66-2.86z"/></g></svg><svg viewBox="0 0 24 24" id="ca-tab" xmlns="http://www.w3.org/2000/svg"><g data-name="Livello 56"><path fill="none" d="M0 0h24v24H0V0zm0 0h24v24H0V0z"/><path d="M21 3H3c-1.1 0-2 .9-2 2v14c0 1.1.9 2 2 2h18c1.1 0 2-.9 2-2V5c0-1.1-.9-2-2-2zm0 16H3V5h10v4h8v10z"/></g></svg><svg viewBox="0 0 24 24" id="ca-telegram" xmlns="http://www.w3.org/2000/svg"><path d="M20.99 5.564l-3.055 14.063c-.072.332-.48.483-.766.283l-4.17-2.897a.714.714 0 0 0-.84.022L9.845 18.84c-.268.21-.672.093-.775-.223l-1.605-4.942-4.148-1.482a.461.461 0 0 1-.005-.875l17.022-6.285c.36-.133.733.17.654.532zm-4.072 2.543l-8.106 4.778a.766.766 0 0 0-.356.88l.876 2.947c.062.208.379.187.41-.029l.227-1.616a1.31 1.31 0 0 1 .43-.794l6.69-5.952c.125-.111-.025-.3-.17-.214z" data-name="Livello 71"/></svg><svg viewBox="0 0 24 24" id="ca-today" xmlns="http://www.w3.org/2000/svg"><g data-name="Livello 21"><path fill="none" d="M0 0h24v24H0V0z"/><path d="M19 3h-1V1h-2v2H8V1H6v2H5a2 2 0 0 0-2 2v14a2 2 0 0 0 2 2h14c1.1 0 2-.9 2-2V5c0-1.1-.9-2-2-2zm0 16H5V9h14v10zm0-12H5V5h14v2zM7 11h5v5H7z"/></g></svg><svg viewBox="0 0 24 24" id="ca-touch_app" xmlns="http://www.w3.org/2000/svg"><g data-name="Livello 29"><defs><path id="eva" d="M0 0h24v24H0z"/></defs><path d="M18.12 14.44l-3.24-1.62c1.29-1 2.12-2.56 2.12-4.32C17 5.47 14.53 3 11.5 3S6 5.47 6 8.5c0 2.13 1.22 3.98 3 4.89v3.26l-1.84-.39-.1-.02c-.1-.02-.2-.03-.32-.03-.53 0-1.03.21-1.41.59l-1.4 1.42 5.09 5.09c.43.44 1.03.69 1.65.69h6.3c.98 0 1.81-.7 1.97-1.67l.8-4.71c.22-1.3-.43-2.58-1.62-3.18zm-.35 2.85l-.8 4.71h-6.3c-.09 0-.17-.04-.24-.1l-3.68-3.68 4.25.89V8.5c0-.28.22-.5.5-.5s.5.22.5.5v6h1.76l3.46 1.73c.4.2.62.63.55 1.06zM8 8.5C8 6.57 9.57 5 11.5 5S15 6.57 15 8.5c0 .95-.38 1.81-1 2.44V8.5a2.5 2.5 0 0 0-5 0v2.44c-.62-.63-1-1.49-1-2.44z"/></g></svg><svg viewBox="0 0 24 24" id="ca-traffic" xmlns="http://www.w3.org/2000/svg"><path d="M20 10h-3V8.9c1.7-.4 3-2 3-3.9h-3V4c0-.5-.5-1-1-1H8c-.6 0-1 .4-1 1v1H4c0 1.9 1.3 3.4 3 3.9V10H4c0 1.9 1.3 3.4 3 3.9V15H4c0 1.9 1.3 3.4 3 3.9V20c0 .5.4 1 1 1h8c.5 0 1-.5 1-1v-1.1c1.7-.5 3-2 3-3.9h-3v-1.1c1.7-.5 3-2 3-3.9zm-5 9H9V5h6v14zm-3-1c.8 0 1.5-.7 1.5-1.5S12.8 15 12 15s-1.5.7-1.5 1.5.7 1.5 1.5 1.5zm0-4.5c.8 0 1.5-.7 1.5-1.5s-.7-1.5-1.5-1.5-1.5.7-1.5 1.5.7 1.5 1.5 1.5zM12 9c.8 0 1.5-.7 1.5-1.5S12.8 6 12 6s-1.5.7-1.5 1.5S11.2 9 12 9z" data-name="Livello 102"/></svg><svg viewBox="0 0 24 24" id="ca-transfer_within_a_station" xmlns="http://www.w3.org/2000/svg"><g data-name="Livello 64"><path fill="none" d="M0 0h24v24H0V0z"/><path d="M16.49 15.5v-1.75L14 16.25l2.49 2.5V17H22v-1.5h-5.51zm3.02 4.25H14v1.5h5.51V23L22 20.5 19.51 18v1.75zM9.5 5.5c1.1 0 2-.9 2-2s-.9-2-2-2-2 .9-2 2 .9 2 2 2zM5.75 8.9L3 23h2.1l1.75-8L9 17v6h2v-7.55L8.95 13.4l.6-3C10.85 12 12.8 13 15 13v-2c-1.85 0-3.45-1-4.35-2.45l-.95-1.6C9.35 6.35 8.7 6 8 6c-.25 0-.5.05-.75.15L2 8.3V13h2V9.65l1.75-.75"/></g></svg><svg viewBox="0 0 24 24" id="ca-translate" xmlns="http://www.w3.org/2000/svg"><g data-name="Livello 30"><path fill="none" d="M0 0h24v24H0V0z"/><path d="M12.87 15.07l-2.54-2.51.03-.03A17.52 17.52 0 0 0 14.07 6H17V4h-7V2H8v2H1v1.99h11.17C11.5 7.92 10.44 9.75 9 11.35 8.07 10.32 7.3 9.19 6.69 8h-2c.73 1.63 1.73 3.17 2.98 4.56l-5.09 5.02L4 19l5-5 3.11 3.11.76-2.04zM18.5 10h-2L12 22h2l1.12-3h4.75L21 22h2l-4.5-12zm-2.62 7l1.62-4.33L19.12 17h-3.24z"/></g></svg><svg viewBox="0 0 24 24" id="ca-twitter" xmlns="http://www.w3.org/2000/svg"><path d="M19.137 8.656c.023.094.035.246.035.457 0 1.688-.41 3.317-1.23 4.887-.844 1.664-2.028 2.988-3.551 3.973-1.664 1.101-3.575 1.652-5.73 1.652-2.063 0-3.95-.55-5.661-1.652.258.023.55.035.879.035 1.71 0 3.246-.528 4.605-1.582-.82 0-1.54-.24-2.162-.72a3.671 3.671 0 0 1-1.283-1.811c.234.023.457.035.668.035.328 0 .656-.035.984-.106a3.72 3.72 0 0 1-2.109-1.3 3.54 3.54 0 0 1-.844-2.32v-.071a3.475 3.475 0 0 0 1.653.492 4.095 4.095 0 0 1-1.196-1.336 3.546 3.546 0 0 1-.457-1.775c0-.645.176-1.26.528-1.846A10.18 10.18 0 0 0 7.623 8.41a10.219 10.219 0 0 0 4.236 1.125 5.124 5.124 0 0 1-.07-.844c0-.656.164-1.271.492-1.845a3.613 3.613 0 0 1 1.336-1.354A3.565 3.565 0 0 1 15.445 5c.54 0 1.037.105 1.494.316.457.211.862.493 1.213.844a7.51 7.51 0 0 0 2.356-.879c-.281.867-.82 1.547-1.617 2.04A7.93 7.93 0 0 0 21 6.722a8.114 8.114 0 0 1-1.863 1.933z" data-name="Livello 72"/></svg><svg viewBox="0 0 24 24" id="ca-ufficicitta" xmlns="http://www.w3.org/2000/svg"><path d="M15.9 5.1V0C7.4.9 4.9-.1 2 2.6.8 3.9.1 5.3 0 7.1V24h27.3V7.1c-.3-.2-5-1.6-11.4-2zM2.8 3.4c2.4-2.4 4.7-1.5 12-2.1v3.9c-4.6-.2-9.1.4-13.7 1.5.3-1.2.8-2.4 1.7-3.3zm5.8 19.5H7.3v-3.2h1.4c-.1 0-.1 3.2-.1 3.2zm5.7 0H13v-3.2h1.4v3.2zm5.7 0h-1.4v-3.2H20v3.2zm6.2 0h-5v-4.3h-3.6v4.3h-2v-4.3H12v4.3h-2v-4.3H6.1v4.3h-5v-6.4c8.3-2 16.6-2.2 25 0v6.4zM7.3 14.1v-3.4h1.4v3.2c-.5.2-1 .2-1.4.2zm5.7-.7v-3.2h1.4v3.2H13zm5.7.6v-3.2H20v3.4c-.4-.1-.9-.1-1.3-.2zm7.5 1.4c-1.7-.5-3.4-.8-5-1V9.7h-3.6V14c-.7 0-1.4-.1-2-.1V9.1H12v4.7c-.7 0-1.4.1-2 .1V9.6H6.1v4.7c-1.6.3-3.3.7-5 1.1V8c8.4-2.3 16.7-2.3 25 0v7.4z" data-name="Livello 88"/></svg><svg viewBox="0 0 24 24" id="ca-verified_user" xmlns="http://www.w3.org/2000/svg"><g data-name="Livello 76"><path fill="none" d="M0 0h24v24H0V0z"/><path d="M12 1L3 5v6c0 5.55 3.84 10.74 9 12 5.16-1.26 9-6.45 9-12V5l-9-4zm7 10c0 4.52-2.98 8.69-7 9.93-4.02-1.24-7-5.41-7-9.93V6.3l7-3.11 7 3.11V11zm-11.59.59L6 13l4 4 8-8-1.41-1.42L10 14.17z"/></g></svg><svg viewBox="0 0 24 24" id="ca-vertical_split" xmlns="http://www.w3.org/2000/svg"><g data-name="Livello 63"><path fill="none" d="M0 0h24v24H0V0z"/><path d="M3 13h8v2H3zm0 4h8v2H3zm0-8h8v2H3zm0-4h8v2H3zm16 2v10h-4V7h4m2-2h-8v14h8V5z"/></g></svg><svg viewBox="0 0 24 24" id="ca-warning" xmlns="http://www.w3.org/2000/svg"><path d="M1 21h22L12 2 1 21zm12-3h-2v-2h2v2zm0-4h-2v-4h2v4z" data-name="Livello 24"/></svg><svg viewBox="0 0 24 24" id="ca-waves" xmlns="http://www.w3.org/2000/svg"><path d="M17 17c-1.4 0-2.2.4-2.9.8-.6.3-1.2.6-2.1.6-.9 0-1.4-.3-2.1-.6-.7-.4-1.5-.8-2.9-.8s-2.2.4-2.9.8c-.7.3-1.2.6-2 .6v2c1.4 0 2.2-.4 3-.8.7-.3 1.2-.6 2-.6s1.4.3 2.1.6c.8.4 1.6.8 2.9.8s2.2-.4 2.9-.8c.6-.3 1.2-.6 2.1-.6.9 0 1.4.3 2 .6.8.4 1.6.8 3 .8v-2c-.9 0-1.4-.3-2-.6-.9-.4-1.7-.8-3.1-.8zm0-4.5c-1.4 0-2.2.4-2.9.8-.6.3-1.2.6-2.1.6-.9 0-1.4-.3-2.1-.6-.7-.3-1.5-.8-2.9-.8s-2.2.5-2.9.8c-.7.3-1.2.6-2 .6v1.9c1.4 0 2.2-.4 3-.8.7-.4 1.2-.6 2-.6s1.4.3 2.1.6c.8.4 1.6.8 2.9.8s2.2-.4 2.9-.8c.6-.4 1.2-.6 2.1-.6s1.4.3 2 .6c.8.4 1.6.8 3 .8v-1.9c-.9 0-1.4-.3-2-.6-.9-.3-1.7-.8-3.1-.8zm3-8c-.8-.4-1.6-.8-3-.8s-2.2.4-2.9.8c-.6.3-1.2.6-2.1.6-.9 0-1.4-.3-2.1-.6-.7-.4-1.5-.8-2.9-.8s-2.2.4-2.9.8c-.7.3-1.2.6-2.1.6V7c1.4 0 2.2-.4 3-.8.7-.3 1.2-.6 2-.6s1.4.3 2.1.6c.7.4 1.5.8 2.9.8s2.2-.4 2.9-.8c.6-.3 1.2-.6 2.1-.6.9 0 1.4.3 2 .6.8.4 1.6.8 3 .8V5c-.9 0-1.4-.2-2-.5zm-3 3.6c-1.4 0-2.2.4-2.9.8-.6.4-1.1.6-2.1.6s-1.4-.3-2.1-.6c-.7-.4-1.5-.8-2.9-.8s-2.2.4-2.9.8c-.7.3-1.2.6-2.1.6v1.9c1.4 0 2.2-.4 3-.8.6-.3 1.1-.6 2-.6s1.4.3 2.1.6c.8.4 1.6.8 2.9.8s2.2-.4 2.9-.8c.6-.3 1.2-.6 2.1-.6.9 0 1.4.3 2 .6.8.4 1.6.8 3 .8v-2c-.9 0-1.4-.3-2-.6-.8-.3-1.6-.7-3-.7z" data-name="Livello 92"/></svg><svg viewBox="0 0 24 24" id="ca-wc" xmlns="http://www.w3.org/2000/svg"><path d="M5.5 22v-7.5H4V9c0-1.1.9-2 2-2h3c1.1 0 2 .9 2 2v5.5H9.5V22h-4zM18 22v-6h3l-2.5-7.6c-.3-.8-1-1.4-1.9-1.4h-.1c-.9 0-1.6.6-1.9 1.4L12 16h3v6h3zM7.5 6c1.1 0 2-.9 2-2s-.9-2-2-2-2 .9-2 2 .9 2 2 2zm9 0c1.1 0 2-.9 2-2s-.9-2-2-2-2 .9-2 2 .9 2 2 2z" data-name="Livello 97"/></svg><svg viewBox="0 0 24 24" id="ca-whatsapp" xmlns="http://www.w3.org/2000/svg"><path d="M18.327 5.622A8.984 8.984 0 0 0 3 11.965a8.883 8.883 0 0 0 1.38 4.778l.202.336-.892 3.365 3.365-.891.336.185a8.9 8.9 0 0 0 4.56 1.261 8.984 8.984 0 0 0 6.376-15.377zm-1.396 9.809a2.793 2.793 0 0 1-1.817 1.278 3.752 3.752 0 0 1-1.683-.1c-.387-.135-.891-.304-1.53-.573a12.046 12.046 0 0 1-4.678-4.071 5.266 5.266 0 0 1-1.11-2.793c-.01-.85.33-1.665.942-2.255a.993.993 0 0 1 .723-.336h.455c.168 0 .386 0 .605.454.219.454.757 1.868.825 2.002a.505.505 0 0 1 0 .471c-.07.163-.16.316-.27.455a6.374 6.374 0 0 1-.403.47c-.118.118-.286.287-.118.556a7.958 7.958 0 0 0 1.497 1.867 7.251 7.251 0 0 0 2.17 1.346c.27.135.421.101.573 0 .151-.1.673-.79.858-1.06.185-.269.353-.235.605-.134.253.1 1.582.74 1.851.875.27.134.438.202.505.32.095.406.078.83-.05 1.228h.05z" data-name="Livello 73"/></svg><svg viewBox="0 0 24 24" id="ca-work_outline" xmlns="http://www.w3.org/2000/svg"><g data-name="Livello 62"><path fill="none" d="M0 0h24v24H0V0z"/><path d="M14 6V4h-4v2h4zM4 8v11h16V8H4zm16-2c1.11 0 2 .89 2 2v11c0 1.11-.89 2-2 2H4c-1.11 0-2-.89-2-2l.01-11c0-1.11.88-2 1.99-2h4V4c0-1.11.89-2 2-2h4c1.11 0 2 .89 2 2v2h4z"/></g></svg><svg viewBox="0 0 24 24" id="ca-youtube" xmlns="http://www.w3.org/2000/svg"><path d="M22.516 6.514c-.252-.984-.99-1.755-1.936-2.023C18.864 4 12 4 12 4s-6.864 0-8.58.48c-.949.27-1.687 1.045-1.935 2.034A30.508 30.508 0 0 0 1 12a30.51 30.51 0 0 0 .462 5.486c.255.99 1.003 1.762 1.958 2.023C5.136 20 12 20 12 20s6.863 0 8.579-.48c.946-.267 1.684-1.038 1.936-2.023.327-1.812.489-3.653.484-5.497a30.508 30.508 0 0 0-.484-5.486zM9.8 15.43V8.57L15.51 12 9.8 15.429z" data-name="Livello 74"/></svg><svg xmlns="http://www.w3.org/2000/svg" viewBox="0 0 24 24" id="ca-instagram"><g id="Livello_141" data-name="Livello 141"><path class="st0" d="M12,3.8c2.7,0,3,0,4.1,0.1c1,0,1.5,0.2,1.9,0.3c0.5,0.2,0.8,0.4,1.2,0.8c0.4,0.4,0.6,0.7,0.8,1.2 C20,6.4,20.1,7,20.2,7.9c0,1.1,0.1,1.4,0.1,4.1s0,3-0.1,4.1c0,1-0.2,1.5-0.3,1.9c-0.2,0.5-0.4,0.8-0.8,1.2 c-0.4,0.4-0.7,0.6-1.2,0.8c-0.4,0.1-0.9,0.3-1.9,0.3c-1.1,0-1.4,0.1-4.1,0.1s-3,0-4.1-0.1c-1,0-1.5-0.2-1.9-0.3 c-0.5-0.2-0.8-0.4-1.2-0.8c-0.4-0.4-0.6-0.7-0.8-1.2C4,17.6,3.9,17,3.8,16.1c0-1.1-0.1-1.4-0.1-4.1s0-3,0.1-4.1 c0-1,0.2-1.5,0.3-1.9c0.2-0.5,0.4-0.8,0.8-1.2c0.4-0.4,0.7-0.6,1.2-0.8C6.4,4,7,3.9,7.9,3.8C9,3.8,9.3,3.8,12,3.8 M12,2 C9.3,2,8.9,2,7.9,2c-1.1,0-1.8,0.2-2.4,0.5C4.8,2.8,4.2,3.1,3.7,3.7S2.8,4.8,2.5,5.4C2.3,6.1,2.1,6.8,2,7.9C2,8.9,2,9.3,2,12 s0,3.1,0.1,4.1c0,1.1,0.2,1.8,0.5,2.4c0.3,0.7,0.6,1.2,1.2,1.8s1.1,0.9,1.8,1.2c0.6,0.2,1.4,0.4,2.4,0.5C8.9,22,9.3,22,12,22 s3.1,0,4.1-0.1c1.1,0,1.8-0.2,2.4-0.5c0.7-0.3,1.2-0.6,1.8-1.2s0.9-1.1,1.2-1.8c0.2-0.6,0.4-1.4,0.5-2.4c0-1.1,0.1-1.4,0.1-4.1 s0-3.1-0.1-4.1c0-1.1-0.2-1.8-0.5-2.4c-0.3-0.7-0.6-1.2-1.2-1.8s-1.1-0.9-1.8-1.2c-0.6-0.2-1.4-0.4-2.4-0.5C15.1,2,14.7,2,12,2z M12,6.9c-2.8,0-5.1,2.3-5.1,5.1s2.3,5.1,5.1,5.1s5.1-2.3,5.1-5.1S14.8,6.9,12,6.9z M12,15.3c-1.8,0-3.3-1.5-3.3-3.3 s1.5-3.3,3.3-3.3s3.3,1.5,3.3,3.3S13.8,15.3,12,15.3z M18.6,6.6c0,0.7-0.5,1.2-1.2,1.2s-1.2-0.5-1.2-1.2s0.5-1.2,1.2-1.2 S18.6,6,18.6,6.6z"/></g></svg><svg xmlns="http://www.w3.org/2000/svg" viewBox="0 0 24 24" id="ca-camera_alt"><g id="Livello_142" data-name="Livello 142"><path d="M0 0h24v24H0V0z" fill="none"/><path d="M20 4h-3.17L15 2H9L7.17 4H4c-1.1 0-2 .9-2 2v12c0 1.1.9 2 2 2h16c1.1 0 2-.9 2-2V6c0-1.1-.9-2-2-2zm0 14H4V6h4.05l1.83-2h4.24l1.83 2H20v12zM12 7c-2.76 0-5 2.24-5 5s2.24 5 5 5 5-2.24 5-5-2.24-5-5-5zm0 8c-1.65 0-3-1.35-3-3s1.35-3 3-3 3 1.35 3 3-1.35 3-3 3z"/></g></svg><svg xmlns="http://www.w3.org/2000/svg" viewBox="0 0 24 24" id="ca-video"><g id="Livello_143" data-name="Livello 143"><polygon points="9.5,7.5 9.5,16.5 16.5,12"/><path d="M20,4H4C2.9,4,2,4.9,2,6v12c0,1.1,0.9,2,2,2h16c1.1,0,2-0.9,2-2V6C22,4.9,21.1,4,20,4z M20,18.01H4V5.99h16V18.01z"/></g></svg><svg xmlns="http://www.w3.org/2000/svg" viewBox="0 0 24 24" id="ca-focus"><g id="Livello_144" data-name="Livello 144"><path d="M14,12l-2,2l-2-2l2-2L14,12z M12,6l2.12,2.12l2.5-2.5L12,1L7.38,5.62l2.5,2.5L12,6z M6,12l2.12-2.12l-2.5-2.5L1,12 l4.62,4.62l2.5-2.5L6,12z M18,12l-2.12,2.12l2.5,2.5L23,12l-4.62-4.62l-2.5,2.5L18,12z M12,18l-2.12-2.12l-2.5,2.5L12,23l4.62-4.62 l-2.5-2.5L12,18z"/></g></svg><svg xmlns="http://www.w3.org/2000/svg" viewBox="0 0 24 24" id="ca-thumb_up"><g id="Livello_145" data-name="Livello 145"><path d="M9 21h9c.83 0 1.54-.5 1.84-1.22l3.02-7.05c.09-.23.14-.47.14-.73v-2c0-1.1-.9-2-2-2h-6.31l.95-4.57.03-.32c0-.41-.17-.79-.44-1.06L14.17 1 7.58 7.59C7.22 7.95 7 8.45 7 9v10c0 1.1.9 2 2 2zM9 9l4.34-4.34L12 10h9v2l-3 7H9V9zM1 9h4v12H1z"/></g></svg><svg xmlns="http://www.w3.org/2000/svg" viewBox="0 0 24 24" id="ca-system_update"><g id="Livello_146" data-name="Livello 146"><path d="M17 1.01L7 1c-1.1 0-2 .9-2 2v18c0 1.1.9 2 2 2h10c1.1 0 2-.9 2-2V3c0-1.1-.9-1.99-2-1.99zM17 19H7V5h10v14zm-1-6h-3V8h-2v5H8l4 4 4-4z"/></g></svg><svg xmlns="http://www.w3.org/2000/svg" viewBox="0 0 24 24" id="ca-search-slim"><g id="Livello_147" data-name="Livello 147"><path d="M24,22.34,16.16,14.5a9.07,9.07,0,1,0-1.66,1.66L22.34,24ZM2.34,9A6.68,6.68,0,1,1,9,15.69,6.69,6.69,0,0,1,2.34,9Z"/></g></svg><svg xmlns="http://www.w3.org/2000/svg" viewBox="0 0 24 24" id="ca-payment"><g id="Livello_148" data-name="Livello 148"><path d="M20 4H4c-1.11 0-1.99.89-1.99 2L2 18c0 1.11.89 2 2 2h16c1.11 0 2-.89 2-2V6c0-1.11-.89-2-2-2zm0 14H4v-6h16v6zm0-10H4V6h16v2z"/></g></svg><svg xmlns="http://www.w3.org/2000/svg" viewBox="0 0 24 24" id="ca-text_snippet"><g id="Livello_149" data-name="Livello 149"><path d="M15.2,5l0,3.8l3.8,0V19H5V5H15.2L15.2,5 M15.2,3H5C3.9,3,3,3.9,3,5v14c0,1.1,0.9,2,2,2h14c1.1,0,2-0.9,2-2V8.8 c0-0.5-0.2-1-0.6-1.4l-3.8-3.8C16.2,3.2,15.7,3,15.2,3L15.2,3z M7,15h10v2H7V15z M7,11h10v2H7V11z M7,7h5v2H7V7z"/></g></svg><svg xmlns="http://www.w3.org/2000/svg" viewBox="0 0 24 24" id="ca-edit_note"><g id="Livello_150" data-name="Livello 150"><path d="M3,10h11v2H3V10z M3,8h11V6H3V8z M3,16h7v-2H3V16z M18.01,12.87l0.71-0.71c0.39-0.39,1.02-0.39,1.41,0l0.71,0.71 c0.39,0.39,0.39,1.02,0,1.41l-0.71,0.71L18.01,12.87z M17.3,13.58l-5.3,5.3V21h2.12l5.3-5.3L17.3,13.58z"/></g></svg><svg xmlns="http://www.w3.org/2000/svg" viewBox="0 0 24 24" id="ca-cancel"><g id="Livello_151" data-name="Livello 151"><path d="M12 2C6.47 2 2 6.47 2 12s4.47 10 10 10 10-4.47 10-10S17.53 2 12 2zm0 18c-4.41 0-8-3.59-8-8s3.59-8 8-8 8 3.59 8 8-3.59 8-8 8zm3.59-13L12 10.59 8.41 7 7 8.41 10.59 12 7 15.59 8.41 17 12 13.41 15.59 17 17 15.59 13.41 12 17 8.41z"/></g></svg><svg xmlns="http://www.w3.org/2000/svg" viewBox="0 0 24 24" id="ca-file_download"><g id="Livello_152" data-name="Livello 152"><path d="M18,15v3H6v-3H4v3c0,1.1,0.9,2,2,2h12c1.1,0,2-0.9,2-2v-3H18z M17,11l-1.41-1.41L13,12.17V4h-2v8.17L8.41,9.59L7,11l5,5 L17,11z"/></g></svg><svg xmlns="http://www.w3.org/2000/svg" viewBox="0 0 24 24" id="ca-replay"><g id="Livello_153" data-name="Livello 153"><path d="M12,5V1L7,6l5,5V7c3.31,0,6,2.69,6,6s-2.69,6-6,6s-6-2.69-6-6H4c0,4.42,3.58,8,8,8s8-3.58,8-8S16.42,5,12,5z"/></g></svg><svg xmlns="http://www.w3.org/2000/svg" viewBox="0 0 24 24" id="ca-receipt_long"><g id="Livello_154" data-name="Livello 154"><path d="M19.5,3.5L18,2l-1.5,1.5L15,2l-1.5,1.5L12,2l-1.5,1.5L9,2L7.5,3.5L6,2v14H3v3c0,1.66,1.34,3,3,3h12c1.66,0,3-1.34,3-3V2 L19.5,3.5z M15,20H6c-0.55,0-1-0.45-1-1v-1h10V20z M19,19c0,0.55-0.45,1-1,1s-1-0.45-1-1v-3H8V5h11V19z"/><rect height="2" width="6" x="9" y="7"/><rect height="2" width="2" x="16" y="7"/><rect height="2" width="6" x="9" y="10"/><rect height="2" width="2" x="16" y="10"/></g></svg><svg xmlns="http://www.w3.org/2000/svg" viewBox="0 0 24 24" id="ca-alarm_on"><g id="Livello_155" data-name="Livello 155"><path d="M10.54 14.53L8.41 12.4l-1.06 1.06 3.18 3.18 6-6-1.06-1.06zm6.797-12.72l4.607 3.845-1.28 1.535-4.61-3.843zm-10.674 0l1.282 1.536L3.337 7.19l-1.28-1.536zM12 4c-4.97 0-9 4.03-9 9s4.03 9 9 9 9-4.03 9-9-4.03-9-9-9zm0 16c-3.86 0-7-3.14-7-7s3.14-7 7-7 7 3.14 7 7-3.14 7-7 7z"/></g></svg><svg xmlns="http://www.w3.org/2000/svg" viewBox="0 0 24 24" id="ca-file_present"><g id="Livello_156" data-name="Livello 156"><path d="M14,2H6C4.9,2,4,2.9,4,4v16c0,1.1,0.9,2,2,2h12c1.1,0,2-0.9,2-2V8L14,2z M18,20H6V4h8v4h4V20z M12,17L12,17 c-1.1,0-2-0.9-2-2l0-5.5C10,9.22,10.22,9,10.5,9h0C10.78,9,11,9.22,11,9.5V15h2V9.5C13,8.12,11.88,7,10.5,7h0C9.12,7,8,8.12,8,9.5 L8,15c0,2.21,1.79,4,4,4h0c2.21,0,4-1.79,4-4v-4h-2v4C14,16.1,13.1,17,12,17z"/></g></svg><svg xmlns="http://www.w3.org/2000/svg" viewBox="0 0 24 24" id="ca-shopping_cart"><g id="Livello_157" data-name="Livello 157"><path d="M15.55 13c.75 0 1.41-.41 1.75-1.03l3.58-6.49c.37-.66-.11-1.48-.87-1.48H5.21l-.94-2H1v2h2l3.6 7.59-1.35 2.44C4.52 15.37 5.48 17 7 17h12v-2H7l1.1-2h7.45zM6.16 6h12.15l-2.76 5H8.53L6.16 6zM7 18c-1.1 0-1.99.9-1.99 2S5.9 22 7 22s2-.9 2-2-.9-2-2-2zm10 0c-1.1 0-1.99.9-1.99 2s.89 2 1.99 2 2-.9 2-2-.9-2-2-2z"/></g></svg><svg xmlns="http://www.w3.org/2000/svg" viewBox="0 0 24 24" id="ca-verified"><g id="Livello_158" data-name="Livello 158"><path d="M23,11.99l-2.44-2.79l0.34-3.69l-3.61-0.82L15.4,1.5L12,2.96L8.6,1.5L6.71,4.69L3.1,5.5L3.44,9.2L1,11.99l2.44,2.79 l-0.34,3.7l3.61,0.82L8.6,22.5l3.4-1.47l3.4,1.46l1.89-3.19l3.61-0.82l-0.34-3.69L23,11.99z M19.05,13.47l-0.56,0.65l0.08,0.85 l0.18,1.95l-1.9,0.43l-0.84,0.19l-0.44,0.74l-0.99,1.68l-1.78-0.77L12,18.85l-0.79,0.34l-1.78,0.77l-0.99-1.67l-0.44-0.74 l-0.84-0.19l-1.9-0.43l0.18-1.96l0.08-0.85l-0.56-0.65l-1.29-1.47l1.29-1.48l0.56-0.65L5.43,9.01L5.25,7.07l1.9-0.43l0.84-0.19 l0.44-0.74l0.99-1.68l1.78,0.77L12,5.14l0.79-0.34l1.78-0.77l0.99,1.68l0.44,0.74l0.84,0.19l1.9,0.43l-0.18,1.95l-0.08,0.85 l0.56,0.65l1.29,1.47L19.05,13.47z"/><polygon points="10.09,13.75 7.77,11.42 6.29,12.91 10.09,16.72 17.43,9.36 15.95,7.87"/></g></svg><svg xmlns="http://www.w3.org/2000/svg" viewBox="0 0 24 24" id="ca-water_drop"><g id="Livello_159" data-name="Livello 159"><path d="M12,2c-5.33,4.55-8,8.48-8,11.8c0,4.98,3.8,8.2,8,8.2s8-3.22,8-8.2C20,10.48,17.33,6.55,12,2z M12,20c-3.35,0-6-2.57-6-6.2 c0-2.34,1.95-5.44,6-9.14c4.05,3.7,6,6.79,6,9.14C18,17.43,15.35,20,12,20z M7.83,14c0.37,0,0.67,0.26,0.74,0.62 c0.41,2.22,2.28,2.98,3.64,2.87c0.43-0.02,0.79,0.32,0.79,0.75c0,0.4-0.32,0.73-0.72,0.75c-2.13,0.13-4.62-1.09-5.19-4.12 C7.01,14.42,7.37,14,7.83,14z"/></g></svg><svg xmlns="http://www.w3.org/2000/svg" viewBox="0 0 24 24" id="ca-forest"><g id="Livello_160" data-name="Livello 160"><path d="M24,18l-3.86-6H22L15,2l-3,4.29L9,2L2,12h1.86L0,18h7v4h4v-4h2v4h4v-4H24z M15,5.49L18.16,10h-1.68l3.86,6h-3.62l-2.57-4 H16l-2.78-3.97L15,5.49z M3.66,16l3.86-6H5.84L9,5.49L12.16,10h-1.68l3.86,6H3.66z"/></g></svg><svg xmlns="http://www.w3.org/2000/svg" viewBox="0 0 24 24" id="ca-elderly"><g id="Livello_161" data-name="Livello 161"><path d="M13.5,5.5c1.1,0,2-0.9,2-2s-0.9-2-2-2s-2,0.9-2,2S12.4,5.5,13.5,5.5z M20,12.5V23h-1V12.5c0-0.28-0.22-0.5-0.5-0.5 S18,12.22,18,12.5v1h-1v-0.69c-1.46-0.38-2.7-1.29-3.51-2.52C13.18,11.16,13,12.07,13,13c0,0.23,0.02,0.46,0.03,0.69L15,16.5V23h-2 v-5l-1.78-2.54L11,19l-3,4l-1.6-1.2L9,18.33V13c0-1.15,0.18-2.29,0.5-3.39L8,10.46V14H6V9.3l5.4-3.07l0,0.01 c0.59-0.31,1.32-0.33,1.94,0.03c0.36,0.21,0.63,0.51,0.8,0.85l0,0l0.79,1.67C15.58,10.1,16.94,11,18.5,11C19.33,11,20,11.67,20,12.5 z"/></g></svg><svg xmlns="http://www.w3.org/2000/svg" viewBox="0 0 24 24" id="ca-handshake"><g id="Livello_162" data-name="Livello 162"><path d="M12.22,19.85c-0.18,0.18-0.5,0.21-0.71,0c-0.18-0.18-0.21-0.5,0-0.71l3.39-3.39l-1.41-1.41l-3.39,3.39 c-0.19,0.2-0.51,0.19-0.71,0c-0.21-0.21-0.18-0.53,0-0.71l3.39-3.39l-1.41-1.41l-3.39,3.39c-0.18,0.18-0.5,0.21-0.71,0 c-0.19-0.19-0.19-0.51,0-0.71l3.39-3.39L9.24,10.1l-3.39,3.39c-0.18,0.18-0.5,0.21-0.71,0c-0.19-0.2-0.19-0.51,0-0.71L9.52,8.4 l1.87,1.86c0.95,0.95,2.59,0.94,3.54,0c0.98-0.98,0.98-2.56,0-3.54l-1.86-1.86l0.28-0.28c0.78-0.78,2.05-0.78,2.83,0l4.24,4.24 c0.78,0.78,0.78,2.05,0,2.83L12.22,19.85z M21.83,13.07c1.56-1.56,1.56-4.09,0-5.66l-4.24-4.24c-1.56-1.56-4.09-1.56-5.66,0 l-0.28,0.28l-0.28-0.28c-1.56-1.56-4.09-1.56-5.66,0L2.17,6.71c-1.42,1.42-1.55,3.63-0.4,5.19l1.45-1.45 C2.83,9.7,2.96,8.75,3.59,8.12l3.54-3.54c0.78-0.78,2.05-0.78,2.83,0l3.56,3.56c0.18,0.18,0.21,0.5,0,0.71 c-0.21,0.21-0.53,0.18-0.71,0L9.52,5.57l-5.8,5.79c-0.98,0.97-0.98,2.56,0,3.54c0.39,0.39,0.89,0.63,1.42,0.7 c0.07,0.52,0.3,1.02,0.7,1.42c0.4,0.4,0.9,0.63,1.42,0.7c0.07,0.52,0.3,1.02,0.7,1.42c0.4,0.4,0.9,0.63,1.42,0.7 c0.07,0.54,0.31,1.03,0.7,1.42c0.47,0.47,1.1,0.73,1.77,0.73c0.67,0,1.3-0.26,1.77-0.73L21.83,13.07z"/></g></svg><svg xmlns="http://www.w3.org/2000/svg" viewBox="0 0 24 24" id="ca-precision_manufacturing"><g id="Livello_163" data-name="Livello 163"><path d="M19.93,8.35l-3.6,1.68L14,7.7V6.3l2.33-2.33l3.6,1.68c0.38,0.18,0.82,0.01,1-0.36c0.18-0.38,0.01-0.82-0.36-1l-3.92-1.83 c-0.38-0.18-0.83-0.1-1.13,0.2L13.78,4.4C13.6,4.16,13.32,4,13,4c-0.55,0-1,0.45-1,1v1H8.82C8.4,4.84,7.3,4,6,4C4.34,4,3,5.34,3,7 c0,1.1,0.6,2.05,1.48,2.58L7.08,18H6c-1.1,0-2,0.9-2,2v1h13v-1c0-1.1-0.9-2-2-2h-1.62L8.41,8.77C8.58,8.53,8.72,8.28,8.82,8H12v1 c0,0.55,0.45,1,1,1c0.32,0,0.6-0.16,0.78-0.4l1.74,1.74c0.3,0.3,0.75,0.38,1.13,0.2l3.92-1.83c0.38-0.18,0.54-0.62,0.36-1 C20.75,8.34,20.31,8.17,19.93,8.35z M6,8C5.45,8,5,7.55,5,7c0-0.55,0.45-1,1-1s1,0.45,1,1C7,7.55,6.55,8,6,8z M11.11,18H9.17 l-2.46-8h0.1L11.11,18z"/></g></svg><svg xmlns="http://www.w3.org/2000/svg" viewBox="0 0 24 24" id="ca-face_unlock"><g id="Livello_164" data-name="Livello 164"><path d="M10.25 13c0 .69-.56 1.25-1.25 1.25S7.75 13.69 7.75 13s.56-1.25 1.25-1.25 1.25.56 1.25 1.25zM15 11.75c-.69 0-1.25.56-1.25 1.25s.56 1.25 1.25 1.25 1.25-.56 1.25-1.25-.56-1.25-1.25-1.25zm7 .25c0 5.52-4.48 10-10 10S2 17.52 2 12 6.48 2 12 2s10 4.48 10 10zM10.66 4.12C12.06 6.44 14.6 8 17.5 8c.46 0 .91-.05 1.34-.12C17.44 5.56 14.9 4 12 4c-.46 0-.91.05-1.34.12zM4.42 9.47c1.71-.97 3.03-2.55 3.66-4.44C6.37 6 5.05 7.58 4.42 9.47zM20 12c0-.78-.12-1.53-.33-2.24-.7.15-1.42.24-2.17.24-3.13 0-5.92-1.44-7.76-3.69C8.69 8.87 6.6 10.88 4 11.86c.01.04 0 .09 0 .14 0 4.41 3.59 8 8 8s8-3.59 8-8z"/></g></svg><svg xmlns="http://www.w3.org/2000/svg" viewBox="0 0 24 24" id="ca-workspace_premium"><g id="Livello_165" data-name="Livello 165"><path d="M9.68,13.69L12,11.93l2.31,1.76l-0.88-2.85L15.75,9h-2.84L12,6.19L11.09,9H8.25l2.31,1.84L9.68,13.69z M20,10 c0-4.42-3.58-8-8-8s-8,3.58-8,8c0,2.03,0.76,3.87,2,5.28V23l6-2l6,2v-7.72C19.24,13.87,20,12.03,20,10z M12,4c3.31,0,6,2.69,6,6 s-2.69,6-6,6s-6-2.69-6-6S8.69,4,12,4z M12,19l-4,1.02v-3.1C9.18,17.6,10.54,18,12,18s2.82-0.4,4-1.08v3.1L12,19z"/></g></svg><svg xmlns="http://www.w3.org/2000/svg" viewBox="0 0 24 24" id="ca-lock_open"><g id="Livello_166" data-name="Livello 166"><path d="M18 8h-1V6c0-2.76-2.24-5-5-5S7 3.24 7 6h2c0-1.66 1.34-3 3-3s3 1.34 3 3v2H6c-1.1 0-2 .9-2 2v10c0 1.1.9 2 2 2h12c1.1 0 2-.9 2-2V10c0-1.1-.9-2-2-2zm0 12H6V10h12v10zm-6-3c1.1 0 2-.9 2-2s-.9-2-2-2-2 .9-2 2 .9 2 2 2z"/></g></svg><svg xmlns="http://www.w3.org/2000/svg" viewBox="0 0 24 24" id="ca-euro"><g id="Livello_167" data-name="Livello 167"><path d="M15,18.5c-2.51,0-4.68-1.42-5.76-3.5H15l1-2H8.58c-0.05-0.33-0.08-0.66-0.08-1s0.03-0.67,0.08-1H15l1-2H9.24 C10.32,6.92,12.5,5.5,15,5.5c1.61,0,3.09,0.59,4.23,1.57L21,5.3C19.41,3.87,17.3,3,15,3c-3.92,0-7.24,2.51-8.48,6H3l-1,2h4.06 C6.02,11.33,6,11.66,6,12s0.02,0.67,0.06,1H3l-1,2h4.52c1.24,3.49,4.56,6,8.48,6c2.31,0,4.41-0.87,6-2.3l-1.78-1.77 C18.09,17.91,16.62,18.5,15,18.5z"/></g></svg><svg xmlns="http://www.w3.org/2000/svg" viewBox="0 0 24 24" id="ca-coronavirus"><g id="Livello_168" data-name="Livello 168"><path d="M9.5,12c0,0.55-0.45,1-1,1s-1-0.45-1-1c0-0.55,0.45-1,1-1S9.5,11.45,9.5,12z M13.75,10c0.55,0,1-0.45,1-1s-0.45-1-1-1 s-1,0.45-1,1S13.2,10,13.75,10z M10.25,10c0.55,0,1-0.45,1-1s-0.45-1-1-1s-1,0.45-1,1S9.7,10,10.25,10z M10.25,14 c-0.55,0-1,0.45-1,1c0,0.55,0.45,1,1,1s1-0.45,1-1C11.25,14.45,10.8,14,10.25,14z M22,11.25v1.5c0,0.41-0.34,0.75-0.75,0.75 c-0.41,0-0.75-0.34-0.75-0.75h-1.54c-0.15,1.37-0.69,2.63-1.52,3.65l1.09,1.09l0.01-0.01c0.29-0.29,0.77-0.29,1.06,0 c0.29,0.29,0.29,0.77,0,1.06l-1.06,1.06c-0.29,0.29-0.77,0.29-1.06,0c-0.29-0.29-0.29-0.76-0.01-1.05l-1.09-1.09 c-1.02,0.82-2.27,1.36-3.64,1.51v1.54h0.01c0.41,0,0.75,0.34,0.75,0.75c0,0.41-0.34,0.75-0.75,0.75h-1.5 c-0.41,0-0.75-0.34-0.75-0.75c0-0.41,0.33-0.74,0.74-0.75v-1.55c-1.37-0.15-2.62-0.69-3.63-1.51l-1.09,1.09l0.01,0.01 c0.29,0.29,0.29,0.77,0,1.06c-0.29,0.29-0.77,0.29-1.06,0L4.4,18.54c-0.29-0.29-0.29-0.77,0-1.06c0.29-0.29,0.76-0.29,1.05-0.01 l1.09-1.09c-0.82-1.02-1.36-2.26-1.5-3.63H3.5c0,0.41-0.34,0.75-0.75,0.75C2.34,13.5,2,13.16,2,12.75v-1.5 c0-0.41,0.34-0.75,0.75-0.75c0.41,0,0.75,0.34,0.75,0.75h1.54c0.15-1.37,0.69-2.61,1.5-3.63L5.45,6.53C5.16,6.81,4.69,6.81,4.4,6.52 c-0.29-0.29-0.29-0.77,0-1.06L5.46,4.4c0.29-0.29,0.77-0.29,1.06,0c0.29,0.29,0.29,0.77,0,1.06L6.51,5.47L7.6,6.56 c1.02-0.82,2.26-1.36,3.63-1.51V3.5c-0.41-0.01-0.74-0.34-0.74-0.75C10.5,2.34,10.84,2,11.25,2h1.5c0.41,0,0.75,0.34,0.75,0.75 c0,0.41-0.34,0.75-0.75,0.75h-0.01v1.54c1.37,0.14,2.62,0.69,3.64,1.51l1.09-1.09c-0.29-0.29-0.28-0.76,0.01-1.05 c0.29-0.29,0.77-0.29,1.06,0l1.06,1.06c0.29,0.29,0.29,0.77,0,1.06s-0.77,0.29-1.06,0l-0.01-0.01L17.44,7.6 c0.82,1.02,1.37,2.27,1.52,3.65h1.54c0-0.41,0.34-0.75,0.75-0.75C21.66,10.5,22,10.84,22,11.25z M17,12c0-2.76-2.24-5-5-5 s-5,2.24-5,5s2.24,5,5,5S17,14.76,17,12z M12,11c-0.55,0-1,0.45-1,1c0,0.55,0.45,1,1,1s1-0.45,1-1C13,11.45,12.55,11,12,11z M15.5,11c-0.55,0-1,0.45-1,1c0,0.55,0.45,1,1,1s1-0.45,1-1C16.5,11.45,16.05,11,15.5,11z M13.75,14c-0.55,0-1,0.45-1,1 c0,0.55,0.45,1,1,1s1-0.45,1-1C14.75,14.45,14.3,14,13.75,14z"/></g></svg><svg xmlns="http://www.w3.org/2000/svg" viewBox="0 0 24 24" id="ca-accessible"><g id="Livello_169" data-name="Livello 169"><circle cx="12" cy="4" r="2"/><path d="M19 13v-2c-1.54.02-3.09-.75-4.07-1.83l-1.29-1.43c-.17-.19-.38-.34-.61-.45-.01 0-.01-.01-.02-.01H13c-.35-.2-.75-.3-1.19-.26C10.76 7.11 10 8.04 10 9.09V15c0 1.1.9 2 2 2h5v5h2v-5.5c0-1.1-.9-2-2-2h-3v-3.45c1.29 1.07 3.25 1.94 5 1.95zm-9 7c-1.66 0-3-1.34-3-3 0-1.31.84-2.41 2-2.83V12.1c-2.28.46-4 2.48-4 4.9 0 2.76 2.24 5 5 5 2.42 0 4.44-1.72 4.9-4h-2.07c-.41 1.16-1.52 2-2.83 2z"/></g></svg><svg xmlns="http://www.w3.org/2000/svg" viewBox="0 0 24 24" id="ca-villa"><g id="Livello_170" data-name="Livello 170"><path d="M19,10c-1.1,0-2,0.9-2,2h-1V3L3,8v13h18v-9C21,10.9,20.1,10,19,10z M5,9.37l9-3.46V12H9v7H5V9.37z M19,19h-3v-3h-2v3h-3v-5 h8V19z"/></g></svg><svg xmlns="http://www.w3.org/2000/svg" viewBox="0 0 24 24" id="ca-devices"><g id="Livello_171" data-name="Livello 171"><path d="M4 6h18V4H4c-1.1 0-2 .9-2 2v11H0v3h14v-3H4V6zm19 2h-6c-.55 0-1 .45-1 1v10c0 .55.45 1 1 1h6c.55 0 1-.45 1-1V9c0-.55-.45-1-1-1zm-1 9h-4v-7h4v7z"/></g></svg><svg xmlns="http://www.w3.org/2000/svg" viewBox="0 0 24 24" id="ca-yard"><g id="Livello_172" data-name="Livello 172"><path d="M18,13c-3.31,0-6,2.69-6,6C15.31,19,18,16.31,18,13z M6,13c0,3.31,2.69,6,6,6C12,15.69,9.31,13,6,13z M8,11.03 c0,0.86,0.7,1.56,1.56,1.56c0.33,0,0.63-0.1,0.89-0.28l-0.01,0.12c0,0.86,0.7,1.56,1.56,1.56s1.56-0.7,1.56-1.56l-0.01-0.12 c0.25,0.17,0.56,0.28,0.89,0.28c0.86,0,1.56-0.7,1.56-1.56c0-0.62-0.37-1.16-0.89-1.41C15.63,9.38,16,8.84,16,8.22 c0-0.86-0.7-1.56-1.56-1.56c-0.33,0-0.63,0.1-0.89,0.28l0.01-0.12c0-0.86-0.7-1.56-1.56-1.56s-1.56,0.7-1.56,1.56l0.01,0.12 C10.2,6.76,9.89,6.66,9.56,6.66C8.7,6.66,8,7.36,8,8.22c0,0.62,0.37,1.16,0.89,1.41C8.37,9.87,8,10.41,8,11.03z M12,8.06 c0.86,0,1.56,0.7,1.56,1.56s-0.7,1.56-1.56,1.56s-1.56-0.7-1.56-1.56S11.14,8.06,12,8.06z M20,4v16H4V4H20 M20,2H4C2.9,2,2,2.9,2,4 v16c0,1.1,0.9,2,2,2h16c1.1,0,2-0.9,2-2V4C22,2.9,21.1,2,20,2z"/></g></svg><svg xmlns="http://www.w3.org/2000/svg" viewBox="0 0 24 24" id="ca-engineering"><g id="Livello_173" data-name="Livello 173"><path d="M9,15c-2.67,0-8,1.34-8,4v2h16v-2C17,16.34,11.67,15,9,15z M3,19c0.22-0.72,3.31-2,6-2c2.7,0,5.8,1.29,6,2H3z"/><path d="M4.74,9H5c0,2.21,1.79,4,4,4s4-1.79,4-4h0.26c0.27,0,0.49-0.22,0.49-0.49V8.49c0-0.27-0.22-0.49-0.49-0.49H13 c0-1.48-0.81-2.75-2-3.45V5.5C11,5.78,10.78,6,10.5,6S10,5.78,10,5.5V4.14C9.68,4.06,9.35,4,9,4S8.32,4.06,8,4.14V5.5 C8,5.78,7.78,6,7.5,6S7,5.78,7,5.5V4.55C5.81,5.25,5,6.52,5,8H4.74C4.47,8,4.25,8.22,4.25,8.49v0.03C4.25,8.78,4.47,9,4.74,9z M11,9c0,1.1-0.9,2-2,2s-2-0.9-2-2H11z"/><path d="M21.98,6.23l0.93-0.83l-0.75-1.3l-1.19,0.39c-0.14-0.11-0.3-0.2-0.47-0.27L20.25,3h-1.5L18.5,4.22 c-0.17,0.07-0.33,0.16-0.48,0.27L16.84,4.1l-0.75,1.3l0.93,0.83C17,6.4,17,6.58,17.02,6.75L16.09,7.6l0.75,1.3l1.2-0.38 c0.13,0.1,0.28,0.18,0.43,0.25L18.75,10h1.5l0.27-1.22c0.16-0.07,0.3-0.15,0.44-0.25l1.19,0.38l0.75-1.3l-0.93-0.85 C22,6.57,21.99,6.4,21.98,6.23z M19.5,7.75c-0.69,0-1.25-0.56-1.25-1.25s0.56-1.25,1.25-1.25s1.25,0.56,1.25,1.25 S20.19,7.75,19.5,7.75z"/><path d="M19.4,10.79l-0.85,0.28c-0.1-0.08-0.21-0.14-0.33-0.19L18.04,10h-1.07l-0.18,0.87c-0.12,0.05-0.24,0.12-0.34,0.19 l-0.84-0.28l-0.54,0.93l0.66,0.59c-0.01,0.13-0.01,0.25,0,0.37l-0.66,0.61l0.54,0.93l0.86-0.27c0.1,0.07,0.2,0.13,0.31,0.18 L16.96,15h1.07l0.19-0.87c0.11-0.05,0.22-0.11,0.32-0.18l0.85,0.27l0.54-0.93l-0.66-0.61c0.01-0.13,0.01-0.25,0-0.37l0.66-0.59 L19.4,10.79z M17.5,13.39c-0.49,0-0.89-0.4-0.89-0.89c0-0.49,0.4-0.89,0.89-0.89s0.89,0.4,0.89,0.89 C18.39,12.99,17.99,13.39,17.5,13.39z"/></g></svg><svg xmlns="http://www.w3.org/2000/svg" viewBox="0 0 24 24" id="ca-diversity_3"><g id="Livello_174" data-name="Livello 174"><path d="M6.32,13.01c0.96,0.02,1.85,0.5,2.45,1.34C9.5,15.38,10.71,16,12,16c1.29,0,2.5-0.62,3.23-1.66 c0.6-0.84,1.49-1.32,2.45-1.34C16.96,11.78,14.08,11,12,11C9.93,11,7.04,11.78,6.32,13.01z"/><path d="M4,13L4,13c1.66,0,3-1.34,3-3c0-1.66-1.34-3-3-3s-3,1.34-3,3C1,11.66,2.34,13,4,13z"/><path d="M20,13L20,13c1.66,0,3-1.34,3-3c0-1.66-1.34-3-3-3s-3,1.34-3,3C17,11.66,18.34,13,20,13z"/><path d="M12,10c1.66,0,3-1.34,3-3c0-1.66-1.34-3-3-3S9,5.34,9,7C9,8.66,10.34,10,12,10z"/><path d="M21,14h-3.27c-0.77,0-1.35,0.45-1.68,0.92C16.01,14.98,14.69,17,12,17c-1.43,0-3.03-0.64-4.05-2.08 C7.56,14.37,6.95,14,6.27,14H3c-1.1,0-2,0.9-2,2v4h7v-2.26c1.15,0.8,2.54,1.26,4,1.26s2.85-0.46,4-1.26V20h7v-4 C23,14.9,22.1,14,21,14z"/></g></svg><svg xmlns="http://www.w3.org/2000/svg" viewBox="0 0 24 24" id="ca-gavel"><g id="Livello_175" data-name="Livello 175"><path d="M1 21h12v2H1v-2zM5.24 8.07l2.83-2.83 14.14 14.14-2.83 2.83L5.24 8.07zM12.32 1l5.66 5.66-2.83 2.83-5.66-5.66L12.32 1zM3.83 9.48l5.66 5.66-2.83 2.83L1 12.31l2.83-2.83z"/></g></svg><svg xmlns="http://www.w3.org/2000/svg" viewBox="0 0 24 24" id="ca-real_estate_agent"><g id="Livello_176" data-name="Livello 176"><path d="M21,6.5V14h-2V7.5L14,4L9,7.5V9H7V6.5l7-5L21,6.5z M15.5,7h-1v1h1V7z M13.5,7h-1v1h1V7z M15.5,9h-1v1h1V9z M13.5,9h-1v1h1V9 z M19,16h-2c0-1.2-0.75-2.28-1.87-2.7L8.97,11H1v11h6v-1.44l7,1.94l8-2.5v-1C22,17.34,20.66,16,19,16z M3,20v-7h2v7H3z M13.97,20.41 L7,18.48V13h1.61l5.82,2.17C14.77,15.3,15,15.63,15,16c0,0-1.99-0.05-2.3-0.15l-2.38-0.79l-0.63,1.9l2.38,0.79 c0.51,0.17,1.04,0.26,1.58,0.26H19c0.39,0,0.74,0.23,0.9,0.56L13.97,20.41z"/></g></svg><svg xmlns="http://www.w3.org/2000/svg" viewBox="0 0 24 24" id="ca-public"><g id="Livello_177" data-name="Livello 177"><path d="M12 2C6.48 2 2 6.48 2 12s4.48 10 10 10 10-4.48 10-10S17.52 2 12 2zM4 12c0-.61.08-1.21.21-1.78L8.99 15v1c0 1.1.9 2 2 2v1.93C7.06 19.43 4 16.07 4 12zm13.89 5.4c-.26-.81-1-1.4-1.9-1.4h-1v-3c0-.55-.45-1-1-1h-6v-2h2c.55 0 1-.45 1-1V7h2c1.1 0 2-.9 2-2v-.41C17.92 5.77 20 8.65 20 12c0 2.08-.81 3.98-2.11 5.4z"/></g></svg><svg xmlns="http://www.w3.org/2000/svg" viewBox="0 0 24 24" id="ca-receipt"><g id="Livello_178" data-name="Livello 178"><path d="M19.5 3.5L18 2l-1.5 1.5L15 2l-1.5 1.5L12 2l-1.5 1.5L9 2 7.5 3.5 6 2 4.5 3.5 3 2v20l1.5-1.5L6 22l1.5-1.5L9 22l1.5-1.5L12 22l1.5-1.5L15 22l1.5-1.5L18 22l1.5-1.5L21 22V2l-1.5 1.5zM19 19.09H5V4.91h14v14.18zM6 15h12v2H6zm0-4h12v2H6zm0-4h12v2H6z"/></g></svg><svg xmlns="http://www.w3.org/2000/svg" viewBox="0 0 24 24" id="ca-flight_land"><g id="Livello_179" data-name="Livello 179"><path d="M2.5 19h19v2h-19v-2zm16.84-3.15c.8.21 1.62-.26 1.84-1.06.21-.8-.26-1.62-1.06-1.84l-5.31-1.42-2.76-9.02L10.12 2v8.28L5.15 8.95l-.93-2.32-1.45-.39v5.17l16.57 4.44z"/></g></svg><svg xmlns="http://www.w3.org/2000/svg" viewBox="0 0 24 24" id="ca-location_city"><g id="Livello_180" data-name="Livello 180"><path d="M15 11V5l-3-3-3 3v2H3v14h18V11h-6zm-8 8H5v-2h2v2zm0-4H5v-2h2v2zm0-4H5V9h2v2zm6 8h-2v-2h2v2zm0-4h-2v-2h2v2zm0-4h-2V9h2v2zm0-4h-2V5h2v2zm6 12h-2v-2h2v2zm0-4h-2v-2h2v2z"/></g></svg><svg xmlns="http://www.w3.org/2000/svg" viewBox="0 0 24 24" id="ca-sailing"><g id="Livello_181" data-name="Livello 181"><path d="M11,13.5V2L3,13.5H11z M9,11.5H6.83L9,8.38V11.5z M21,13.5C21,6.5,14.5,1,12.5,1c0,0,1,3,1,6.5s-1,6-1,6H21z M15.38,5.24 c1.42,1.52,2.88,3.72,3.41,6.26h-3.68c0.21-1.1,0.39-2.46,0.39-4C15.5,6.71,15.45,5.95,15.38,5.24z M22,15H2 c0.31,1.53,1.16,2.84,2.33,3.73C4.98,18.46,5.55,18.01,6,17.5C6.73,18.34,7.8,19,9,19s2.27-0.66,3-1.5c0.73,0.84,1.8,1.5,3,1.5 s2.26-0.66,3-1.5c0.45,0.51,1.02,0.96,1.67,1.23C20.84,17.84,21.69,16.53,22,15z M22,23v-2h-1c-1.04,0-2.08-0.35-3-1 c-1.83,1.3-4.17,1.3-6,0c-1.83,1.3-4.17,1.3-6,0c-0.91,0.65-1.96,1-3,1H2l0,2h1c1.03,0,2.05-0.25,3-0.75c1.89,1,4.11,1,6,0 c1.89,1,4.11,1,6,0h0c0.95,0.5,1.97,0.75,3,0.75H22z"/></g></svg><svg xmlns="http://www.w3.org/2000/svg" viewBox="0 0 24 24" id="ca-sms"><g id="Livello_182" data-name="Livello 182"><path d="M20 2H4c-1.1 0-2 .9-2 2v18l4-4h14c1.1 0 2-.9 2-2V4c0-1.1-.9-2-2-2zm0 14H5.17L4 17.17V4h16v12zM7 9h2v2H7zm8 0h2v2h-2zm-4 0h2v2h-2z"/></g></svg><svg xmlns="http://www.w3.org/2000/svg" viewBox="0 0 24 24" id="ca-filtra"><g id="Livello_183" data-name="Livello 183"><path d="M7,6h10l-5.01,6.3L7,6z M4.25,5.61C6.27,8.2,10,13,10,13v6c0,0.55,0.45,1,1,1h2c0.55,0,1-0.45,1-1v-6 c0,0,3.72-4.8,5.74-7.39C20.25,4.95,19.78,4,18.95,4H5.04C4.21,4,3.74,4.95,4.25,5.61z"/></g></svg><svg xmlns="http://www.w3.org/2000/svg" viewBox="0 0 24 24" id="ca-filtri"><g id="Livello_184" data-name="Livello 184"><path d="M10 18h4v-2h-4v2zM3 6v2h18V6H3zm3 7h12v-2H6v2z"/></g></svg></defs></svg>