<?xml version="1.0" encoding="utf-8"?><svg xmlns="http://www.w3.org/2000/svg" xmlns:xlink="http://www.w3.org/1999/xlink"><defs><svg viewBox="0 0 24 24" id="ca-srv_appuntamenti" xmlns="http://www.w3.org/2000/svg"><g data-name="Livello 1"><path d="M5,10h14v2h2V6c0-1.1-0.9-2-2-2h-1V2h-2v2H8V2H6v2H5C3.89,4,3.01,4.9,3.01,6L3,20c0,1.1,0.89,2,2,2h7v-2H5V10z M5,6h14v2H5 V6z M22.84,16.28l-0.71,0.71l-2.12-2.12l0.71-0.71c0.39-0.39,1.02-0.39,1.41,0l0.71,0.71C23.23,15.26,23.23,15.89,22.84,16.28z M19.3,15.58l2.12,2.12l-5.3,5.3H14v-2.12L19.3,15.58z"/></g></svg><svg viewBox="0 0 24 24" id="ca-srv_matrimoni" xmlns="http://www.w3.org/2000/svg"><g data-name="Livello 2"><path d="M16,4c0-1.11,0.89-2,2-2s2,0.89,2,2s-0.89,2-2,2S16,5.11,16,4z M20,22v-6h2.5l-2.54-7.63C19.68,7.55,18.92,7,18.06,7h-0.12 c-0.86,0-1.63,0.55-1.9,1.37l-0.86,2.58C16.26,11.55,17,12.68,17,14v8H20z M12.5,11.5c0.83,0,1.5-0.67,1.5-1.5s-0.67-1.5-1.5-1.5 S11,9.17,11,10S11.67,11.5,12.5,11.5z M5.5,6c1.11,0,2-0.89,2-2s-0.89-2-2-2s-2,0.89-2,2S4.39,6,5.5,6z M7.5,22v-7H9V9 c0-1.1-0.9-2-2-2H4C2.9,7,2,7.9,2,9v6h1.5v7H7.5z M14,22v-4h1v-4c0-0.82-0.68-1.5-1.5-1.5h-2c-0.82,0-1.5,0.68-1.5,1.5v4h1v4H14z"/></g></svg><svg viewBox="0 0 24 24" id="ca-srv_segnalazioni" xmlns="http://www.w3.org/2000/svg"><g data-name="Livello 3"><path d="M16.5,9c-0.42,0-0.83,0.04-1.24,0.11L1.01,3L1,10l10.06,1.34c-0.42,0.44-0.78,0.93-1.09,1.46L1,14l0.01,7l8.07-3.46 C9.59,21.19,12.71,24,16.5,24c4.14,0,7.5-3.36,7.5-7.5S20.64,9,16.5,9z M3,8.25l0.01-2.22l7.51,3.22L3,8.25z M9.1,15.36L3,17.97 v-2.22l6.17-0.82C9.14,15.07,9.12,15.21,9.1,15.36z M16.5,22c-3.03,0-5.5-2.47-5.5-5.5s2.47-5.5,5.5-5.5s5.5,2.47,5.5,5.5 S19.53,22,16.5,22z"/><polygon points="18.27,14.03 16.5,15.79 14.73,14.03 14.03,14.73 15.79,16.5 14.03,18.27 14.73,18.97 16.5,17.21 18.27,18.97 18.97,18.27 17.21,16.5 18.97,14.73"/></g></svg><svg viewBox="0 0 24 24" id="ca-srv_reclami" xmlns="http://www.w3.org/2000/svg"><g data-name="Livello 4"><path d="M18,11c0,0.67,0,1.33,0,2c1.2,0,2.76,0,4,0c0-0.67,0-1.33,0-2C20.76,11,19.2,11,18,11z"/><path d="M16,17.61c0.96,0.71,2.21,1.65,3.2,2.39c0.4-0.53,0.8-1.07,1.2-1.6c-0.99-0.74-2.24-1.68-3.2-2.4 C16.8,16.54,16.4,17.08,16,17.61z"/><path d="M20.4,5.6C20,5.07,19.6,4.53,19.2,4c-0.99,0.74-2.24,1.68-3.2,2.4c0.4,0.53,0.8,1.07,1.2,1.6 C18.16,7.28,19.41,6.35,20.4,5.6z"/><path d="M4,9c-1.1,0-2,0.9-2,2v2c0,1.1,0.9,2,2,2h1v4h2v-4h1l5,3V6L8,9H4z M9.03,10.71L11,9.53v4.94l-1.97-1.18L8.55,13H8H4v-2h4 h0.55L9.03,10.71z"/><path d="M15.5,12c0-1.33-0.58-2.53-1.5-3.35v6.69C14.92,14.53,15.5,13.33,15.5,12z"/></g></svg><svg viewBox="0 0 24 24" id="ca-srv_accessoatti" xmlns="http://www.w3.org/2000/svg"><g data-name="Livello 5"><path d="M9,4v1.38c-0.83-0.33-1.72-0.5-2.61-0.5c-1.79,0-3.58,0.68-4.95,2.05l3.33,3.33h1.11v1.11c0.86,0.86,1.98,1.31,3.11,1.36 V15H6v3c0,1.1,0.9,2,2,2h10c1.66,0,3-1.34,3-3V4H9z M7.89,10.41V8.26H5.61L4.57,7.22C5.14,7,5.76,6.88,6.39,6.88 c1.34,0,2.59,0.52,3.54,1.46l1.41,1.41l-0.2,0.2c-0.51,0.51-1.19,0.8-1.92,0.8C8.75,10.75,8.29,10.63,7.89,10.41z M19,17 c0,0.55-0.45,1-1,1s-1-0.45-1-1v-2h-6v-2.59c0.57-0.23,1.1-0.57,1.56-1.03l0.2-0.2L15.59,14H17v-1.41l-6-5.97V6h8V17z"/></g></svg><svg viewBox="0 0 24 24" id="ca-srv_smsmeteo" xmlns="http://www.w3.org/2000/svg"><g data-name="Livello 6"><path d="M17.92,7.02C17.45,4.18,14.97,2,12,2C9.82,2,7.83,3.18,6.78,5.06C4.09,5.41,2,7.74,2,10.5C2,13.53,4.47,16,7.5,16h10 c2.48,0,4.5-2.02,4.5-4.5C22,9.16,20.21,7.23,17.92,7.02z M17.5,14h-10C5.57,14,4,12.43,4,10.5c0-1.74,1.31-3.23,3.04-3.46 l0.99-0.13l0.49-0.87C9.23,4.78,10.56,4,12,4c1.94,0,3.63,1.44,3.95,3.35l0.25,1.52l1.54,0.14C19.01,9.13,20,10.22,20,11.5 C20,12.88,18.88,14,17.5,14z"/><polygon points="14.8,17 11.9,20.32 13.9,21.32 11.55,24 14.2,24 17.1,20.68 15.1,19.68 17.45,17"/><polygon points="8.8,17 5.9,20.32 7.9,21.32 5.55,24 8.2,24 11.1,20.68 9.1,19.68 11.45,17"/></g></svg><svg viewBox="0 0 24 24" id="ca-srv_istanze" xmlns="http://www.w3.org/2000/svg"><g data-name="Livello 7"><path d="M0 0h24v24H0V0z" fill="none"/><path d="M8 16h8v2H8zm0-4h8v2H8zm6-10H6c-1.1 0-2 .9-2 2v16c0 1.1.89 2 1.99 2H18c1.1 0 2-.9 2-2V8l-6-6zm4 18H6V4h7v5h5v11z"/></g></svg><svg viewBox="0 0 24 24" id="ca-srv_edilizia" xmlns="http://www.w3.org/2000/svg"><g data-name="Livello 8"><g><path d="M0,0h24v24H0V0z" fill="none"/></g><g><g><rect height="2" width="2" x="17" y="7"/><rect height="2" width="2" x="17" y="11"/><rect height="2" width="2" x="17" y="15"/><path d="M1,11v10h6v-5h2v5h6V11L8,6L1,11z M13,19h-2v-5H5v5H3v-7l5-3.5l5,3.5V19z"/><polygon points="10,3 10,4.97 12,6.4 12,5 21,5 21,19 17,19 17,21 23,21 23,3"/></g></g></g></svg><svg viewBox="0 0 24 24" id="ca-srv_gare" xmlns="http://www.w3.org/2000/svg"><g data-name="Livello 9"><path d="M0 0h24v24H0V0z" fill="none"/><path d="M1 21h12v2H1v-2zM5.24 8.07l2.83-2.83 14.14 14.14-2.83 2.83L5.24 8.07zM12.32 1l5.66 5.66-2.83 2.83-5.66-5.66L12.32 1zM3.83 9.48l5.66 5.66-2.83 2.83L1 12.31l2.83-2.83z"/></g></svg><svg viewBox="0 0 24 24" id="ca-srv_multe" xmlns="http://www.w3.org/2000/svg"><g data-name="Livello 10"><path d="M12.79,21L3,11.21v2c0,0.53,0.21,1.04,0.59,1.41l7.79,7.79c0.78,0.78,2.05,0.78,2.83,0l6.21-6.21 c0.78-0.78,0.78-2.05,0-2.83L12.79,21z"/><path d="M11.38,17.41c0.39,0.39,0.9,0.59,1.41,0.59c0.51,0,1.02-0.2,1.41-0.59l6.21-6.21c0.78-0.78,0.78-2.05,0-2.83l-7.79-7.79 C12.25,0.21,11.74,0,11.21,0H5C3.9,0,3,0.9,3,2v6.21c0,0.53,0.21,1.04,0.59,1.41L11.38,17.41z M5,2h6.21L19,9.79L12.79,16L5,8.21 V2z"/><circle cx="7.25" cy="4.25" r="1.25"/></g></svg><svg viewBox="0 0 24 24" id="ca-srv_soggiorno" xmlns="http://www.w3.org/2000/svg"><g data-name="Livello 11"><path d="M0 0h24v24H0V0z" fill="none"/><path d="M7 14c1.66 0 3-1.34 3-3S8.66 8 7 8s-3 1.34-3 3 1.34 3 3 3zm0-4c.55 0 1 .45 1 1s-.45 1-1 1-1-.45-1-1 .45-1 1-1zm12-3h-8v8H3V5H1v15h2v-3h18v3h2v-9c0-2.21-1.79-4-4-4zm2 8h-8V9h6c1.1 0 2 .9 2 2v4z"/></g></svg><svg viewBox="0 0 24 24" id="ca-srv_tari" xmlns="http://www.w3.org/2000/svg"><g data-name="Livello 12"><path d="M0 0h24v24H0V0z" fill="none"/><path d="M16 9v10H8V9h8m-1.5-6h-5l-1 1H5v2h14V4h-3.5l-1-1zM18 7H6v12c0 1.1.9 2 2 2h8c1.1 0 2-.9 2-2V7z"/></g></svg><svg viewBox="0 0 24 24" id="ca-srv_mensa" xmlns="http://www.w3.org/2000/svg"><g data-name="Livello 13"><path d="M6.4,7C6.06,7.55,6,7.97,6,8.38C6,9.15,7,11,7,12c0,0.95-0.4,1.5-0.4,1.5H5.1c0,0,0.4-0.55,0.4-1.5c0-1-1-2.85-1-3.62 C4.5,7.97,4.56,7.55,4.9,7H6.4z M11.4,7C11.06,7.55,11,7.97,11,8.38C11,9.15,12,11,12,12c0,0.95-0.4,1.5-0.4,1.5h1.5 c0,0,0.4-0.55,0.4-1.5c0-1-1-2.85-1-3.62c0-0.41,0.06-0.83,0.4-1.38H11.4z M8.15,7c-0.34,0.55-0.4,0.97-0.4,1.38 c0,0.77,1,2.63,1,3.62c0,0.95-0.4,1.5-0.4,1.5h1.5c0,0,0.4-0.55,0.4-1.5c0-1-1-2.85-1-3.62c0-0.41,0.06-0.83,0.4-1.38H8.15z M18.6,2 c-1.54,0-2.81,1.16-2.98,2.65L14.53,15H4.01c-0.6,0-1.09,0.53-1,1.13C3.53,19.46,6.39,22,9.75,22c3.48,0,6.34-2.73,6.71-6.23 l1.15-10.87C17.66,4.39,18.08,4,18.6,4c0.55,0,1,0.45,1,1c0,0.3-0.1,1.25-0.1,1.25l1.97,0.25c0,0,0.13-1.06,0.13-1.5 C21.6,3.35,20.25,2,18.6,2z M9.75,20c-1.94,0-3.67-1.23-4.43-3h8.78h0.01C13.39,18.78,11.69,20,9.75,20z"/></g></svg><svg viewBox="0 0 24 24" id="ca-srv_cup" xmlns="http://www.w3.org/2000/svg"><g data-name="Livello 14"><path d="M21.9,8.89l-1.05-4.37c-0.22-0.9-1-1.52-1.91-1.52H5.05C4.15,3,3.36,3.63,3.15,4.52L2.1,8.89 c-0.24,1.02-0.02,2.06,0.62,2.88C2.8,11.88,2.91,11.96,3,12.06V19c0,1.1,0.9,2,2,2h14c1.1,0,2-0.9,2-2v-6.94 c0.09-0.09,0.2-0.18,0.28-0.28C21.92,10.96,22.15,9.91,21.9,8.89z M18.91,4.99l1.05,4.37c0.1,0.42,0.01,0.84-0.25,1.17 C19.57,10.71,19.27,11,18.77,11c-0.61,0-1.14-0.49-1.21-1.14L16.98,5L18.91,4.99z M13,5h1.96l0.54,4.52 c0.05,0.39-0.07,0.78-0.33,1.07C14.95,10.85,14.63,11,14.22,11C13.55,11,13,10.41,13,9.69V5z M8.49,9.52L9.04,5H11v4.69 C11,10.41,10.45,11,9.71,11c-0.34,0-0.65-0.15-0.89-0.41C8.57,10.3,8.45,9.91,8.49,9.52z M4.04,9.36L5.05,5h1.97L6.44,9.86 C6.36,10.51,5.84,11,5.23,11c-0.49,0-0.8-0.29-0.93-0.47C4.03,10.21,3.94,9.78,4.04,9.36z M5,19v-6.03C5.08,12.98,5.15,13,5.23,13 c0.87,0,1.66-0.36,2.24-0.95c0.6,0.6,1.4,0.95,2.31,0.95c0.87,0,1.65-0.36,2.23-0.93c0.59,0.57,1.39,0.93,2.29,0.93 c0.84,0,1.64-0.35,2.24-0.95c0.58,0.59,1.37,0.95,2.24,0.95c0.08,0,0.15-0.02,0.23-0.03V19H5z"/></g></svg><svg viewBox="0 0 24 24" id="ca-srv_rimozioneveicoli" xmlns="http://www.w3.org/2000/svg"><g data-name="Livello 15"><path d="M0 0h24v24H0V0z" fill="none"/><path d="M18.92 6.01C18.72 5.42 18.16 5 17.5 5h-11c-.66 0-1.21.42-1.42 1.01L3 12v8c0 .55.45 1 1 1h1c.55 0 1-.45 1-1v-1h12v1c0 .55.45 1 1 1h1c.55 0 1-.45 1-1v-8l-2.08-5.99zM6.85 7h10.29l1.08 3.11H5.77L6.85 7zM19 17H5v-5h14v5z"/><circle cx="7.5" cy="14.5" r="1.5"/><circle cx="16.5" cy="14.5" r="1.5"/></g></svg><svg viewBox="0 0 24 24" id="ca-srv_ingombranti" xmlns="http://www.w3.org/2000/svg"><g data-name="Livello 16"><path d="M0 0h24v24H0V0z" fill="none"/><path d="M20 8h-3V4H3c-1.1 0-2 .9-2 2v11h2c0 1.66 1.34 3 3 3s3-1.34 3-3h6c0 1.66 1.34 3 3 3s3-1.34 3-3h2v-5l-3-4zm-.5 1.5l1.96 2.5H17V9.5h2.5zM6 18c-.55 0-1-.45-1-1s.45-1 1-1 1 .45 1 1-.45 1-1 1zm2.22-3c-.55-.61-1.33-1-2.22-1s-1.67.39-2.22 1H3V6h12v9H8.22zM18 18c-.55 0-1-.45-1-1s.45-1 1-1 1 .45 1 1-.45 1-1 1z"/></g></svg><svg viewBox="0 0 24 24" id="ca-srv_pagamentoavviso" xmlns="http://www.w3.org/2000/svg"><g data-name="Livello 17"><path d="M0,0h24v24H0V0z" fill="none"/><path d="M20,4H4C2.89,4,2.01,4.89,2.01,6L2,18c0,1.11,0.89,2,2,2h5v-2H4v-6h18V6C22,4.89,21.11,4,20,4z M20,8H4V6h16V8z M14.93,19.17l-2.83-2.83l-1.41,1.41L14.93,22L22,14.93l-1.41-1.41L14.93,19.17z"/></g></svg><svg viewBox="0 0 24 24" id="ca-srv_pagamentospontaneo" xmlns="http://www.w3.org/2000/svg"><g data-name="Livello 18"><path d="M17,2H7C5.9,2,5,2.9,5,4v2c0,1.1,0.9,2,2,2h10c1.1,0,2-0.9,2-2V4C19,2.9,18.1,2,17,2z M17,6H7V4h10V6z M20,22H4 c-1.1,0-2-0.9-2-2v-1h20v1C22,21.1,21.1,22,20,22z M18.53,10.19C18.21,9.47,17.49,9,16.7,9H7.3c-0.79,0-1.51,0.47-1.83,1.19L2,18 h20L18.53,10.19z M9.5,16h-1C8.22,16,8,15.78,8,15.5C8,15.22,8.22,15,8.5,15h1c0.28,0,0.5,0.22,0.5,0.5C10,15.78,9.78,16,9.5,16z M9.5,14h-1C8.22,14,8,13.78,8,13.5C8,13.22,8.22,13,8.5,13h1c0.28,0,0.5,0.22,0.5,0.5C10,13.78,9.78,14,9.5,14z M9.5,12h-1 C8.22,12,8,11.78,8,11.5C8,11.22,8.22,11,8.5,11h1c0.28,0,0.5,0.22,0.5,0.5C10,11.78,9.78,12,9.5,12z M12.5,16h-1 c-0.28,0-0.5-0.22-0.5-0.5c0-0.28,0.22-0.5,0.5-0.5h1c0.28,0,0.5,0.22,0.5,0.5C13,15.78,12.78,16,12.5,16z M12.5,14h-1 c-0.28,0-0.5-0.22-0.5-0.5c0-0.28,0.22-0.5,0.5-0.5h1c0.28,0,0.5,0.22,0.5,0.5C13,13.78,12.78,14,12.5,14z M12.5,12h-1 c-0.28,0-0.5-0.22-0.5-0.5c0-0.28,0.22-0.5,0.5-0.5h1c0.28,0,0.5,0.22,0.5,0.5C13,11.78,12.78,12,12.5,12z M15.5,16h-1 c-0.28,0-0.5-0.22-0.5-0.5c0-0.28,0.22-0.5,0.5-0.5h1c0.28,0,0.5,0.22,0.5,0.5C16,15.78,15.78,16,15.5,16z M15.5,14h-1 c-0.28,0-0.5-0.22-0.5-0.5c0-0.28,0.22-0.5,0.5-0.5h1c0.28,0,0.5,0.22,0.5,0.5C16,13.78,15.78,14,15.5,14z M15.5,12h-1 c-0.28,0-0.5-0.22-0.5-0.5c0-0.28,0.22-0.5,0.5-0.5h1c0.28,0,0.5,0.22,0.5,0.5C16,11.78,15.78,12,15.5,12z"/></g></svg><svg viewBox="0 0 24 24" id="ca-srv_pagamentoguest" xmlns="http://www.w3.org/2000/svg"><g data-name="Livello 19"><path d="M19,14V6c0-1.1-0.9-2-2-2H3C1.9,4,1,4.9,1,6v8c0,1.1,0.9,2,2,2h14C18.1,16,19,15.1,19,14z M17,14H3V6h14V14z M10,7 c-1.66,0-3,1.34-3,3s1.34,3,3,3s3-1.34,3-3S11.66,7,10,7z M23,7v11c0,1.1-0.9,2-2,2H4c0-1,0-0.9,0-2h17V7C22.1,7,22,7,23,7z"/></g></svg><svg viewBox="0 0 24 24" id="ca-srv_demografici" xmlns="http://www.w3.org/2000/svg"><g data-name="Livello 20"><rect height="1.5" width="4" x="14" y="12"/><rect height="1.5" width="4" x="14" y="15"/><path d="M20,7h-5V4c0-1.1-0.9-2-2-2h-2C9.9,2,9,2.9,9,4v3H4C2.9,7,2,7.9,2,9v11c0,1.1,0.9,2,2,2h16c1.1,0,2-0.9,2-2V9 C22,7.9,21.1,7,20,7z M11,7V4h2v3v2h-2V7z M20,20H4V9h5c0,1.1,0.9,2,2,2h2c1.1,0,2-0.9,2-2h5V20z"/><circle cx="9" cy="13.5" r="1.5"/><path d="M11.08,16.18C10.44,15.9,9.74,15.75,9,15.75s-1.44,0.15-2.08,0.43C6.36,16.42,6,16.96,6,17.57V18h6v-0.43 C12,16.96,11.64,16.42,11.08,16.18z"/></g></svg><svg viewBox="0 0 24 24" id="ca-srv_rubrica" xmlns="http://www.w3.org/2000/svg"><g data-name="Livello 21"><path d="M20 4H4c-1.1 0-2 .9-2 2v12c0 1.1.9 2 2 2h16c1.1 0 2-.9 2-2V6c0-1.1-.9-2-2-2zm0 14H4V6h16v12zM4 0h16v2H4zm0 22h16v2H4zm8-10c1.38 0 2.5-1.12 2.5-2.5S13.38 7 12 7 9.5 8.12 9.5 9.5 10.62 12 12 12zm0-3.5c.55 0 1 .45 1 1s-.45 1-1 1-1-.45-1-1 .45-1 1-1zm5 7.49C17 13.9 13.69 13 12 13s-5 .9-5 2.99V17h10v-1.01zm-8.19-.49c.61-.52 2.03-1 3.19-1 1.17 0 2.59.48 3.2 1H8.81z"/></g></svg><svg viewBox="0 0 24 24" id="ca-srv_sepoltura" xmlns="http://www.w3.org/2000/svg"><g data-name="Livello 22"><path d="M11.5,20H4V4h16v7.5h2V4c0-1.1-0.9-2-2-2H4C2.9,2,2,2.9,2,4v16c0,1.1,0.9,2,2,2h7.5V20z"/><path d="M21.7,19.8c0.4-0.7,0.7-1.5,0.7-2.4c0-2.5-2-4.5-4.5-4.5s-4.5,2-4.5,4.5s2,4.5,4.5,4.5c0.9,0,1.7-0.3,2.4-0.7l2,2l1.4-1.4 L21.7,19.8z M17.9,19.9c-1.4,0-2.5-1.1-2.5-2.5s1.1-2.5,2.5-2.5s2.5,1.1,2.5,2.5S19.3,19.9,17.9,19.9z"/><path d="M15,11c0-0.6-0.4-1.2-0.9-1.4C14.6,9.4,15,8.8,15,8.2c0-0.9-0.7-1.6-1.6-1.6c-0.3,0-0.6,0.1-0.9,0.3l0-0.1 c0-0.9-0.7-1.6-1.6-1.6S9.4,6,9.4,6.8l0,0.1C9.2,6.8,8.9,6.7,8.6,6.7C7.7,6.7,7,7.4,7,8.2c0,0.6,0.4,1.2,0.9,1.4 C7.4,9.9,7,10.4,7,11c0,0.9,0.7,1.6,1.6,1.6c0.3,0,0.6-0.1,0.9-0.3l0,0.1c0,0.9,0.7,1.6,1.6,1.6s1.6-0.7,1.6-1.6l0-0.1 c0.2,0.2,0.6,0.3,0.9,0.3C14.3,12.6,15,11.9,15,11z M11,11.2c-0.9,0-1.6-0.7-1.6-1.6s0.7-1.6,1.6-1.6s1.6,0.7,1.6,1.6 S11.9,11.2,11,11.2z"/><path d="M5,13c0,3.3,2.7,6,6,6C11,15.7,8.3,13,5,13z"/></g></svg><svg viewBox="0 0 24 24" id="ca-srv_stradario" xmlns="http://www.w3.org/2000/svg"><g data-name="Livello 23"><rect x="18" y="4" width="2" height="16"/><rect x="4" y="4" width="2" height="16"/><rect x="11" y="4" width="2" height="4"/><rect x="11" y="10" width="2" height="4"/><rect x="11" y="16" width="2" height="4"/></g></svg><svg viewBox="0 0 24 24" id="ca-srv_adottacane" xmlns="http://www.w3.org/2000/svg"><g data-name="Livello 24"><path d="M12,2C6.5,2,2,6.5,2,12s4.5,10,10,10s10-4.5,10-10S17.5,2,12,2z M4,12c0-4.4,3.6-8,8-8s8,3.6,8,8c0,1.7-0.5,3.3-1.5,4.6 c0-0.2-1.4-1.9-1.4-1.9c0.3-0.4,0.3-0.6,0.3-0.7c0-1.1-1.4-5.2-2.7-6.6c-0.9-1-1.4-1.1-1.4-1c-0.7,0.2-0.7,1.5-0.9,2.4 	c-0.1,0.3-0.2,0.9-0.3,1L5.8,12c-0.3,0.1-0.5,0.5-0.3,0.8c0,0.1,1,2.2,2.2,3l0,0c0.4,0.3,0.9,0.3,1.2,0.3c0.3,0,1.5,0,1.8-0.1 c0.3,0,0.5-0.1,0.8-0.1c0.3,0,0.5,0,0.7,0.1c0.1,0.2,0,2.2-0.2,3.9C7.5,19.9,4,16.4,4,12z"/></g></svg><svg viewBox="0 0 24 24" id="ca-srv_taglistrade" xmlns="http://www.w3.org/2000/svg"><g data-name="Livello 25"><rect height="9" width="2" x="18" y="4"/><rect height="16" width="2" x="4" y="4"/><rect height="4" width="2" x="11" y="4"/><rect height="4" width="2" x="11" y="10"/><rect height="4" width="2" x="11" y="16"/><polygon points="22.5,16.41 21.09,15 19,17.09 16.91,15 15.5,16.41 17.59,18.5 15.5,20.59 16.91,22 19,19.91 21.09,22 22.5,20.59 20.41,18.5"/></g></svg><svg viewBox="0 0 24 24" id="ca-srv_lavoriedili" xmlns="http://www.w3.org/2000/svg"><g data-name="Livello 26"><path d="M20.57,10.66C20.43,10.26,20.05,10,19.6,10h-7.19c-0.46,0-0.83,0.26-0.98,0.66L10,14.77l0.01,5.51 c0,0.38,0.31,0.72,0.69,0.72h0.62C11.7,21,12,20.62,12,20.24V19h8v1.24c0,0.38,0.31,0.76,0.69,0.76h0.61 c0.38,0,0.69-0.34,0.69-0.72L22,18.91v-4.14L20.57,10.66z M12.41,11h7.19l1.03,3h-9.25L12.41,11z M12,17c-0.55,0-1-0.45-1-1 s0.45-1,1-1s1,0.45,1,1S12.55,17,12,17z M20,17c-0.55,0-1-0.45-1-1s0.45-1,1-1s1,0.45,1,1S20.55,17,20,17z"/><polygon points="14,9 15,9 15,3 7,3 7,8 2,8 2,21 3,21 3,9 8,9 8,4 14,4"/><rect height="2" width="2" x="5" y="11"/><rect height="2" width="2" x="10" y="5"/><rect height="2" width="2" x="5" y="15"/><rect height="2" width="2" x="5" y="19"/></g></svg><svg viewBox="0 0 24 24" id="ca-srv_concessioni" xmlns="http://www.w3.org/2000/svg"><g data-name="Livello 27"><path d="M19,16h-2c0-1.2-0.8-2.3-1.9-2.7L9,11H1v11h6v-1.4l7,1.9l8-2.5v-1C22,17.3,20.7,16,19,16z M3,20v-7h2v7H3z M14,20.4 l-7-1.9V13h1.6l5.8,2.2c0.3,0.1,0.6,0.5,0.6,0.8c0,0-2-0.1-2.3-0.1l-2.4-0.8L9.7,17l2.4,0.8c0.5,0.2,1,0.3,1.6,0.3H19 c0.4,0,0.7,0.2,0.9,0.6L14,20.4z"/><path d="M9,4.3h10v9.1h2V4.5c0-1.1-0.9-2-2-2H9c-1.1,0-2,0.9-2,2v4h2V4.3z"/><polygon points="17,11 17,9 11,9 "/><rect x="11" y="6" width="6" height="2"/></g></svg><svg viewBox="0 0 24 24" id="ca-srv_sociali" xmlns="http://www.w3.org/2000/svg"><g data-name="Livello 28"><path d="M4,13c1.1,0,2-0.9,2-2c0-1.1-0.9-2-2-2s-2,0.9-2,2C2,12.1,2.9,13,4,13z M5.13,14.1C4.76,14.04,4.39,14,4,14 c-0.99,0-1.93,0.21-2.78,0.58C0.48,14.9,0,15.62,0,16.43V18l4.5,0v-1.61C4.5,15.56,4.73,14.78,5.13,14.1z M20,13c1.1,0,2-0.9,2-2 c0-1.1-0.9-2-2-2s-2,0.9-2,2C18,12.1,18.9,13,20,13z M24,16.43c0-0.81-0.48-1.53-1.22-1.85C21.93,14.21,20.99,14,20,14 c-0.39,0-0.76,0.04-1.13,0.1c0.4,0.68,0.63,1.46,0.63,2.29V18l4.5,0V16.43z M16.24,13.65c-1.17-0.52-2.61-0.9-4.24-0.9 c-1.63,0-3.07,0.39-4.24,0.9C6.68,14.13,6,15.21,6,16.39V18h12v-1.61C18,15.21,17.32,14.13,16.24,13.65z M8.07,16 c0.09-0.23,0.13-0.39,0.91-0.69c0.97-0.38,1.99-0.56,3.02-0.56s2.05,0.18,3.02,0.56c0.77,0.3,0.81,0.46,0.91,0.69H8.07z M12,8 c0.55,0,1,0.45,1,1s-0.45,1-1,1s-1-0.45-1-1S11.45,8,12,8 M12,6c-1.66,0-3,1.34-3,3c0,1.66,1.34,3,3,3s3-1.34,3-3 C15,7.34,13.66,6,12,6L12,6z"/></g></svg><svg viewBox="0 0 24 24" id="ca-srv_listasegnalazioni" xmlns="http://www.w3.org/2000/svg"><g data-name="Livello 29"><path d="M20 2H4c-1.1 0-1.99.9-1.99 2L2 22l4-4h14c1.1 0 2-.9 2-2V4c0-1.1-.9-2-2-2zm0 14H5.17l-.59.59-.58.58V4h16v12zM6 12h2v2H6zm0-3h2v2H6zm0-3h2v2H6zm4 6h5v2h-5zm0-3h8v2h-8zm0-3h8v2h-8z"/></g></svg><svg viewBox="0 0 24 24" id="ca-srv_modalitaaccesso_email" xmlns="http://www.w3.org/2000/svg"><g data-name="Livello 30"><path d="M22 6c0-1.1-.9-2-2-2H4c-1.1 0-2 .9-2 2v12c0 1.1.9 2 2 2h16c1.1 0 2-.9 2-2V6zm-2 0l-8 5-8-5h16zm0 12H4V8l8 5 8-5v10z"/></g></svg><svg viewBox="0 0 24 24" id="ca-srv_modalitaaccesso_online" xmlns="http://www.w3.org/2000/svg"><g data-name="Livello 31"><path d="M4 6h18V4H4c-1.1 0-2 .9-2 2v11H0v3h14v-3H4V6zm19 2h-6c-.55 0-1 .45-1 1v10c0 .55.45 1 1 1h6c.55 0 1-.45 1-1V9c0-.55-.45-1-1-1zm-1 9h-4v-7h4v7z"/></g></svg><svg viewBox="0 0 24 24" id="ca-srv_modalitaaccesso_pec" xmlns="http://www.w3.org/2000/svg"><g data-name="Livello 32"><g><path d="M20,4H4C2.9,4,2,4.9,2,6v12c0,1.1,0.9,2,2,2h9v-2H4V8l8,5l8-5v4h2V6C22,4.9,21.1,4,20,4z M12,11L4,6h16L12,11z"/></g><path d="M19,13l-4,2v2.5c0,2.5,1.7,4.9,4,5.5c2.3-0.6,4-2.9,4-5.5V15L19,13z M18.3,20l-2-2l1.1-1.1l1,1l2.4-2.4l1.1,1.1L18.3,20z"/></g></svg><svg viewBox="0 0 24 24" id="ca-srv_modalitaaccesso_posta" xmlns="http://www.w3.org/2000/svg"><g data-name="Livello 33"><path d="M20 8h-3V4H3c-1.1 0-2 .9-2 2v11h2c0 1.66 1.34 3 3 3s3-1.34 3-3h6c0 1.66 1.34 3 3 3s3-1.34 3-3h2v-5l-3-4zm-.5 1.5l1.96 2.5H17V9.5h2.5zM6 18c-.55 0-1-.45-1-1s.45-1 1-1 1 .45 1 1-.45 1-1 1zm2.22-3c-.55-.61-1.33-1-2.22-1s-1.67.39-2.22 1H3V6h12v9H8.22zM18 18c-.55 0-1-.45-1-1s.45-1 1-1 1 .45 1 1-.45 1-1 1z"/></g></svg><svg viewBox="0 0 24 24" id="ca-srv_modalitaaccesso_sportello" xmlns="http://www.w3.org/2000/svg"><g data-name="Livello 34"><path d="M21.69,16.37l1.14-1l-1-1.73l-1.45,0.49c-0.32-0.27-0.68-0.48-1.08-0.63L19,12h-2l-0.3,1.49c-0.4,0.15-0.76,0.36-1.08,0.63 l-1.45-0.49l-1,1.73l1.14,1c-0.08,0.5-0.08,0.76,0,1.26l-1.14,1l1,1.73l1.45-0.49c0.32,0.27,0.68,0.48,1.08,0.63L17,22h2l0.3-1.49 c0.4-0.15,0.76-0.36,1.08-0.63l1.45,0.49l1-1.73l-1.14-1C21.77,17.13,21.77,16.87,21.69,16.37z M18,19c-1.1,0-2-0.9-2-2s0.9-2,2-2 s2,0.9,2,2S19.1,19,18,19z M19,4v6h-2V6h-2v6h-2V5H7v14h5v2H3v-2h2V3h10v1H19z M12,13h-2v-2h2V13z"/></g></svg><svg viewBox="0 0 24 24" id="ca-srv_modalitaaccesso_telefono" xmlns="http://www.w3.org/2000/svg"><g data-name="Livello 35"><path d="M6.54 5c.06.89.21 1.76.45 2.59l-1.2 1.2c-.41-1.2-.67-2.47-.76-3.79h1.51m9.86 12.02c.85.24 1.72.39 2.6.45v1.49c-1.32-.09-2.59-.35-3.8-.75l1.2-1.19M7.5 3H4c-.55 0-1 .45-1 1 0 9.39 7.61 17 17 17 .55 0 1-.45 1-1v-3.49c0-.55-.45-1-1-1-1.24 0-2.45-.2-3.57-.57-.1-.04-.21-.05-.31-.05-.26 0-.51.1-.71.29l-2.2 2.2c-2.83-1.45-5.15-3.76-6.59-6.59l2.2-2.2c.28-.28.36-.67.25-1.02C8.7 6.45 8.5 5.25 8.5 4c0-.55-.45-1-1-1z"/></g></svg></defs></svg>